<mxfile host="app.diagrams.net" agent="Mozilla/5.0 (Windows NT 10.0; Win64; x64) AppleWebKit/537.36 (KHTML, like Gecko) Chrome/134.0.0.0 Safari/537.36" version="26.1.1">
  <diagram name="Page-1" id="c8nTBjb-yMyL3-pn6Jgx">
    <mxGraphModel dx="1344" dy="690" grid="0" gridSize="10" guides="1" tooltips="1" connect="1" arrows="1" fold="1" page="0" pageScale="1" pageWidth="850" pageHeight="1100" math="0" shadow="0">
      <root>
        <mxCell id="0" />
        <mxCell id="1" parent="0" />
        <mxCell id="h8xcSPWI8WKxq6snyLUC-45" value="" style="rounded=0;whiteSpace=wrap;html=1;fillColor=none;" parent="1" vertex="1">
          <mxGeometry x="60" y="50" width="930" height="930" as="geometry" />
        </mxCell>
        <mxCell id="h8xcSPWI8WKxq6snyLUC-96" value="" style="rounded=0;whiteSpace=wrap;html=1;fillColor=none;dashed=1;" parent="1" vertex="1">
          <mxGeometry x="1140" y="380" width="700" height="110" as="geometry" />
        </mxCell>
        <mxCell id="h8xcSPWI8WKxq6snyLUC-97" value="" style="rounded=0;whiteSpace=wrap;html=1;fillColor=none;dashed=1;" parent="1" vertex="1">
          <mxGeometry x="1140" y="519" width="700" height="141" as="geometry" />
        </mxCell>
        <mxCell id="h8xcSPWI8WKxq6snyLUC-139" value="" style="rounded=0;whiteSpace=wrap;html=1;fillColor=none;dashed=1;" parent="1" vertex="1">
          <mxGeometry x="1140" y="900" width="700" height="90" as="geometry" />
        </mxCell>
        <mxCell id="h8xcSPWI8WKxq6snyLUC-143" value="" style="rounded=0;whiteSpace=wrap;html=1;fillColor=none;dashed=1;" parent="1" vertex="1">
          <mxGeometry x="1140" y="1110" width="700" height="90" as="geometry" />
        </mxCell>
        <mxCell id="h8xcSPWI8WKxq6snyLUC-142" value="" style="rounded=0;whiteSpace=wrap;html=1;fillColor=none;dashed=1;" parent="1" vertex="1">
          <mxGeometry x="1140" y="1005" width="700" height="90" as="geometry" />
        </mxCell>
        <mxCell id="h8xcSPWI8WKxq6snyLUC-93" value="" style="rounded=0;whiteSpace=wrap;html=1;fillColor=none;dashed=1;" parent="1" vertex="1">
          <mxGeometry x="1140" y="210" width="700" height="150" as="geometry" />
        </mxCell>
        <mxCell id="h8xcSPWI8WKxq6snyLUC-2" value="Crash Game Flow" style="text;html=1;align=left;verticalAlign=middle;whiteSpace=wrap;rounded=0;" parent="1" vertex="1">
          <mxGeometry x="60" y="20" width="190" height="30" as="geometry" />
        </mxCell>
        <mxCell id="h8xcSPWI8WKxq6snyLUC-20" style="edgeStyle=orthogonalEdgeStyle;rounded=0;orthogonalLoop=1;jettySize=auto;html=1;exitX=0.5;exitY=1;exitDx=0;exitDy=0;entryX=0.5;entryY=0;entryDx=0;entryDy=0;" parent="1" source="h8xcSPWI8WKxq6snyLUC-4" target="h8xcSPWI8WKxq6snyLUC-17" edge="1">
          <mxGeometry relative="1" as="geometry" />
        </mxCell>
        <mxCell id="h8xcSPWI8WKxq6snyLUC-4" value="New Term Start" style="ellipse;whiteSpace=wrap;html=1;aspect=fixed;" parent="1" vertex="1">
          <mxGeometry x="470" y="80" width="80" height="80" as="geometry" />
        </mxCell>
        <mxCell id="h8xcSPWI8WKxq6snyLUC-15" style="edgeStyle=orthogonalEdgeStyle;rounded=0;orthogonalLoop=1;jettySize=auto;html=1;exitX=0.5;exitY=1;exitDx=0;exitDy=0;entryX=0.5;entryY=0;entryDx=0;entryDy=0;" parent="1" source="h8xcSPWI8WKxq6snyLUC-5" target="h8xcSPWI8WKxq6snyLUC-6" edge="1">
          <mxGeometry relative="1" as="geometry" />
        </mxCell>
        <mxCell id="h8xcSPWI8WKxq6snyLUC-5" value="System commits Public Key (PK)" style="rounded=0;whiteSpace=wrap;html=1;" parent="1" vertex="1">
          <mxGeometry x="450" y="260" width="120" height="60" as="geometry" />
        </mxCell>
        <mxCell id="h8xcSPWI8WKxq6snyLUC-8" style="edgeStyle=orthogonalEdgeStyle;rounded=0;orthogonalLoop=1;jettySize=auto;html=1;exitX=1;exitY=0.5;exitDx=0;exitDy=0;entryX=0.5;entryY=0;entryDx=0;entryDy=0;" parent="1" source="h8xcSPWI8WKxq6snyLUC-6" target="h8xcSPWI8WKxq6snyLUC-7" edge="1">
          <mxGeometry relative="1" as="geometry" />
        </mxCell>
        <mxCell id="h8xcSPWI8WKxq6snyLUC-12" style="edgeStyle=orthogonalEdgeStyle;rounded=0;orthogonalLoop=1;jettySize=auto;html=1;exitX=0;exitY=0.5;exitDx=0;exitDy=0;entryX=0.5;entryY=0;entryDx=0;entryDy=0;" parent="1" source="h8xcSPWI8WKxq6snyLUC-6" target="h8xcSPWI8WKxq6snyLUC-10" edge="1">
          <mxGeometry relative="1" as="geometry" />
        </mxCell>
        <mxCell id="h8xcSPWI8WKxq6snyLUC-6" value="PK Uploaded to Blockchain" style="rhombus;whiteSpace=wrap;html=1;" parent="1" vertex="1">
          <mxGeometry x="440" y="350" width="140" height="80" as="geometry" />
        </mxCell>
        <mxCell id="h8xcSPWI8WKxq6snyLUC-7" value="Term invalid, Retry uploading PK" style="ellipse;whiteSpace=wrap;html=1;aspect=fixed;" parent="1" vertex="1">
          <mxGeometry x="670" y="430" width="80" height="80" as="geometry" />
        </mxCell>
        <mxCell id="h8xcSPWI8WKxq6snyLUC-9" value="No" style="text;html=1;align=center;verticalAlign=middle;whiteSpace=wrap;rounded=0;" parent="1" vertex="1">
          <mxGeometry x="710" y="400" width="40" height="30" as="geometry" />
        </mxCell>
        <mxCell id="h8xcSPWI8WKxq6snyLUC-22" style="edgeStyle=orthogonalEdgeStyle;rounded=0;orthogonalLoop=1;jettySize=auto;html=1;exitX=0.5;exitY=1;exitDx=0;exitDy=0;entryX=0.5;entryY=0;entryDx=0;entryDy=0;" parent="1" source="h8xcSPWI8WKxq6snyLUC-10" target="h8xcSPWI8WKxq6snyLUC-29" edge="1">
          <mxGeometry relative="1" as="geometry">
            <mxPoint x="310" y="590" as="targetPoint" />
          </mxGeometry>
        </mxCell>
        <mxCell id="h8xcSPWI8WKxq6snyLUC-10" value="Term ready. System can allow player bets." style="rounded=0;whiteSpace=wrap;html=1;" parent="1" vertex="1">
          <mxGeometry x="250" y="440" width="120" height="60" as="geometry" />
        </mxCell>
        <mxCell id="h8xcSPWI8WKxq6snyLUC-13" value="Yes" style="text;html=1;align=center;verticalAlign=middle;whiteSpace=wrap;rounded=0;" parent="1" vertex="1">
          <mxGeometry x="320" y="400" width="40" height="30" as="geometry" />
        </mxCell>
        <mxCell id="h8xcSPWI8WKxq6snyLUC-24" style="edgeStyle=orthogonalEdgeStyle;rounded=0;orthogonalLoop=1;jettySize=auto;html=1;exitX=0.5;exitY=1;exitDx=0;exitDy=0;" parent="1" source="h8xcSPWI8WKxq6snyLUC-29" target="h8xcSPWI8WKxq6snyLUC-23" edge="1">
          <mxGeometry relative="1" as="geometry">
            <mxPoint x="310" y="650" as="sourcePoint" />
          </mxGeometry>
        </mxCell>
        <mxCell id="h8xcSPWI8WKxq6snyLUC-21" style="edgeStyle=orthogonalEdgeStyle;rounded=0;orthogonalLoop=1;jettySize=auto;html=1;exitX=0.5;exitY=1;exitDx=0;exitDy=0;entryX=0.5;entryY=0;entryDx=0;entryDy=0;" parent="1" source="h8xcSPWI8WKxq6snyLUC-17" target="h8xcSPWI8WKxq6snyLUC-5" edge="1">
          <mxGeometry relative="1" as="geometry" />
        </mxCell>
        <mxCell id="h8xcSPWI8WKxq6snyLUC-17" value="System generates Salt + Multiplier" style="rounded=0;whiteSpace=wrap;html=1;" parent="1" vertex="1">
          <mxGeometry x="450" y="180" width="120" height="60" as="geometry" />
        </mxCell>
        <mxCell id="0Apc2boT2bE7w6Tbms5S-4" style="edgeStyle=orthogonalEdgeStyle;rounded=0;orthogonalLoop=1;jettySize=auto;html=1;exitX=0.5;exitY=1;exitDx=0;exitDy=0;entryX=0.5;entryY=0;entryDx=0;entryDy=0;" edge="1" parent="1" source="h8xcSPWI8WKxq6snyLUC-23" target="h8xcSPWI8WKxq6snyLUC-41">
          <mxGeometry relative="1" as="geometry" />
        </mxCell>
        <mxCell id="h8xcSPWI8WKxq6snyLUC-23" value="Term Closed, release results via server" style="rounded=0;whiteSpace=wrap;html=1;" parent="1" vertex="1">
          <mxGeometry x="220" y="640" width="180" height="60" as="geometry" />
        </mxCell>
        <mxCell id="h8xcSPWI8WKxq6snyLUC-29" value="Accept Player Bets according to game logic, update UI." style="rounded=0;whiteSpace=wrap;html=1;" parent="1" vertex="1">
          <mxGeometry x="250" y="540" width="120" height="60" as="geometry" />
        </mxCell>
        <mxCell id="0Apc2boT2bE7w6Tbms5S-5" style="edgeStyle=orthogonalEdgeStyle;rounded=0;orthogonalLoop=1;jettySize=auto;html=1;exitX=0.5;exitY=1;exitDx=0;exitDy=0;entryX=0.5;entryY=0;entryDx=0;entryDy=0;" edge="1" parent="1" source="h8xcSPWI8WKxq6snyLUC-41" target="h8xcSPWI8WKxq6snyLUC-43">
          <mxGeometry relative="1" as="geometry" />
        </mxCell>
        <mxCell id="h8xcSPWI8WKxq6snyLUC-41" value="Fulfill all bets" style="rounded=0;whiteSpace=wrap;html=1;" parent="1" vertex="1">
          <mxGeometry x="250" y="740" width="120" height="60" as="geometry" />
        </mxCell>
        <mxCell id="h8xcSPWI8WKxq6snyLUC-43" value="Term Closed" style="ellipse;whiteSpace=wrap;html=1;aspect=fixed;" parent="1" vertex="1">
          <mxGeometry x="270" y="840" width="80" height="80" as="geometry" />
        </mxCell>
        <mxCell id="h8xcSPWI8WKxq6snyLUC-46" value="UI and bets closed." style="text;html=1;align=center;verticalAlign=middle;whiteSpace=wrap;rounded=0;" parent="1" vertex="1">
          <mxGeometry x="330" y="610" width="140" height="30" as="geometry" />
        </mxCell>
        <mxCell id="h8xcSPWI8WKxq6snyLUC-48" value="" style="rounded=0;whiteSpace=wrap;html=1;fillColor=none;strokeColor=light-dark(#000000,#FF3333);strokeWidth=3;dashed=1;" parent="1" vertex="1">
          <mxGeometry x="420" y="270" width="180" height="40" as="geometry" />
        </mxCell>
        <mxCell id="h8xcSPWI8WKxq6snyLUC-49" value="" style="endArrow=classic;html=1;rounded=0;entryX=1;entryY=0.5;entryDx=0;entryDy=0;strokeWidth=2;strokeColor=light-dark(#000000,#FF0000);exitX=0;exitY=0.5;exitDx=0;exitDy=0;" parent="1" source="h8xcSPWI8WKxq6snyLUC-50" target="h8xcSPWI8WKxq6snyLUC-48" edge="1">
          <mxGeometry width="50" height="50" relative="1" as="geometry">
            <mxPoint x="800" y="290" as="sourcePoint" />
            <mxPoint x="1160" y="410" as="targetPoint" />
          </mxGeometry>
        </mxCell>
        <mxCell id="h8xcSPWI8WKxq6snyLUC-50" value="Requires interaction with smart contract to upload public key." style="text;html=1;align=left;verticalAlign=middle;whiteSpace=wrap;rounded=0;fontColor=light-dark(#000000,#FF0000);" parent="1" vertex="1">
          <mxGeometry x="640" y="275" width="330" height="30" as="geometry" />
        </mxCell>
        <mxCell id="h8xcSPWI8WKxq6snyLUC-57" value="Commit-Reveal Algorithm" style="text;html=1;align=left;verticalAlign=middle;whiteSpace=wrap;rounded=0;" parent="1" vertex="1">
          <mxGeometry x="1090" y="20" width="190" height="30" as="geometry" />
        </mxCell>
        <mxCell id="h8xcSPWI8WKxq6snyLUC-58" value="" style="rounded=0;whiteSpace=wrap;html=1;fillColor=none;movable=0;resizable=0;rotatable=0;deletable=0;editable=0;locked=1;connectable=0;" parent="1" vertex="1">
          <mxGeometry x="1090" y="50" width="930" height="1180" as="geometry" />
        </mxCell>
        <mxCell id="h8xcSPWI8WKxq6snyLUC-59" value="Backend System (Offchain)" style="rounded=0;whiteSpace=wrap;html=1;strokeWidth=2;" parent="1" vertex="1">
          <mxGeometry x="1160" y="130" width="120" height="60" as="geometry" />
        </mxCell>
        <mxCell id="h8xcSPWI8WKxq6snyLUC-60" value="Public Blockchain" style="rounded=0;whiteSpace=wrap;html=1;strokeWidth=2;" parent="1" vertex="1">
          <mxGeometry x="1700" y="130" width="120" height="60" as="geometry" />
        </mxCell>
        <mxCell id="h8xcSPWI8WKxq6snyLUC-61" value="Commit-Reveal Smart Contract" style="rounded=0;whiteSpace=wrap;html=1;strokeWidth=2;" parent="1" vertex="1">
          <mxGeometry x="1430" y="130" width="120" height="60" as="geometry" />
        </mxCell>
        <mxCell id="h8xcSPWI8WKxq6snyLUC-66" value="" style="endArrow=none;html=1;rounded=0;entryX=0.5;entryY=1;entryDx=0;entryDy=0;strokeWidth=2;" parent="1" target="h8xcSPWI8WKxq6snyLUC-59" edge="1">
          <mxGeometry width="50" height="50" relative="1" as="geometry">
            <mxPoint x="1220" y="670" as="sourcePoint" />
            <mxPoint x="1460" y="400" as="targetPoint" />
          </mxGeometry>
        </mxCell>
        <mxCell id="h8xcSPWI8WKxq6snyLUC-67" value="" style="endArrow=none;html=1;rounded=0;entryX=0.5;entryY=1;entryDx=0;entryDy=0;strokeWidth=2;" parent="1" edge="1">
          <mxGeometry width="50" height="50" relative="1" as="geometry">
            <mxPoint x="1490" y="670" as="sourcePoint" />
            <mxPoint x="1489.23" y="190" as="targetPoint" />
          </mxGeometry>
        </mxCell>
        <mxCell id="h8xcSPWI8WKxq6snyLUC-68" value="" style="endArrow=none;html=1;rounded=0;entryX=0.5;entryY=1;entryDx=0;entryDy=0;strokeWidth=2;" parent="1" edge="1">
          <mxGeometry width="50" height="50" relative="1" as="geometry">
            <mxPoint x="1760" y="670" as="sourcePoint" />
            <mxPoint x="1760" y="190" as="targetPoint" />
          </mxGeometry>
        </mxCell>
        <mxCell id="h8xcSPWI8WKxq6snyLUC-69" value="System Perspective" style="text;html=1;align=left;verticalAlign=middle;whiteSpace=wrap;rounded=0;" parent="1" vertex="1">
          <mxGeometry x="1140" y="80" width="190" height="30" as="geometry" />
        </mxCell>
        <mxCell id="h8xcSPWI8WKxq6snyLUC-70" value="Upload Public Key for Term #1" style="text;html=1;align=left;verticalAlign=middle;whiteSpace=wrap;rounded=0;" parent="1" vertex="1">
          <mxGeometry x="1240" y="390" width="190" height="30" as="geometry" />
        </mxCell>
        <mxCell id="h8xcSPWI8WKxq6snyLUC-71" value="" style="endArrow=classic;html=1;rounded=0;strokeColor=light-dark(#000000,#FF3333);" parent="1" edge="1">
          <mxGeometry width="50" height="50" relative="1" as="geometry">
            <mxPoint x="1220" y="420" as="sourcePoint" />
            <mxPoint x="1490" y="420" as="targetPoint" />
          </mxGeometry>
        </mxCell>
        <mxCell id="h8xcSPWI8WKxq6snyLUC-72" value="" style="endArrow=classic;html=1;rounded=0;" parent="1" edge="1">
          <mxGeometry width="50" height="50" relative="1" as="geometry">
            <mxPoint x="1490" y="440" as="sourcePoint" />
            <mxPoint x="1760" y="440" as="targetPoint" />
          </mxGeometry>
        </mxCell>
        <mxCell id="h8xcSPWI8WKxq6snyLUC-73" value="Public Key for Term #1 stored" style="text;html=1;align=left;verticalAlign=middle;whiteSpace=wrap;rounded=0;" parent="1" vertex="1">
          <mxGeometry x="1560" y="410" width="190" height="30" as="geometry" />
        </mxCell>
        <mxCell id="h8xcSPWI8WKxq6snyLUC-74" value="" style="endArrow=classic;html=1;rounded=0;" parent="1" edge="1">
          <mxGeometry width="50" height="50" relative="1" as="geometry">
            <mxPoint x="1760" y="470" as="sourcePoint" />
            <mxPoint x="1220" y="470" as="targetPoint" />
          </mxGeometry>
        </mxCell>
        <mxCell id="h8xcSPWI8WKxq6snyLUC-75" value="Call and ensure Public Key for #1 is stored" style="text;html=1;align=left;verticalAlign=middle;whiteSpace=wrap;rounded=0;" parent="1" vertex="1">
          <mxGeometry x="1240" y="440" width="240" height="30" as="geometry" />
        </mxCell>
        <mxCell id="h8xcSPWI8WKxq6snyLUC-76" value="Generate for Term #1&lt;br&gt;1. Server Salt&lt;br&gt;&lt;div&gt;2. Multiplier&lt;/div&gt;&lt;div&gt;3. Public Key (Hash of 1. and 2.)&lt;/div&gt;" style="text;html=1;align=left;verticalAlign=middle;whiteSpace=wrap;rounded=0;" parent="1" vertex="1">
          <mxGeometry x="1230" y="215" width="190" height="60" as="geometry" />
        </mxCell>
        <mxCell id="h8xcSPWI8WKxq6snyLUC-78" value="" style="endArrow=classic;startArrow=none;html=1;rounded=0;startFill=0;" parent="1" edge="1">
          <mxGeometry width="50" height="50" relative="1" as="geometry">
            <mxPoint x="1220" y="220" as="sourcePoint" />
            <mxPoint x="1220" y="280" as="targetPoint" />
            <Array as="points">
              <mxPoint x="1180" y="220" />
              <mxPoint x="1180" y="280" />
            </Array>
          </mxGeometry>
        </mxCell>
        <mxCell id="h8xcSPWI8WKxq6snyLUC-81" value="Use 1. and 2. for Term #1 to verify" style="text;html=1;align=left;verticalAlign=middle;whiteSpace=wrap;rounded=0;" parent="1" vertex="1">
          <mxGeometry x="1240" y="549" width="190" height="30" as="geometry" />
        </mxCell>
        <mxCell id="h8xcSPWI8WKxq6snyLUC-82" value="" style="endArrow=classic;html=1;rounded=0;" parent="1" edge="1">
          <mxGeometry width="50" height="50" relative="1" as="geometry">
            <mxPoint x="1220" y="579" as="sourcePoint" />
            <mxPoint x="1490" y="579" as="targetPoint" />
          </mxGeometry>
        </mxCell>
        <mxCell id="h8xcSPWI8WKxq6snyLUC-85" value="" style="endArrow=classic;html=1;rounded=0;exitX=0.533;exitY=1.059;exitDx=0;exitDy=0;exitPerimeter=0;" parent="1" edge="1" source="h8xcSPWI8WKxq6snyLUC-86">
          <mxGeometry width="50" height="50" relative="1" as="geometry">
            <mxPoint x="1760" y="619" as="sourcePoint" />
            <mxPoint x="1220" y="619" as="targetPoint" />
          </mxGeometry>
        </mxCell>
        <mxCell id="h8xcSPWI8WKxq6snyLUC-86" value="Ensure the hash of 1. and 2. == 3 as proof" style="text;html=1;align=left;verticalAlign=middle;whiteSpace=wrap;rounded=0;" parent="1" vertex="1">
          <mxGeometry x="1240" y="589" width="470" height="30" as="geometry" />
        </mxCell>
        <mxCell id="h8xcSPWI8WKxq6snyLUC-88" value="" style="endArrow=classic;html=1;rounded=0;" parent="1" edge="1">
          <mxGeometry width="50" height="50" relative="1" as="geometry">
            <mxPoint x="1220" y="310" as="sourcePoint" />
            <mxPoint x="1490" y="310" as="targetPoint" />
          </mxGeometry>
        </mxCell>
        <mxCell id="h8xcSPWI8WKxq6snyLUC-89" value="" style="endArrow=classic;html=1;rounded=0;" parent="1" edge="1">
          <mxGeometry width="50" height="50" relative="1" as="geometry">
            <mxPoint x="1490" y="340" as="sourcePoint" />
            <mxPoint x="1220" y="340" as="targetPoint" />
          </mxGeometry>
        </mxCell>
        <mxCell id="h8xcSPWI8WKxq6snyLUC-90" value="Ensure The hashing of 1. and 2. == 3." style="text;html=1;align=left;verticalAlign=middle;whiteSpace=wrap;rounded=0;" parent="1" vertex="1">
          <mxGeometry x="1230" y="280" width="220" height="30" as="geometry" />
        </mxCell>
        <mxCell id="h8xcSPWI8WKxq6snyLUC-91" value="Confirmed that Hash(1. and 2.) == 3" style="text;html=1;align=left;verticalAlign=middle;whiteSpace=wrap;rounded=0;" parent="1" vertex="1">
          <mxGeometry x="1230" y="310" width="220" height="30" as="geometry" />
        </mxCell>
        <mxCell id="h8xcSPWI8WKxq6snyLUC-94" value="Seed Generation" style="text;html=1;align=left;verticalAlign=middle;whiteSpace=wrap;rounded=0;" parent="1" vertex="1">
          <mxGeometry x="1850" y="260" width="140" height="30" as="geometry" />
        </mxCell>
        <mxCell id="h8xcSPWI8WKxq6snyLUC-95" value="Outcome Commitment" style="text;html=1;align=left;verticalAlign=middle;whiteSpace=wrap;rounded=0;" parent="1" vertex="1">
          <mxGeometry x="1850" y="420" width="140" height="30" as="geometry" />
        </mxCell>
        <mxCell id="h8xcSPWI8WKxq6snyLUC-98" value="Proof Verification" style="text;html=1;align=left;verticalAlign=middle;whiteSpace=wrap;rounded=0;" parent="1" vertex="1">
          <mxGeometry x="1850" y="570" width="140" height="30" as="geometry" />
        </mxCell>
        <mxCell id="h8xcSPWI8WKxq6snyLUC-100" value="Game UI + &lt;br&gt;Game Servers" style="rounded=0;whiteSpace=wrap;html=1;strokeWidth=2;" parent="1" vertex="1">
          <mxGeometry x="1160" y="760" width="120" height="60" as="geometry" />
        </mxCell>
        <mxCell id="h8xcSPWI8WKxq6snyLUC-101" value="Public Blockchain&lt;br&gt;Explorer" style="rounded=0;whiteSpace=wrap;html=1;strokeWidth=2;" parent="1" vertex="1">
          <mxGeometry x="1700" y="760" width="120" height="60" as="geometry" />
        </mxCell>
        <mxCell id="h8xcSPWI8WKxq6snyLUC-102" value="Trustable External Validator (third-party) OR Game UI" style="rounded=0;whiteSpace=wrap;html=1;strokeWidth=2;" parent="1" vertex="1">
          <mxGeometry x="1430" y="760" width="120" height="60" as="geometry" />
        </mxCell>
        <mxCell id="h8xcSPWI8WKxq6snyLUC-103" value="" style="endArrow=none;html=1;rounded=0;entryX=0.5;entryY=1;entryDx=0;entryDy=0;strokeWidth=2;" parent="1" target="h8xcSPWI8WKxq6snyLUC-100" edge="1">
          <mxGeometry width="50" height="50" relative="1" as="geometry">
            <mxPoint x="1220" y="1220" as="sourcePoint" />
            <mxPoint x="1460" y="1030" as="targetPoint" />
          </mxGeometry>
        </mxCell>
        <mxCell id="h8xcSPWI8WKxq6snyLUC-104" value="" style="endArrow=none;html=1;rounded=0;entryX=0.5;entryY=1;entryDx=0;entryDy=0;strokeWidth=2;" parent="1" edge="1">
          <mxGeometry width="50" height="50" relative="1" as="geometry">
            <mxPoint x="1490" y="1220" as="sourcePoint" />
            <mxPoint x="1489.23" y="820" as="targetPoint" />
          </mxGeometry>
        </mxCell>
        <mxCell id="h8xcSPWI8WKxq6snyLUC-105" value="" style="endArrow=none;html=1;rounded=0;entryX=0.5;entryY=1;entryDx=0;entryDy=0;strokeWidth=2;" parent="1" edge="1">
          <mxGeometry width="50" height="50" relative="1" as="geometry">
            <mxPoint x="1760" y="1220" as="sourcePoint" />
            <mxPoint x="1760" y="820" as="targetPoint" />
          </mxGeometry>
        </mxCell>
        <mxCell id="h8xcSPWI8WKxq6snyLUC-106" value="User Perspective" style="text;html=1;align=left;verticalAlign=middle;whiteSpace=wrap;rounded=0;" parent="1" vertex="1">
          <mxGeometry x="1140" y="710" width="190" height="30" as="geometry" />
        </mxCell>
        <mxCell id="h8xcSPWI8WKxq6snyLUC-107" value="Ensure that Public Key was uploaded BEFORE Term #1 was started." style="text;html=1;align=left;verticalAlign=middle;whiteSpace=wrap;rounded=0;" parent="1" vertex="1">
          <mxGeometry x="1240" y="1050" width="470" height="30" as="geometry" />
        </mxCell>
        <mxCell id="h8xcSPWI8WKxq6snyLUC-108" value="" style="endArrow=classic;html=1;rounded=0;" parent="1" edge="1">
          <mxGeometry width="50" height="50" relative="1" as="geometry">
            <mxPoint x="1220" y="1050" as="sourcePoint" />
            <mxPoint x="1760" y="1050" as="targetPoint" />
          </mxGeometry>
        </mxCell>
        <mxCell id="h8xcSPWI8WKxq6snyLUC-111" value="" style="endArrow=classic;html=1;rounded=0;" parent="1" edge="1">
          <mxGeometry width="50" height="50" relative="1" as="geometry">
            <mxPoint x="1760" y="1080" as="sourcePoint" />
            <mxPoint x="1220" y="1080" as="targetPoint" />
          </mxGeometry>
        </mxCell>
        <mxCell id="h8xcSPWI8WKxq6snyLUC-113" value="Get the following info from Game UI:&lt;div&gt;1. Public Key Txn Hash&lt;/div&gt;&lt;div&gt;2. Salt + Multiplier Txn Hash&lt;/div&gt;" style="text;html=1;align=left;verticalAlign=middle;whiteSpace=wrap;rounded=0;" parent="1" vertex="1">
          <mxGeometry x="1230" y="910" width="260" height="60" as="geometry" />
        </mxCell>
        <mxCell id="h8xcSPWI8WKxq6snyLUC-115" value="Check that Hash of Salt + Multiplier =&lt;br&gt;Public key uploaded" style="text;html=1;align=left;verticalAlign=middle;whiteSpace=wrap;rounded=0;" parent="1" vertex="1">
          <mxGeometry x="1240" y="1120" width="240" height="30" as="geometry" />
        </mxCell>
        <mxCell id="h8xcSPWI8WKxq6snyLUC-116" value="" style="endArrow=classic;html=1;rounded=0;" parent="1" edge="1">
          <mxGeometry width="50" height="50" relative="1" as="geometry">
            <mxPoint x="1220" y="1160" as="sourcePoint" />
            <mxPoint x="1490" y="1160" as="targetPoint" />
          </mxGeometry>
        </mxCell>
        <mxCell id="h8xcSPWI8WKxq6snyLUC-117" value="" style="endArrow=classic;html=1;rounded=0;" parent="1" edge="1">
          <mxGeometry width="50" height="50" relative="1" as="geometry">
            <mxPoint x="1490" y="1190" as="sourcePoint" />
            <mxPoint x="1220" y="1190" as="targetPoint" />
          </mxGeometry>
        </mxCell>
        <mxCell id="h8xcSPWI8WKxq6snyLUC-126" value="Information Gathering" style="text;html=1;align=left;verticalAlign=middle;whiteSpace=wrap;rounded=0;" parent="1" vertex="1">
          <mxGeometry x="1850" y="930" width="140" height="30" as="geometry" />
        </mxCell>
        <mxCell id="h8xcSPWI8WKxq6snyLUC-127" value="Public Key Verification" style="text;html=1;align=left;verticalAlign=middle;whiteSpace=wrap;rounded=0;" parent="1" vertex="1">
          <mxGeometry x="1850" y="1040" width="140" height="30" as="geometry" />
        </mxCell>
        <mxCell id="h8xcSPWI8WKxq6snyLUC-130" value="Outcome Verification" style="text;html=1;align=left;verticalAlign=middle;whiteSpace=wrap;rounded=0;" parent="1" vertex="1">
          <mxGeometry x="1850" y="1140" width="140" height="30" as="geometry" />
        </mxCell>
        <mxCell id="h8xcSPWI8WKxq6snyLUC-131" value="Term #1 Ended" style="text;html=1;align=left;verticalAlign=middle;whiteSpace=wrap;rounded=0;" parent="1" vertex="1">
          <mxGeometry x="1230" y="830" width="260" height="60" as="geometry" />
        </mxCell>
        <mxCell id="h8xcSPWI8WKxq6snyLUC-133" value="" style="endArrow=classic;startArrow=none;html=1;rounded=0;startFill=0;" parent="1" edge="1">
          <mxGeometry width="50" height="50" relative="1" as="geometry">
            <mxPoint x="1220" y="830" as="sourcePoint" />
            <mxPoint x="1220" y="890" as="targetPoint" />
            <Array as="points">
              <mxPoint x="1180" y="830" />
              <mxPoint x="1180" y="890" />
            </Array>
          </mxGeometry>
        </mxCell>
        <mxCell id="h8xcSPWI8WKxq6snyLUC-134" value="" style="endArrow=classic;startArrow=none;html=1;rounded=0;startFill=0;" parent="1" edge="1">
          <mxGeometry width="50" height="50" relative="1" as="geometry">
            <mxPoint x="1220" y="910" as="sourcePoint" />
            <mxPoint x="1220" y="970" as="targetPoint" />
            <Array as="points">
              <mxPoint x="1180" y="910" />
              <mxPoint x="1180" y="970" />
            </Array>
          </mxGeometry>
        </mxCell>
        <mxCell id="h8xcSPWI8WKxq6snyLUC-135" value="Check upload time of Public Key based on Txn Hash." style="text;html=1;align=left;verticalAlign=middle;whiteSpace=wrap;rounded=0;" parent="1" vertex="1">
          <mxGeometry x="1240" y="1020" width="470" height="30" as="geometry" />
        </mxCell>
        <mxCell id="h8xcSPWI8WKxq6snyLUC-137" value="Game is fair when matching." style="text;html=1;align=left;verticalAlign=middle;whiteSpace=wrap;rounded=0;" parent="1" vertex="1">
          <mxGeometry x="1240" y="1160" width="240" height="30" as="geometry" />
        </mxCell>
        <mxCell id="h8xcSPWI8WKxq6snyLUC-144" value="r" style="shape=image;verticalLabelPosition=bottom;labelBackgroundColor=default;verticalAlign=top;aspect=fixed;imageAspect=0;image=data:image/png,iVBORw0KGgoAAAANSUhEUgAABLMAAAOACAIAAABOqaa4AAAgAElEQVR4AeydCVwUR96/ZxMkcinMAcMpCh4IcgjIISIiKIKIIAqieEAQVFTwNmImd4wac8fEuIlGTWLyZpNs3E3y7vv3Vdfskey7idkcJlmzGzdqjvV6TRSEMP+3u2aKoudgYJienp7vfPqT9NRUd1U9PdK/Z6q6SuGBFwiAgHMIDPDwGGDh5TlggGHzZF585q6PaB6yw2TELgiAAAiAAAg4ioDg7tP97QC2VMFHprc8Dw/uVuicmzBKBQEQMCGgMElBAgiAgAgErGjhAHor7X5/7UqnGQZ0uwWz2dn9Wzw9sYEACIAACIBAbwmwtxIz++zNiNnvdmdi003NcMAAYoaQQxECDxQBAj0TgBn2zAg5QMABBMzeH0mirb2FZu7SMEAQAAEQAAEQcCwB4c2HcT86qqUPcuiAOy1OCQIg0EsCMMNeAkN2EOgHAlY6DG3SQnJbHjhwoN8gf3+lJkAVpFRrsYEACIAACICAOAQCVEH+So3fIP+BAweSW5KJH/ZCDjGmtB8iC5wCBPqDAMywPyjiHCDQOwK9MEO+G5H+CsvtkJev3yAIoTgBEEoBARAAARCwRCBAFeTrN6hHOWS80cyQGZhh74II5AYBhxGAGToMLU4MAhYJmLkvsgZokD9PTzaR3FaNWjjY0k0a6SAAAiAAAiAgMgFfv8H9IYcW75r4AARAQBwCMENxOKMUEKAEeugwpFroyZlht82ohYNEvuWjOBAAARAAARCwTsBSz6G5m5qZn0fRbUijBOyAgBMJwAydCB9FuycBM3dEtm+Q3kTZRDqIdODAgRhEaj06wacgAAIgAALiEwhQBVl45tD4FES3nzvN3AqxfIV7RkVotaQIwAwldTlQGXcgYOZ2SCXQuhZ6et7iN8hf/Ps9SgQBEAABEACBHgn4DfLnF0nibmXdx7yYyqGZWyHM0B1iILRR4gRghhK/QKiezAhYGkpquIkyZth1W6WJnp63+Cs1Pd6bkQEEQAAEQAAExCfgr9RQMxTIIb2RMcYolEMMKJVZxIPmuCIBmKErXjXU2XUJCG+ExvecB9IXn2hqhtwKxRhKKn6sgxJBAARAAARsIRCgCuLN8BZyO2MkkJtQjbnHkRuc8QbI/B/dhq4b36Dm8iAAM5THdUQrXIUAcwPstmvRDOmtlNxubbk3Iw8IgAAIgAAIOIUAa4bduw1hhq4SqKCebk0AZujWlx+NF5eApaGk3G+pzM+pXb2FTCLXYejpeYtT7vQoFARAAARAAARsIWA0QzPdhvSHTmNfYrffR8kbDCgVNyxBaSAgJAAzFBLBexBwGAFLZmhQQZO7JquLMEOtLUEJ8oAACIAACDiRQG/MkKzZ280PYYYOi0BwYhCwiQDM0CZMyAQC/UHAmhkyWmjoQmQ6DD3pvdaJ93sUDQIgAAIgAALWCdC7FXNTowNheh5QCjPsj2AD5wCBvhOAGfadHY4EgV4S6LMZGjoMMZrUekSCT0EABEAABEQmEBkVGzNmXMyYcZFRsUq1ljFD0wGlMMNeRg3IDgKiE4AZio4cBbovAZghRoSCAAiAAAjIh0BkVOzo+HS6RUbFwgzdN8ZBy2VBwAXM0NdbFR0+KSVmUd44nfUtK6EpJWZRdPgkWVwaNEJ+BLo9TcG8YZ8npKNu2ET0GconkBL553wUBwIgAAKOIxAzZhzVwtHx6TFjxlk1QzrClN7pmDuhcRcLV8gv+kGLXIiA1M1Q7R9l3QbNfpqV0OTrrXKhy4CqugcB431P+H9WAun9kk2EGcIMQQAEQAAEJEeA1UKyDzN0j3gGrZQtAUmboa+3yqz42ZIYF1Uq24uGhrkqAaERGt+zEggzlFzo47if23FmEAABEHBpAjBDV41HUG8QsEBA0mYYF1VqiwRayqP2j7LQakOySqWKioqaZPIaO3ZsVJSZY1UqFc2rUlnrkzTNZvuxHh4e9HBaDfZw+qmlHXJUHw5haVhHRz7tVRGTJmGU7wALL5ghbBAEQAAEQMD1CMAMbQmWkAcEXIiApM0wK6GJWl9WQlN0+CTrm8AkrTxwqFKpSktLdVZfTU1NApmJioqiR1BnM73YKpWKZhs7dizJYOOxHh4e7OG0Auzh9OSWdshRY8eOtZTBNJ3Uk2Vi2i7TFLaqpuc0TTE9g5ulmBVDQychefyCz9EthU/HaFLXC5hcuh8AlQcBEAABWwjYYoaenuxYGMP0pMbF7i0taehm0QGaCwKSISBpM6RamDdOZ0XzWJisTFoZUNrU1GTqLWZTSku7RqWyegYzFEisWXqCRPZKueV+38ywSwuxaoUtkQrygAAIgAAIiEOgJzO0uHAFzNAtoyA02gUIuKMZsj1jRF2aur8EPkMlUDpm2L2+wnekA1DQZyjM1P09aSNLxpYvr6DPsPspzbyz5ZyyzgMzRNcfCIAACICAfAjADGUdtKBx7khA0mbIdgCa9hmafYyQPcRSnyH1n6amJrOPC5LH53TGl9khnVQXTb81rC85YjSplaLZyrBmaLaZbGayT8nodDrTT01TzLbUNBtSjARghvKJh8T5PR6lgAAIgICUCcAMjfd3/B8EZEJA0mbIrmFoaoYpMYvCggxP8dGrkRKzKCuhiWyWzJAOJWVHitIzkB2VSkWzLVq0iCRKpM8QZii4WC7y1toy9wMMT16QJy4EzxliNCl8EgRAAARAQIoEHGaGA1zkzo5qgoDcCEjaDNnFDAVmGBY0Nm+cLiuhqQ8XZNGiRaQ7sKnJ2uFklprS0lJqYjBDAW30GQqAWH0LM5RiWCPlH+NRNxAAARCQOAGYodX7Pj4EAdcjIGkz9PDwiA6fROahYc2QXefQUseglUtBzVCn05WWlpI1KmwZb8ma4dixY1UWXoJspCZsIlVNs5VkdcvSQFazJQvOJhhNasshdo4mNVuELWAFNZfpW5ghzBAEQAAEQEBWBGCGMo1Y0Cz3JSB1M/Tw8AgLGkuWrCBXiboinbk0K6HJ7DOHlq4qK2nGZwm7/t/Ev0r5l0DhrB/YdQpmzxHPGTKn79qlQ15pq1kz7MrH7FHtpIfYY4bMibvtwgyNeGGGsoqHJP5DPqoHAiAAAgICxSVlyxtXCRLZt8UlZcUlZWxKj/swQ+MtHv8HAZkQcAEz9PDw8PVWkY2dYIaaIdlJiVnk662yUREnTZrUTV8svBEsaQgzFHzr2e5NCwh1MEMjNGtmSBYz5Bd9GkDn8jYm4jlDKCUIgAAIgIC9BJY3rvr6zJmtD2w363svvPiSXq8XzQyZRQ6Fc7N5eHC3S+OtE/8HARAQlYBrmCFF4uutMttn6OutInnyxuniokrpW3qg6Y5KpRo7dmxpaemiRYvoZDNm9Yb2rcEMBRhhhgIgVt/CDO0Na8xGM0gEARAAARCwkUBxSRmRw8SkVPaQEyfe7YMWKtXaPvcZwgytBgz4EAScRsDFzJBwYp8zTIkxTBxKPiL9h1kJTbbIoSl1Ff+KiopiOxXpRDWsGQoGmrKnYn3JEaNJrRTNVoMdTWpjx509o0lpS9k6YJ8hADOEGYIACIAACDiZgKkcnjjx7tdnzvS2t5CIJcyQuctjFwTkQMAlzZA8fGh2blI6xNTKtKWkq7C0tNS6L9GJapxohlS3bJRS9isJM2RpSGAfZujkeIj9gRz7IAACIOC2BBKTUr8+c+bEiXcTk1Lt0UL0GUogtEAVQKCfCUjaDOnKhOwMNBSA2fUMqRnmjdNZeuaQDhk1nbWFntzDw4PtNiTpNuqZ2T5Ds4lscXSfNTqYIcXi+jswQ5ghCIAACICAJAgQOfz6zJmvz5yxx5DRZ+j6wQlaAALdCEjaDFnNY1etIC0wK37WDyEHsp2BVL26UfHwUKlUbDbyqT1m6OHhQY20qanJUnclW65O1zV9i41Fs61gDdNScWx+Dw8PjCYVAOnXtzBDScRD9sRAOBYEQAAE5EGA9Bbq9fqvz5wRPHPYqwbCDPs1TsDJQMD5BFzYDM3CY83Q0lKHrDLpdLomkxdVOLJTWlpKyrJRzyx1D7LeZUu5bJemjUWzTNhm9sEMTagIEzx4f6ashB+be89Wz/32YYYwQxAAARAAAecTSExK1ev1J068q1RrSbdhn+UQZuh+wQxaLHMC7miGgn456jaWdqhW2ahnlsyQTbdUFpvOzjRjY9Hst9VOM2RrYnZfYIZm8wgS2eq53z7M0PnxUK9+C0dmEAABEJAfgeKSMqqFpHUvvPhSn3sOYYbuF8ygxTInIGkzTIlZRPsAsxKa4qJKo8MnWdniokpp/rxxurCgsZaunkqlYh8jFAgMfdvU1NQHPWMNUDBatW/lenh4wAwtXUrXSYcZwgxBAARAAAScScBUC6kc6vX6PvQcwgxdJwhBTUHAJgIuY4as8tm43+PCFSqVKioqauzYsZNMXlFRUbSrkIIkXkfymn5qNhsrlmyGXpVLeudoHa0UTYsgMkkPYdOt7JtFQU8i2CHnESRaf2ulaDf4CGbozHhIfj/829ii0XGJuXlTbcyMbCAAAjImQLTwhRdfMtvGrQ9s78OShjBDN4he0ET3IiBpM2TXLbTRBmk2wTqH7nVV0VopEoAZwgydQOCFF18is9JvfWC72XDQ9sTy2ZVHjhz994UL7e3tnZ2dP/74498+/vjOu+6JiIy2/SR9zrl9x862tht6vf7cufMlpeV9Po+bH5hfOKth1aZNdz5ous2ZvyQlfaKb85F384tLyqwvWri8cZX1DKZ8YIZSDDdQJxCwg4CkzZCuW0h9z8YdK4sZ2sEKh4KAPQRghk7wItM4xj1TyDyEvY35KKuIyOjn9x9obW3Vm7w6Ozvff/8vGeOzaWYH7fSXGSamZG66a+eufW88c/Dw08+/sfXR54pmVqo0waTa1j9VqrXjcwru3vH0089zhz/x3Kurb7s3akQs2+S8aTO3PvIsybBr3xt373gqY0IemyFQG7q4fvWje1555uDh3QfefOCxvQXFs9kMdF+lCV7a1LL7wJv3P/zLyKhRbHrJ7OodT+zffeDN3Qfe3PHE/pLZ1bQJNJvpTn7hrG2P7Z0zf0l+4SzTbc78Jdse22t6FFJAwAoBmKE9YQGOBQEJEpC6GXp4ePh6q+KiStlnDi35IVn/0HR9CwlyR5XcjwDMEGboTALFJWV9XrjspZde7ujoIFbY3t7+j3/+89Spz69du0ZSOjs7jx495uiew34xw+RxEx5++oXdB97ccu8jVYuWrduybde+155+/o2K6nqlWmv9U6VaO23GnCf3vrZr3xvrtzwwv6bxvp17dh94c+euA8njJpDQuaK6/unn3yAZqhYt23LvI7sPvPnEc69OmjKDZNCGDtl0104ihPNrGtdsvv/JvV0VEMTf+YVlT+597ZmDh1kzpLr4yO5DS1ZsWLJiwyO7D+0+8ObSppYe5XDbY3vZXsGoEXGCbct9j7IZBPXBWxAwJQAzdL9gBi2WOQEXMEOZXwE0z10IwAyd6UWmAY07pCQmpZLxY8UlZbfWNXz33Xf0bY/jyiifW+saLl68RCTwX//6Zl71IvJRxvjsP/zxT52dnXq9vrW19a577qOHOGLHfjNUaYI36LbvPvBmXeMGKlF5haVPPPfqtsf2Ro8cY+VTYlDbHtv7xHOv5hWWkgZSSVu3ZZtKExw1Im7bY3t37Xt9euk8mmHhkqbdB95cv+UBklJRveTp/b/edNdObegQkkIrEDUijqSQ/8bGp+zcdYB4I2uGhSUVu/a9fv9DvxwxOoHkHDE64f6Hfrlr3+uFJRXsGUz3nzl4mJRCOg+fOXjYdNvx5P6GVZsElTE9FVJAgBCAGbpLCIN2ug0BmKHbXGo01MkEYIYwQ/EIkB7Cr8+cOXHiXbp9/XW3tzYucv0fr/6K6N+VK1fWrtvABsRzKqq+//57Io1vvfV2w7LGq1ev6vX6s2fP3XXPfV/94x/t7e2nTn1ODtly+x2ffXaqta1Nr9d3dnZevHjp9Td+PaWgiJ6wfHbl0aPHLl++0tHR0d7e/u8LF44cOVo+u5JkYM3woYcf/efXX7e3t7e2tZ07d37Hgw+xJ9m7b3/DskaaQneGj4rf/vjzDz31Qlx8Kk0MCo6484Enn9z7q+LSKiuf5uRNz5tWumvfa5vveZhapVKtjR+b/vDuQw/vPhQ/Nn3y1JlP7n3t7h1Phw2JoudPSMl89JmXidqFDYm6e8fTphXQ3f/4rn2v5U0zCKdSrQ0Kjth4x46nn3+jdtm6R3YfomZI5Pap51+fXlZFi1CqtdPLqp56/vUNuu1s3dgMZJ+aoaDzkM0ZNSJuzvwlDas2sYnYBwFLBGCGTo4sUDwI9DcBmGF/E8X5QMA8AZiheF5kKYhxn/Svz5zpccqZefMXbn1ge49DTD/59FPifidPfmQK8O577j906JVDh17Ztv1BaobE2chRxAzZ8agknfz388+/IHK4YmXzhQsX2Y/I/sWLl9asXa9Ua6kZ3rhxo729nc3Z0dHx0ksvK9Va2r15/fr1u+6+V1Db2PiUrY88q7v/8SHDRrIftdzzyJN7X5tVWWPl08lTZ86aW/vMwcPLmrewx0ZGjbr/4V8+9fzr02bMGTE6Yfa8W/MLy9gMKRk5j+15megisUTaf8hmE+yTUakb79iRlJLFmmFM3Niduw5sf/z54aPi2UOI9O7cdSAmbiybLtgnZpiSPnHTnQ8KPmLfks5PNgX7IGCJAMzQ/A0fqSDgsgRghi576VBxFyMAM4QZikRgeeMqvV6vVGvj4pN+9drrZkM63R136fX6ouklJ068a2VmmqLpJWfPniMaZulU9PzUDEmv4L8vXPj4k08OH/7tuvUbf/zxRzLo9OVXXm1Y1vjU07uvXLmi1+t//vnnPXueVaq1x44dJ0edOPHu5PyCORVVJ068+/PPP+v1emKk1Az1en17e/vJkx8dPvxbOsz1+++/n1NRdf/WbbRPcu++/bRiVnbi4lMfeuoFS07Ffjpj1vyn9/969cZ72LMRJXvm4OGK6iVsOtmnw01Xrb9TqdaSXseapWsrqut37jpA5o956KkXKqrr2b4+8rjjQ0+9kJCSGZc4jjXD8ROnPvHsq3c+8GRQcARbHOn5fGzPyykZOWy6YB9mKACCt/YTgBm6WCSC6oJATwRghj0Rwucg0D8EYIYieZH9sY6rn2HrA9tfePGl1LRMne6uCxcu1t7KTa/CbhWV8+ITkxuWLleqtS+8+JKV3sWS0vJz584TM9x/4CB7EtN91gyPH/89nZNmXvWigy+8eOjQKw899Ag9iqigXq8/cuSoUq09depzonxEFJVq7ZSCor379h869MpTT+9OTcukZtjR0UHzNDWvuXyZM8zWtrb7t27LGJ/9/vt/+fnnn7/88u9zKrqNt6TlsjsqTfDy1VueOXiYmBv7kVKtFXz6f1OzPPrMy9se2zdydCLNWVJeTaYhZfsSw4dEl1Usml/TeM+Du3cfePO+nXtGj0lWqrWk13H748+TCUUX1zcvX71FMH+MNnTI5nsefvr5N0rKqzm3726GZMBqyz1dGGlNSM/n5KkzaYrpDszQlAlS7CQAM+yfAAFnAQHJEIAZSuZSoCIyJwAz7CYndoYjONwKAWKGq9es+/Of37t+vfX/HfnvrAmTaP66JUv1ev1//u6/SIp1M+xbn+H169fvuPNuWiLRvNff+PWFCxfpHKd0OOixY8eVau1bb71NU1rb2i5duvzpp58devk/aH8mNcMffvihat4CcvKIyOgvvvjSRnFl60PEr2HlbZy5PbTHdMIVlSZY8KlKE7xuy7ZnDh6+a/uulPSJgdrQ/5O3R595ede+N57e/2vWDInOkclddh94c+sjz/7fOFJqhs8cPMzOQEN6CJ947tUJuQVKtbZm6drdB94kU9rADAWXDG8lSABmKPPIBc1zPwIwQ/e75mixcwjADGGGIhEgZqhUa7MmTPrmm7OCaDI9c8IHH3xIzc26GSrV2j48Z3j16lV2DpiM8dkff/IJFT/BDjHD4pKykyc/IlPdsBna2m48/sQu9jlDwUr3pLNRr9f32KXJctCGDlm1/s7dB97c/vjzRNts+XTIsFGb73l494E36ZSeDzy2t2rRsl37XptfY2bOm7j41I38bKh373gqfEg0GY9KJZCWWNe44ZmDh+fXNE6aMuOJ517duetAbHwK+VTQZ2h9NOkTz746fuJUelrTHfQZmjJBip0EYIbOCShQKgg4jADM0GFocWIQ6EYAZiiSF9kZ6MjgcGqG/CyX4Uq1NjEpdXnjKrqxbezRDPswN6nADPfseZY8Mfj999+vXLWalE5HkxIzJIklpeVPPb376NFjf//7abpeIlFB2mdovxlqQ4es2Xw/6c0bkziOpaFUa61/yj+9mTprbu2ceXXjMicFakPn1zSSGWgE5yFvw4dE3/PgbuJsxOse2X0ornuhZJTpqvV337dzzzMHD69t2Vq5oIFsi+tXP/Hcqw899cL82hVlFYvGpmbZMwPNpjsfTEmfiBlozF4pJPaNAMyw230eb0DA9QnADF3/GqIFrkEAZggzFIkAa4ZKtba4pEyv19O1K/R6PR2i2eNzhkq1dkn9skuXLpN+PEvrGZK5QOlzhgIzNJXAjPHZX/3jH+Scx44dL5pe8uWXf7969erZs+durWsgEWpZecW3336r1+vJ2Ww0w4Zljb/7r/+35fY7LIW54UOib7v7oWcOHt5y7yNDho0SZLPyaWJK5qY7H1zatJldlEIbOuSOrU+QhSgaVm0ynbxUpQm+/d5Hn9z72uSpM8lEpqY9e8uauWcdG1bd9sjuQ7Q30nTnkd2HElPG6+5/3NKqFYIVNQRNU6q1ZBnDdS1btz22z/RTmoK5SSkK7PRIAGboGgEIagkCNhOAGdqMChlBwC4CMEORvKjHUEb2GQRmeOLEu8sbV9FWL29cdeLEu/Rtj32GSrWWXXOivb39H//859//frq1tZWoXWdn59GjxyIioy2ZIX2G8OLFS9t37Fyzdv1Hf/uYDhz97rvvHtj24AcffEjmJv3iiy83t9zesKzx5VdeJUWcOfOvKQVFtpghldjW1ta77rmPtpHuDBk2asu9j+w+8OaazffTteZt/JT0/gkWlCfLSzRtuEelCZ5aVL5r3+sPPnGAHZ5KFrKnc5+SgaOmzxk++szL/zfDDa0J3RGMJlWqtWTOG3al+6gRcfc9tIdOWkOPNbsTNSKuavHyu7ZxA3QtbTBDS2SQbkoAZmhXXICDQUB6BGCG0rsmqJE8CcAMLUaiptEGUuwhUFxSRt2PLHnPni0xKfXrM2dot6HAG9mcdD8iMvr1N34tWEWQauH77/8lY3y2Uq21ZIYrVjbTXkdylF6vP3PmXz/99BPtNlyxsvmHH36gn9KdXj1naH3VisioUffs2P3MwcP3PbSnatFSOmKT7GRk51v5NH5sOrfsRGHpE8+9umvfG+u3PFC1aBmRTDqBTVBwxAb+qcIn9/5q9W33Vi5oWLdl2659rz39/BsV1YbpYYnF7T7w5v0P/3JxffOKtbrHfvnK7gNvNqy8jV24gpI3NcOg4IgVa3W7D7z5yO5DS1ZsWLJiA5nddMVanWApC3oSwQ4Rv/zCWYJ0+hYr3VMU2OmRAMxQngELWuXGBGCGbnzx0XRRCcAMYYYiESDuRzoDBWNHSZxHdJFk6HGlexoaNixr/PN7712+fKWjo6Ozs/Pq1at/+/hjdtymJTNUqrUrV63+5NNPyWKDra2tf/jjn6YVFr/19jukV5A8ajiloOg/f/dfV65cId2JrW1tn3z6KX0u0ZY+Q+urVrBThpqO1VzcsMbKYM5Zc2sJh/E5BXfveJqsVPHEc6+uvu3eqBGxFFGgNnTuwqVkrcJnDh7ete+Nu3c8lTet20oS4UOilzZtfuyXrzxz8PDuA28+8NjeopmVZrXQdG5SUhAp5aGnXqArIs5duDRQG0qr0eMOGVa67bG9ptszBw9ve2yv2Q7MHk+LDG5IAGYoahyBwkDA8QRgho5njBJAgCMAMxTJi9wwODNtMplyZusD2xOTUk0/JXPS2DKO1OyxSJQHgagRcaabPJqGVohGAGaIAAcEZEYAZiizC4rmSJYAzBBmCAIgAAIgICsCMEPJxhyoGAj0jQDMsG/ccBQI9JYAzFBW8ZBoP8mjIBAAARCQLAGYYW9DAeQHAYkTgBlK/AKherIhADOEGYIACIAACMiKAMxQNjEKGgIChADMEN8EEBCHAMxQVvGQZH/CR8VAAARAQDQCMENxAgiUAgKiEYAZioYaBbk5AZghzBAEQAAEQEBWBGCGbh7ZoPnyIwAzlN81RYukSQBmKKt4SLSf5FEQCIAACEiWAMxQmgEHagUCfSYAM+wzOhwIAr0iADOEGYIACIAACMiKAMywV3EAMoOA9AnADKV/jVBDeRCAGcoqHpLsT/ioGAiAAAiIRgBmKI8ABa0AAUoAZkhRYAcEHEoAZggzBAEQAAEQkBUBmKFD4wacHATEJwAzFJ85SnRPAjBDWcVDov0kj4JAAARAQLIEYIbuGdCg1TImADOU8cVF0yRFAGYIMwQBEAABEJAVAZihpOIMVAYE7CcAM7SfIc4AArYQgBnKKh6S7E/4qBgIgAAIiEYAZmjL7R95QMCFCMAMXehioaouTQBmCDMEARAAARCQFQGYoUvHJag8CJgSgBmaMkEKCDiCAMxQVvGQaD/JoyAQAAEQkCwBmKEjwgWcEwScSABm6ET4KNqtCMAMYYYgAAIgAAKyIgAzdKs4Bo11BwIwQ3e4ymijFAjADGUVD0n2J3xUDARAAAREIwAzlEJ4gTqAQD8SUGiCwrCBAAg4jECoJihUHRiqDgxTB7L/1kI1XCJJ5/IY34bwiaFqTYg6kGx8Nk0Il6IJEe1+j4JAAARAAARAwDoBUzMktyr+FkbucfyNjLuj0bfc/Y65Mxre0rswuV2q+TzczRFhKgiAgIgE0Ijjy7MAACAASURBVGfYj5qNU4GAFQLoM0SfIQiAAAiAgKwImJqhp+ct3TdPT0/PAQPoNoB7z7+MiQMELw8P7nZp5W6Kj0AABBxHAGboOLY4MwiwBGCGsoqHrP+Ojk9BAARAwB0IwAzZ2zz2QUAGBGCGMriIaIJLEIAZwgxBAARAAARkRQBm6BLxByoJArYTgBnazgo5QcAeAjBDWcVD7tAbgDaCAAiAgHUCMEN7wgIcCwISJAAzlOBFQZVkSQBmCDMEARAAARCQFQGYoSzjFTTKnQnADN356qPtYhKAGcoqHrL+Ozo+BQEQAAF3IAAzFDOMQFkgIAIBmKEIkFEECHiQydYEM7Dxb7kZ2+iLpjCJ3eZ5c4dQA20EARAAARBwCQIwQ8Q3ICAzAjBDmV1QNEeyBNBniD5DEAABEAABWRGAGUo25kDFQKBvBGCGfeOGo0CgtwRghrKKh1zi53xUEgRAAAQcSgBm2NtQAPlBQOIEYIYSv0ConmwIwAzdxQzjY0rubvhxa6OebPcv/3lzzdlxCQv7Nz6bmfvo1kZ9Q/lRTWB4cPCIyCHJoaEx/VsEziYPAqdOfX7u3PmS0vJ+bM7+Awfb2m5s37HTxnNu37Gzre3G/gMHbczf52wlpeXnzp0/derzPp8BB/aKAMxQNjEKGgIChADMEN8EEBCHAMzQvczwvuUdt9f9sKX22zuWXN7aqL93Weu4hAW9CrmsZ2bNkN23fhQ+dUMCMEM3vOiiNRlmKE4AgVJAQDQCMEPRUKMgNycAM3QvM7y97t/Dh01QqrWBgRG1M3+7tVFfP+uIWhPaXxEba4Psfn+dH+eRDQGYoWwupQQbAjN088gGzZcfAZih/K4pWiRNAjBDNzVDpVqbnbpqa6N+XfXnYaGx2uDh84teuqv+6tZG/R1LruRl3qZUByvV2iERYxeXvHlX/dX7l//cUns+N329WhNKBqZSyYwcktxSe/7eZa3JcXOpDdaVvUNHrm5t1OdlbJRg+IgqOZGAWTMsLin74IMPW9va9Hr9jz/++JvfvBUXn6RUa4tLyt5//y+tra16vf7atWtHjhzNGJ+tVGunFBQdPXrs2rVrnZ2d/75w4eTJj+ho0oaly7/88u/t7e2dnZ2XLl3eu29/RGT09h07r1279ve/n25ru3H16tXf/PattrYbf/3rB99++21HR0drW9snn37asHQ5wVI+u/KDDz68fv16Z2fnlStXXv3Va1YqQ8aL/utf31y6dFmv1+8/cPDOu+45f/48Oe2nn3727wsXMJpUtO8bzFCaAQdqBQJ9JgAz7DM6HAgCvSIAM3RfM8zL2Li1Ub+m+tOI8PjFJb/e2qjfuOirW0vfurP+ytZG/czcRwODhi6b/fv7l/9cO/O3U8frNi76iqTbYobziw4Rz7xn6fUttd9mp64SLShEQS5BwNQMM8Znf/bZqStXrmx9YHtObv5rr7/R2tb21tvvKNXav/71g7a2G8/vPzA5v+D3vz/R0dHx7HP7UtMy//bxx62trXv37c8Yn7133/7W1lZihnMqqs7zr3XrNxaXlB0//vu2tht79jxLHixsbW19+ZVXb61reOrp3W1tNzo6On7zm7dycvO3PrD9ypUr33xztqS0vKS0/JtvztLK/OY3b7W3tx85ctRSZYgZdnZ2/uUv/7Nm7fp9zx9obW394osvqxcurl64+IsvvtTr9TBD0b6ZMMNexQHIDALSJwAzlP41Qg3lQQBm6KZmGBGe2Dzvb1sb9TUzDyfHVd6z9NrmmrPRQ8cr1dpxCQvuXda6cfHXo0cWtNSev7P+SmLsLKVaO3RI6sTU5nHx1Ymxs+5u+NF6n6EmMJz2H2oCw0WLCFGQqxAwNcP7t267fv36s8/tI02IiIw++dHfvv3227vuue+rf/zjww9PRkRGK9XaxTV1Fy9eOnnyozvuvPv69evv/OfvaJPf+c/fETPcu2//9evX77rnPvLRlIKiM2f+9cUXXz7y6ONtbTf+8Mc/kXQiiic/+hs5s1Ktffa5fe3t7Xv2PLtnz7Pt7e2Cyly8eOnBnQ+brQwxw++//35ORZVSrT158qNLly4vqV9GClpSv+zSpcswQ3qlHL0DM5RHgIJWgAAlADOkKLADAg4lADN0LzNkR3hubdTr6i4mxMycNuHurY369Qu+zE1fNzG1uSDrzjuWXLln6bWUMfOXzf49OeS+5R0ttedn5e3SBg+3pc8QZujo2NfVz29qhvsPHNSbvK5evdqwrJFtLJ3nk8xE+uDOh+mnD+58+Mcff9y+Y+exY8dNzqQ/d+78oZdfYScjJWb44ouH6BlWrGz+8ccfjx07fuzY8R9//HHFymb60YsvHmpta7t/6zaaolRraWXoDk384osvqXBGREZ/8cWXMEMWnUP3YYYOjRtwchAQnwDMUHzmKNE9CcAM3csMydykt9f9cN/yjq2N+pxxa5RqLencE0gjeW4wSDtscvqGNdWfkrlMtzbqa2f+Nj5mJvoMHRrXusPJTc2QGw7a1saaHuEQERm9d9/+S5cud3Z2Ut87depzK2Z45MhRgdeRUwmWqeiDGT6482GzlYEZSupLCzN0z4AGrZYxAZihjC8umiYpAjBD9zJDMgRUExheM/Pw1kZ9U9WHwcEjJqQsv3/5zysr/xKkjVKqtdrg4ePHNmQmLRkZPWl+0Uulkx8L0g6jo0zXVX8+esSULbd+d++yG+mJtUq1dlLamvuWtQtmoEGfoaQCZQlWxtQMBaNDIyKjP/zw5BdffPnEE7t+/PHHE+/+gcw6U1Ze8e2335469bkgv1KtpaNJBWNBS0rLT58+/f77fzFrhr0aTbp//0GzlWHNEKNJnf59gxlKKs5AZUDAfgIwQ/sZ4gwgYAsBmKE7mqFSrR09Yqqu7uLWRn126qrQ0FGr5v7P1kb95pqzt5a+1VJ7fmuj/tbStyLCE1ZW/mVro355xZ/yM1tWzf3r1kb9whmvabVD62b9F7cc4tIbt9/6/b1Lb5ClEdm5STWB4WSGG9JLWTLpIacHi6iApAicOvX5d999t3FTS8OyRrJVVlVzE5PyM8pMzi8gk7689fY7xADfe+/94pIyMp1MR0fH6dOnly5fYWkGmikFRf/8+msyf0xJafmf/vweeXrQrBn2agYaS5XZcvsd7Fr2D2zbgRlonPh9gxnacvtHHhBwIQIwQxe6WKiqSxOAGbqpGSrVwaWTHyePF4aHxYeEjKSzid5ed2FW/lMhISOVam1IyMi50/bfXneBrFoxM/cRkj4kYmx9+X/ft7zj7oaf5k47sH7Bl6Z9hqGho5bNPkGGrVYU7HVimIiiJUjg1KnP6dBQsnPs2PGM8dlHjhy9du0au2pFRGT0y6+8+r//+7+dnZ3t7e0nP/rbqVOfd3Z2Hjt2nK5y0dnZ+d1335048e61a9e279hJFrogC2AIVq0QPGd47dq1P/zxT/++cKGzs7O1re2DDz4sn11JcJFVK1rb2jo7O//3f/+XrFphqTInT37EmqFSrd311G7DaVtb//rXD7755iyeMxTte2hqhrfc4sVuA/nXLbcMNG630Jen5y2engP5/97C/nfAgFv4zXPAAGwgAAJiE4AZurRsoPIuRABm6C5mKFpMhoJAAARAwLkETM2QdTx+39PTkw1tB3Dv+ZdR/AYIXh4e3O3She7uqCoIyIkAzFBOVxNtkTIBmCHMEARAAARAQFYEYIZSDjtQNxDoAwGYYR+g4RAQ6AMBmKGs4iHn/k6P0kEABEBACgRghn2IBnAICEiZAMxQylcHdZMTAZghzBAEQAAEQEBWBGCGcgpT0BYQ8PDwgBniawAC4hCAGcoqHpLCr/WoAwiAAAg4lwDMUJwAAqWAgGgEYIaioUZBbk4AZggzBAEQAAEQkBUBmKGbRzZovvwIwAzld03RImkSgBnKKh5y7u/0KB0EQAAEpEAAZijNgAO1AoE+E4AZ9hkdDgSBXhGAGcIMQQAEQAAEZEUAZtirOACZQUD6BGCG0r9GqKE8CMAMZRUPSeHXetQBBEAABJxLAGYojwAFrQABSgBmSFFgBwQcSgBmCDMEARAAARCQFQGYoUPjBpwcBMQnADMUnzlKdE8CMENZxUPO/Z0epYMACICAFAjADN0zoEGrZUwAZijji4umSYoAzBBmCAIgAAIgICsCMENJxRmoDAjYTwBmaD9DnAEEbCEAM5RVPCSFX+tRBxAAARBwLgGYoS23f+QBARciIEUz9Lxl4MCB3gO9fLy8fbGBgFwI+Hl5+3n7+HJbty82Sffz9iGbr2GHy0y2Qd4+XZtzgwCUDgIgAAIgAAKUgKkZsjcsfp+/kXXd0Yz3OB/u3sdvhkjP25u/P/r4CtLlEgMgoAUB1yAgLTP0vOUWCCH+CMqUAMwQfYYgAAIgAAKyIgAzlGnE4hoOA/iOICAhM+SssFtfCr6XICAnAjBDWcVD9Cdz7IAACICA2xKAGSJwBQGZEZCKGXrecovMyKI5INCdAMwQZggCIAACICArAjDD7jd6Of2cjba4KQGpmCEGkeKPi9wJwAxlFQ+5bRcBGg4CIAAClADMUO6hi5vakTtfVkmYoSfGkWIYrfwJyMEMN7fcfvLkR9hAwNUJbG65nYa22AEBEOgzAZihOysE2i5LApIww4EDvWUJF40CAYaAHMywvb1djxcIuD6B9vb2+KTx2EBABgT6LHX9ciDMkLnLo3sNBORAQBpmiAUq5N9jJod/LfbdAORghkf++6jrSwFaAAL6I/99VBsaiQ0EZECgXwSvzyeBGdoXGCA0AgHJEZCEGeLfFQi4AQE5mKFSrc3JzccGAq5OoM9xMA4EARBgCcAM3SB6kZy6gLlDCcAM8Y0HAXEIyMQM2ZgA+yAAAiAAAu5MAGbo0BgdJwcB8QnADMWxApQCAjBDzE0KAiAAAiAgKwIwQ/EDd5QIAg4lADOEsYCAOARghrKKh9y5lwBtBwEQAAFCAGbo0BgdJwcB8QnADMWxApQCAjBDmCEIgAAIgICsCMAMxQ/cUSIIOJQAzBDGAgLiEIAZyioeQo8BCIAACIAAzNChMTpODgLiE4AZimMFKAUEYIYwQxAAARAAAVkRgBmKH7ijRBBwKAGYIYwFBMQhADOUVTyEvgIQAAEQAAGYoUNjdJwcBMQnADMUxwpQCgjADGGGIAACIAACsiIAMxQ/cEeJIOBQAjBDGAsIiEMAZiireAh9BSAAAiAAAjBDh8boODkIiE8AZiiOFaAUEIAZwgxBAARAAARkRQBmKH7gjhJBwKEEYIYwFhAQhwDMUFbxEPoKQAAEQAAEYIYOjdFxchAQnwDMUBwrQCkgADOEGYIACIAACMiKAMxQ/MAdJYKAQwnADGEsICAOAZihrOIh9BWAAAiAAAjADB0ao+PkICA+AZihOFaAUkAAZggzBAEQAAEQkBUBmKH4gTtKBAGHEoAZwlhAQBwCMENZxUPoKwABEAABEIAZOjRGx8lBQHwCMENxrAClgADMEGYIAiAAAiAgKwIwQ/EDd5QIAg4lADOEsYCAOARghrKKh9BXAAIgAAIgADN0aIyOk4OA+ATkbIY+foMHDVYODlD7YwMB5xPQDA7Q+CvJxn4nNf5cuprbDJXkUrjvrSGFz2CsPwIREAABEAABEJAIAZghG7gHxIVrZySE12ZENGRJcwuvzdDOSAiIC2erbXbfb5AyQBWsCgxXB0VIc1MFhgeogv0GKc3WnybK5qKI1hDZmuGgwUpjnE0DbuyAgBMJwAzRZwgCIAACICArAjBDg4H4+AYVjpGmDZqtVVDhGC8fiwOm/JVaadqg2Vr5K7XUA7vtyOaiiNsQeZohtBBWLD0CMENZxUMS+cEe1QABEAABJxKAGRIVcS0tJK7IyaG3GTl0LS0krmhWDmVzUURuiAzN0MdvsPSswIldVShaIgRghjBDEAABEAABWRGAGXp5+wbEhZvtl5N+oumwUr9BSrP9ctJPFAwrlc1FEb8hMjRDdBhCjCVJAGYoq3jIiT/So2gQAAEQkAgBmKGXt692RoL0JdBsDbUzEgTdhgGqYOlLoNkaBqiC2bbI5qKI3xAZmiGmnJGkF0mk486J1YAZwgxBAARAAARkRQBm6OXtK+UpZ8wKIU0Mr81gbcrL21fKU86YFUKaqArsNq2ObC6K+A2RoRla8SKVJjgoOCI4NDIkbCg2JxIIDo0MCo5QaYKtXCzZfQQzlFU8JJEf7FENEAABEHAiAZihl7cvFS1X3BGYIRUtV9xh2+KK14LW2bkNcRszVGoCteFOdCEUbZZAoDacW8jBuCSDrHdkaIbhQ4YPj0mKTciITxqPDQRAAARAwHEEYhMyhsckhQ8Z7kQPNC0aZggzlI5DOleoqNfZv+PchriLGUILzYqZFBI5OYQZutp6hqER0fFJ4+MSM4ZGx4aER2lDI7GBAAiAAAg4jkBIeNTQ6Ni4RO6XuNCIaFNJc0oKzBBmCDO0XwUFZ4AZerAI7N831QyVJlgKCoQ6WCLgHsNK5dNnODRqdFJqTnjkCKcEIigUBEAABNyZQHjkiKTUnKFRo6UAAWbYdzOsSQgY4XPTLxTcy9PHJyshrCGrmyHMHTpAofCZxiWGlQ71HnwTn1Xxi8GDBxWmd8spOLA3bwVRd180L3/JJp1uZUUEc2zspLkr1t2mI6+WDU1zc2OZT/mcIwprN+h0uk21+eyBdu2zbekDn9CpQZ6ehLHiJo1GOSez+0kyQ/KDPG/mM9zs45ufEs5w1oxQKJRDQ5iU7sd2v7I9Zet7Q+rT1DHGL9UvPDxHDA+u6140/60jXzrFzQO9043fupoE/6EDDekeEnixCOzfNzXDoOAIS06CdCkQCAqOML1qskuRiRlyQUnKRG3IECkEJagDCIAACLghAW3IkKSUiVL4eQ5m2FczTFOGKBSeKmVlZkR9ZnCO6iaFYuDEtG46Qc2wevhAheKmsKGB89JC5yUFDPVQKAYOmtU94u9JNrqdmcksiLqF/hZkg6qZmOGw0hUtOl1L06KCCTmZBdUrN3Fv5iSzp4otamjhvVEyZjgz+CaFwmNUTPCCtNA5sX4ahUIRoKrpghyS6aNQKG6Jjw1ekKxJ5jTdMzOFUpWIGQbFcd8N3/zk0AVpwYXBnOcOGcn84sB/637hN2hGSuiClMB02grybRzsz6e7xWhSTDkjBf2zUofg0EjZeaDpJKgyMcPE5OwwyQxkcsOIEE0GARAAAaVaGxYRnZic7XQUMMM+muG8oZ4KhVce7ZXKVA1RKDTGTqfa9NAFaSETAxR8n6E2aYBCoVLVGi2lfozfzYpfxPXPUhn2mOGwpAmZE3ImLVij69ZnGDu3Sae7bUXJCKMKTl/WotOtnGN8GxSRXNHUomtZuWq9ZPoMef5+4cHUmaujbmFdvT7WR6G4iWHOO5hGU58ZtiAtdMGYQX4S6DOsHemlUHgkJ1NfDc3yUygGKxcYvzmVQwYoFF45tMPZ+K2bFX6zQuFt/Da6hRlacRJ8JBECMEN/JZVJjX+Ahlt8xZDCvaV8nBsHDI0aPSouxbl1QOkgAAIgAAJKtXZUXIrTx5TCDB1hhiHpXoZBjbwZBsYPuDkiihmpmOKvVChGjNKM8FAofPzn8nF/fRInJ5qhwfVGDaCSY3XHHjPMq9tkGDDa3QwTM3MyM9OG0f5G3gyXlxrNcNyiZp2upWHmsIomgxmOq1rZotNtWJLHHzKMz7+prrDrDPRUVnfYtlA7sm0nJSBiwM3xY5jMnAoOSDf2ChYGKRQDuvXT8jblW8hlM7yUQ0NqYn08GcOfFe6hUHimd6kac35rl6mPDZkX5eUzYNB05szTNAqFl+Eb0pAVUcf94hDWNb6UN8OQ4aHTQ2/2CQiYZzgQZojlKyRBgJqPfHfk0GcYG58eNgSPF2L5DRAAARBwPoGwISNi49OdK8kwwz6aYQNvd54a9YLMiIbM0HzNTayHEJejo0kFasenc0NPa2N9jR6iTRrI9Q5VM1YgOMrCW1ZCvLx9+2U0KXuSURMr6jfodJuWFZEuRPJ44YYleSMi1NQMgyIS5zS1cJpYqB4xs/42nW5d7QSrEsgWQffZttjoYJayhU/T/EJxk99MA09+KKlGzVp3fYwPM6CUjiYNLwwyDDQlrh4yPNQCeUtFRzRk9VNDMjUjblLcHBxktgKGMcwe3nndxzA3ZMEMJeFFEum4c2I15CuEXT2BgwM03BId3EYT1Xx/IJ/SlSjdPsOk1Bx1UJhzAxGUDgIgAAIgoFRr1UFhSak5zkUBM+yrGWZFVMf6+hm7mxSKm6JGhrLi0ZAVYdYMaxIGaRQKz+Agkpl/Os4zSsU9XiZ4TNGsD5gkshLSz2bIiZ/htWlZRTJnerF8N6Px2ULGDNVBsSWNnBs2c4a4ftFEYwdjb/yQbYsV7+r5o+qR3p4KBSN1fC+uRtONXrdORWqGEQ1Z/EBTH++hfXT1/jLD0DxzD69yTeB/lSBfPe8AZaXg14R0mCHMUBIEYIaMLkrXDFPSJzs3CkHpIAACIAAClIDT/ybDDPtohrWxvt4KxeCggBnJoQuSAycEeSgUN8fEstNdmjHDRTHcUZ4qFdM3yHuIYKIRQaxv7S1rU/1shrzUDUsqnLuKm49meYnx8cKKTEMvXzczjFCPKF/Oz0rTPN+YoTdaqA6KYNvSs/5107wuROFzht7yC4VCEx7ETj/Dje8102dIh5uyZhhRn+DHz3HqlUef6Os6vy0Vs7shmcHp3K8OnknGqUfNNDYzdMaQgTcrFGFMr2Z9unrUAJihJLzIiZ11EikaZggzpLEOdkAABEAABGwhADNkY2hn7dsS6wvyhOcFKBR+AYzg8ZOFBHRNM2PaZ0g6sgYHaxaxmpHOTV2jUCj8wrWCLkczMsAeaNgXQKMjM3uxI5ibNL6wbG512dS0rjOMqG7mRopOnbPK2Ico+P8m/glD/vlDHXkEsZdOSMpi2yIAbuPbsNJwT24a2CjhYg8WnzM0YOxmhjXcTDAKhcIjKcnGcgXZ7GtIelCSj0LhMTArudsPDQ1ZYbNj1flJ7OjW4DQvhSLI0Bdan6bip72FGcIMJUEAZggztCUMQh4QAAEQAAFKAGbIxtDO2heE9ba85Z9b6+aBvCv6+BtnAeFOwowmJR1ZpsYSOnEwt4JFHjfTKTtzpi11IHkE0Lp0znY3E5hhUNVKnU7XWNE1f8zE2nU63bpFOaPG5WROYLb5a3S6TfUlZLqavEXrdLrbllVzs9q0LC81Wf/QhvqwbbGdAM0ZNjXoZoXCIy42zNSxa0d6dyfMd9V2TRjLmCG/AoRfuCqd0zP6pCItxZadvjeEdPopBvqZW/GS/9Z1+z0iMNb4IGJdsn+QQuE5OGBOJsxQEl4kkY47J1YDZggzpLEOdkAABEAABGwhADNkY2hn7dsS6wvzzOVdLmxoIJmBZsbQgWQumZox/jFB/jP4UYhGMwybEezBPYg4PLg6LZRbI4HfajIj+JMMSOOmvuSDfg/fQroMhpnuQWEd+E5FATS7zHBcRe2KptpZk/knBlvW1VVMousZ6tZUjzN5dJAZTZpXu4nvVoxVBxXWbjBd/9DkWHOiyLbFbGOtJAZP5Bf3S4wNoYQXpIXVZgXnhvrGjwyuNxAemNzDeob8hfDy5x7eS/HnnggN0tDlRmzrxe37c4b1ycowD8UvfAYVpnR9Txakh9enB6YF+aaNCeMXxlQMDlLPSaPrGXIdmzVj/LhfGFRKLj0NZiiqGRYsITP8tiwt7l5u2oLVpG+9aZ4YesatNaPTiVNWWPeWWnjrkmaYMLOitmFhbUNF4Vgb6i+HuUmdHoXYEiohDwiAAAi4CQGn/03Gc4Z9fM6wISt8bsygEK+bfsGPO/T0GhgfE1KXFVEaerNCcXMiv1ah0Qy5/ijT1/BoTjyUQ4zLVJDFyjUa5uk4KyJEP2Jtyt7nDEu4dQtbGsrVI3JK6tZsut0wZrRlQ9PcyUlmnNNohsOmcsFx1zIVfB9jy6oqftIam5zQ7tGkzKQsDOoB6QmqCIXiFwEqbknAzOAcjefN/Mc3+/jkdBuraegzrOSEn7g6R5g3sZtGxDJrzdtk7OxFoVeq5x3+C8NUn+x6+c9NGOStUHiHBvHfOl+NhyHPzQO90xO4DlJucQvm5SGBF4vA/n3TGF0M17IgPIKijWao062oHMkcklLNrRPKvcSxNZhhADs7aB/3RxbWLuTNcOGCWTE9n1CTWrpk/qK6ogkuPDep06MQN4n20EwQAAEQsIWA0/8mwwz7bIY9B/o2dzHZcypB1G3G38z1zkkzG9sWe5g4/VjnNgR9hjb1aAkEr89vu8zw9hWzR9Oic2vWG8QQZmgq9lJNSc9f0LCwtraK/29+co96CTN0/vJftkRayAMCIAACrkIAZsjG0M7ad7pI2FMBATRpKp+NtWLbYg8Tpx/r3IbADKmeibHTZYY63erqTINh5t5KxZCY4cjs2XVrNrWQjvhN6xvnTeM7GOdxszptaqpbST9aU1c2ISRsOve8rm5TXYGhCZX8WNFVc7m35k+FPsOeu/h6Mr3kWVW1DQsrC5P4nsOq6em8wY6dPL9hQU1Nbrzh8NSyJdWLlxRNmFS0qH7+Iq7PcP6iunkLF+aMUfsPS59YWj1nXk3FvMWVc+dOyR0XbKgVVq2AQ4IACIAACPRMAGbIxtDO2ne6SNhTAQE0Gx1MmtnYttjDxOnHOrchMEMxhJD2MRIz3NS8hluyZc3iFH5AKUlc3cwPKOVGk5Ys3cxN27u+Yd6Mmbeu5rKur8kdGhLGm6FOp7t906raBTUrySOLa+alWTFDC6eCGdpthnEz6hbWNpRPGe1PFHHhrDjunJbMMC42Oy+/gjPDsumT07KzRwxLz5tbO7e6prx4Wsr4aVMrFs2pWliSl6TkTgIz7DkecpVf9FFPEAABEHAcAZghG0M7a9/pImFPBQTQpKl8NtaKbYs9AA9YKAAAIABJREFUTJx+rHMbAjN0hhkuqeSHjxLf4+Xt9hWz5xlnhSmqX7+5pWXlAuKNKQs4Y1y/OJeaYePsMbxqZs5r5sagrl4w12KfoaVTwQztNcPMgoUNC2sX5YxW+weQ/bqCVCtmyPke+5xhUM7cquraipKJQbwH+kdkT6lcOHtuWXI4zBBaCAIgAAIgYBMBmCEbQztr3+kiYU8FBNBsdDBpZmPbYg8Tpx/r3IbADJ1ihtMn1XIDSDctmR4yawWndysqRwpsbXRmZk5udk5uNm+GXE5Dn2FTpXHqGkMP5JJai2ZIcpqeSlCW8YS0b1P8Hak+TGhhTGnG7Pm1DQvnzxzJGybpP5xfOsFyn6HQDMeW1FZV1xZlBZMeQn9lcErxwtlz501OgRnaFA857jd4nBkEQAAEXIUAzJCNoZ21H16b4XSX6FsFwmszBNBUgeHStL4ea6UKDGfbIpuLIn5DYIbOMcOQtMXcMhWbl9VxYtiydMbQEGpro6fX8KNNjZPScP/voxlaOhUtSwJOSCzUtcwwqZQbSircFs1Osjia1EYzXJCfDjOEGYIACIAACNhEAGbIyoCz9rUz+EUmRJlKtG8GaOko7YwEAbQAVXCPDibNDAGqYLYtsrko4jcEZugkMwwzjAXltG/zsqKwLjMkw0dbVs7L5icvJW+tmmEZGVa6ai4/ynT07EbuMUXdqrlDLZ4KZmjPaNLAnMJF3KykxVPy03PIVljMzVBaVzg+In12w4Ka+unZwZzrBmZOXUBmoBGaIUaTuspP8qgnCIAACEiWAMyQlQFn7QfEhVtSL4mnB8R162fz8vb1G6SUpvj1WCu/QUr2CyCbiyJ+Q2CGzjLDoYbho4b+QMYMydqGG5bNnpJbVLlsPTcDjU63pn5GLpmBxnQ06XTDcogt65cuuLXRcABvhpZO1WB8phF9hr1XROV4fihpVfFQ5tiY6dzahvNLc0ImzVtQU79g4fz8ycVT595avbjLDBNn1M5fVFc1awY/A03m1HnCGWhKp6ZiBhrJRmCoGAiAAAhIjQDMkJUBJ+4HFY6RuASaVi+ocIxZYv5KbY8aJrUM/kqtaVtkc1FEbgjM0GlmGDK6spFbl4LMQ9NlhiFhE0qXrNlElqxo2bRq3uJGXg5XzbVoht0O2bSmsZmbtpRftcLCqZphhhYeIGRkz8IA12AylJSblZTNPLq4nBtfWjkucGR8YdXcxfULaurnVVdNm1XDr1rB9RkOHjOtZJ7JqhXzyaoV84vysGqFTaOnpBaZoT4gAAIg4CwCMENTH3BOio+vyOG7qen1KoXTQh9fS6xcSw7NaiHXNNlcFHEbAjMU1QzFn9nFVUrsZlmscclnXzM4QOOvJBvrpdwaFf5KNbcZGotVK6CIIAACIAACPROAGVpyG6ekB8SFa2ckiD9liO1OGF6boZ2RYDqI1BSX3yBlgCpYyhPSqALDA1TBgkGkpg2RzUURrSEwQ5ihJAgYpYjakfx2YIY9RznO+t0d5YIACICAKxKAGZqaAFJAAATsIQAzlIQXuUrPnuPqCTNEn6ErhmWoMwiAAAg4kQDM0J4IGMeCAAiYEoAZwgwlQQBmCDN0YnSFokEABEDAFQnADE3jWqSAAAjYQwBmKAkvclxfnKucGWYIM3TFsAx1BgEQAAEnEoAZ2hMB41gQAAFTAjBDmKEkCMAMYYZOjK5QNAiAAAi4IgGYoWlcixQQAAF7CMAMJeFFrtKz57h6wgxhhq4YlqHOIAACIOBEAjBDeyJgHAsCIGBKAGYIM5QEAZghzNCJ0RWKBgEQAAFXJAAzNI1rkQICIGAPAbcww+DQSMd1duHM9hMIDo2EGcIMXTEsQ51BAARAwIkEYIb2RMA4FgRAwJSAW5hhUHCE/faCMziOQFBwBMwQZujE6ApFO4vA9h0729pu6I2v/QcO9qEm1QsXHz7827Nnz/3000+dnZ16vb61re3KlSunTn3+7HP7JucX9OGc9JAnnnzqxo2uGur1+mPHjtNPsQMCziUAMzSNa5ECAiBgDwG3MEOVJthxVoMz209ApQmGGcIMnRtgoXSnELDTDMtnV548+RGxQaNdCv/f3t5+4t0/FJeU9aGBa9auv3z5iuCMMMM+kMQhDiIAM7QnAsaxIAACpgTcwgz9A9SB2nD7BQZncASBQG24G2ih2j9AMzhA468km5ppssafS1fDDB0UOeG0UiZgjxk+uPPhq1evCrTN0tuLFy+tWbu+Vygyxmd//MknpieEGfYKIzI7lADM0DSuRQoIgIA9BNzFDP2VGsihI7zOznNyWqjUMJrEKpPM9mGGWodGSDi5KxLosxnufOjh1tZWgbZ1dnZeu3bt6tWr7e3tgo/0ev3Zs+fmVFTZTunIkaNmeyNhhrYzRE5HE4AZ2hMB41gQAAFTAm5jhgGcZqg0wUHBEZiQxk6ds//w4NDIoOAI9xhESv0WZggzBAEhgQMHX2Dty8bnDEtKy8+dO8+6308//fTqr16jjxRGREavXbfh408+YU/eq0cEzZonKRFm6GjbwfltJwAzNI1rkQICIGAPARma4WBeAt2jG4paB3akTwBmKLQC26Mf5JQlgXXrN37//fes4Nlohv/x6q9Y5fvhhx9WrGw2RRQRGX348G9//vlnWsTFi5cW19SZ5hSk3FrXcPHiJXrUmTP/unbtGn0LMxTgwlsnEoAZ2hMB41gQAAFTAjI0w0GDldBCEJAeAZghzNCtCZh29FHXoju2mGFqWuZXX31FD2lru7F9x05LoXnG+OzTp0/bmJmcRPB44cWLl+7fuo19oBFmaIk20sUnADM0jWuRAgIgYA8BGZqhj99g6VmB9Hu0UENHE4AZurUXiR8ySq3E/jLDJfXLrlzpmi/0q6++Sk3LtNLYX732OjVDvV7fo3y+9vobtEOytbV150MPNyxrhBlaIYyPnEgAZmhPBIxjQQAETAnI0Ay9vH3RbQg3lh4BmCHM0K0J9JcZrt94208//URlr8cevP0HDtLMPZoh+3hhZ2fn0aPHIiKjrZthxvjszz47xRbxwQcfRkRGm7UFQeaOjo6XXnrZbE4kgoAtBGCGpnEtUkAABOwhIE8zhBxKz4sc3SMn/fPDDN3ai2wJ8uSdx9QMOzo62L64HrWN8MkYn72kflnDskaylZSWW+f21ltvU22zPvR0TkXV+fNdE9ucPn06Y3y2Uq21boZKtVaw7GFHR8eePc+ardVbb79DOyT1ev2f/vyeJYc0ezgSQUBAAGZoTwSMY0EABEwJyNYMvbx9ffwGDxqsxIQ0sERpEIAZwgxBQEigVx16gpjYlrdTCorOnPkXNUMrM9AIHi+8fPkKXf+wRzNUqrUHDr7Q0dFBC7p06bLppDgPbNvBrrTR21U0bGkv8rgbAZihaVyLFBAAAXsIyNkM7eGCY0Ggvwn4eXn7efv4cpu3L3Nyku7n7UM2X8MOl5lsg7x9ujbnxj1Oj0Kc23yU3u8EHGqGEZHRR48eY/vo/vDHP1lqwksvvUzVrqOj48DBF2hOW8wwIjL6T39+j5qhXq//+JNPSJcjOc+ciqqzZ8/RDOQJRloEdkCgbwSc/jd5dHy6YGNvWPw+fyPruqMZ73E+3L2P3ww3RG9v/v7o4ytIZ26X7K0T+yAAAg4hADN0CFb8IQMBEwIwQ2F/Ud8iIRwlJwIOMsOIyOiNm1q++sc/WC200kcn6M07fvz37CBPW8xQqdYKBqOyzxBGREYfP/57qoWdnZ1vvf2OnK4j2uIsAjBDk1stgjoQAAG7CMAM7cKHP0kgYDMBmCHMEASEBPrRDN96+52rxld7ezvVML1e39ra+v77fymfXWk2fBf05pkKpI1mqFRr2Qls9Hr9lStX1q7boFRr9+x5lnZI6vX6zz47xXYnmq0VEkHAFgIwQ5tvwQj2QAAEbCIAM7QJE/70gIDdBGCGQiuwJe5BHnkT6EczPHbsOGuDdL+jo+PrM2fuvOsesyQjIqM/+OBDmvn69et33X2vIKftZqhUa48cOcp2VJ4+fXr9xtsuXbpMi2CfYBQUhLcg0FsCMEO7b80IAkEABLoRgBl2w4E/MSDgMAIwQ5ghCAgJiGCGRMk6OztPvPsH0546weOFZteQ6JUZZozPPn36NPXAzs5Odo0NwROMvdUA5AcBAQGYocNu2QgOQcBNCcAM3fTC44+p6ARghkIrEIQ4eOuGBEQzQ71eT9cnpJzXrttw5coVanGCOWNotl6ZoekiFvT8er3eylKHtDjsgIDtBGCGot/KETSCgMwJwAxlfoHxR1MyBGCGMEMQEBLoRzNkg+nJ+QWbW27/83vvsatE6PV6drCo4PHCH374oXrhYvYkdL+3ZqhUa9muSGqG58+fn1NRRU+LHRCwnwDMUDK3eASTICATAjBDmVxI/HGUPAGYodAK7I+KcAZXJ+AgM6RYGpYuZxev1+v1ZOEKwYIW1teQ6IMZpqZlfvLpp9QJ9Xp9W9uNRx59nFYMOyDQLwRghpK/9SPIBAEXIwAzdLELhj+CLksAZggzBAEhAUeboVKtveue+9iew6/PnJmcXyCQPVbherV/9erVhmWNpiH+mrXrL1/uGqdqdiyr6VFIAYHeEoAZumxIgOATBCRKAGYo0QuDP3ayIwAzFFpBb2Mg5JcfgT6Y4UMPPXLo0Ctke+aZX5pOKiOglJqW+dVXX1Hfu3jx0uKaOoeaYcb47I8/+YSWSHc6Ojr27HlWUD28BQF7CMAMZRcqICgFAScTgBk6+QLgj5rbEIAZwgxBQEigD2Z46tTn1LUsddkJQm3TQxxqhm+9/Q67cAWtrV6vx5IVgkuDt3YSgBm6TQiBYBUERCIAMxQJNP54uT0BmKHQCuwMiXC4DAj0wQzZdQvb29sff2KXdQ5F00vOnj1H9ezKlStL6pc5zgwFi92fPXvuvffeZ0XR0gyo1luBT0HALAGYoduHFghiQaCfCcAM+xko/kiBgAUCMEOYIQgICfTBDPfsefbnn3+mpnf69GnrA0ofeuiRtrYbND95ztBskG0pUaCRx44dt5RTMN8pmQq1pLT8m2/O0gp0dna+9fY7ls6AdBDoFQGYoYUbLkI7EACBPhKAGfYRHP4YgUAvCcAMhVbQqwAImWVJwLoZTiko+u1v3/r6zJkPPzy55fY7CIHqhYsvXLjIitb//M9fLcnhipXNP/zwA82s1+vf+c/f9ZakjWYYERn9pz+/R8vq7Ox87fU3SFkbN7Ww691bnwq1t9VDfncmADPs5Y0YIR8IgEAPBGCGPQDCHx0Q6CcCMEOYIQgICVgxw9S0zL99/DEVrdbW1ge27SAOYPog378vXDj4wouT8wuoJMypqDp8+LfsrKR6vf7SpcsrVjbTPDbu2GiGBw6+0NHRQSssGDUqWOHw7NlzWNvQRv7IZoUAzLCfbtAIBUEABAwEYIb4KoCAOARghkIrsBLu4CM3IWDFDO+48+7r169T0dLr9SdPfkSwWJr8k6xlf/XqVcGB5CTt7e0vvnioD2BtMUPBMhWmM82Y1vmDDz6MiIzuQ31wCAhQAjBDmCEIgED/EoAZimMFKAUEYIYwQxAQErBihvdv3dba1saa4SeffkoD4uKSss8+O8XO7MLmNN1vbW3du28/PbxXOz2aYcb47NOnT9NCLa1OsWJl86VLl9lsL730cq9qgswgICAAM+zfmBhnAwEQgBnCWEBAHAIwQ6EVCEIcvHVDAlbMsKS0/Ny586xHHTj4AosoLj7p0Mv/cfXqVZrH7E5nZ+dnn51auWo1e2yv9ns0wyNHjrKOevz47y11Bj7x5FM3bnRNh2PatdiriiEzCMAMEceDAAj0LwGYoThWgFJAAGYIMwQBIQErZqhUa9eu23D+/PnOzs7W1ta33n7HrG7FxSfdcefdf/zTn7///vtr164RQ2tvb79y5coXX3x56OX/sP9xPutmaLpMhZUSIyKjjx//PWuwX3311ZSCIhgOCPSNAMywf2NinA0EQABmCGMBAXEIwAyFVtC3SAhHgQAIgAAIEAIwQ8TxIAAC/UsAZiiOFaAUEIAZwgxBAARAAAT6kwDMsH9jYpwNBEAAZghjAQFxCMAM+zMeQo8BCIAACIAAzBBxPAiAQP8SgBmKYwUoBQRghjBDEAABEACB/iQAM+zfmBhnAwEQgBnCWEBAHAIww/6Mh9BXAAIgAAIgADNEHA8CINC/BGCG4lgBSgEBmCHMEARAAARAoD8JwAz7NybG2UAABGCGMjEWrTYE32ZpE4AZ9mc8hL4CEAABEAABmKG07/syiTAB2a0IwAxd+N/tiJExs2aVNzU36/hXDf+CIkr1HzDMEGYIAiAAAiDQnwRghlK947twbAmkbk4AZuiq/3rz8vJ1Ol3quDSqglQU8/LyaaKbf7+l1HyYYX/GQ+grAAEQAAEQgBlK6S7vqvEkGIIASwBm6JL/kq10D2q1ITU1NXl5+exlxr4ECMAMYYYgAAIgAAL9SQBmKIGbu0uGkeAGApYIyNEMZ60goyvJf1s2Ni2eNsZS+728Sxpua2mpLzGbYeScJv4kTbNHi/gvv2Rpy20tDSUWSxwxMqapudlshWliU3Nz6rg0+hY7fSUwSBk7KXdGVXFZVfHMsqzk4T7ezHUZNHx0bllRGffptIJJUYGDDKUY0ucWl80tmJpjTPfzGjQ8ZtLMaTMrikrmTMnPHhY4mM/v5zUoelT29PyisimFpbmTxg/V+Hv7+Hl7+3kHjk6YOC13SnHulKLM9LHaQYO8fQY59zdyp0chzm0+SgcBEAABSRFw+t/k0fHpgs3bh7tVMZuf4Y7mw+/4+HJv+c3Lm/vBlN6dvb19vblPfQXpNAN2QAAERCAgWzNsqkxNTk1Nzq1qatHptiydEcIE9Gxw713WqNPpVpSZYz16ruEJPl1T5WhzGSyd07503mwbZ5k/iVYbotPpRoyMYeszp6JiTkUFm0LsEWNKWSZ92R+VX1RWVTQ1e2jY8FGTZheXVeWmhBvPEx5XUFVcNjsjcXjgqOyckqrikvyhvr5e3uFxBXOLy8ozEoYHjpowsbhyenEenx4RO6WyaOas9ITowJFZE4rmTCvKjeTzx0wuL5hekjomKnBEeubUmflTJg7x9fP2jUnKnzE5b3Js9BDt6IlZ+dNzspJUMEN1f/7cLqkID5UBARAAgd4SgBka78jmQyZ8CgIg0FsCsjVDalbZizfqdBsXZ/t6eY8pXNy0sYXrBWxZv2Lu5GFe/GfGDkaSh/njMm7BWp1O19zE/XftgjTeJ/kj1jat2EiOWntrWemta1u2cO82Ni/I5v0zdtriJvL5lpaNy+dkhviSgjYuziGXx1ilHK5qa1c0rudPtqWlaX7OVC7J+Nq4OLubxHJ1M9thGBERGRERKbj2Tc3NAoEUZMDbHgmMyq8qnlkwXEm+FcOSiqqKiyeFkIsybNLUsqq8jGHkJH5xBUVlVdmJKq9hk6aUzc1Lp+lTC0srsxJUXkNz8mZWTk4fxv0m6u07KDZ/6ozZmWNUXpHZudPLc1KHkt9QB8VMmjytNC1W7Tc6d3LB9JRRKvLLa1DSlJy8gtgI9BnCDEEABEAABAwEYIY93seRAQRAoFcE5G6GwyYvXq/TtSwt9PbNXrhRp2tpLM8YOaqAS9Q1zR43OiG1ihswuqoqOTVpZPd+xTReDBtnjeF7DtdWj+P0wOCS6+tmZE2eu4q3TN3GuuLJM+o4o1s7P9Vgm+uXluZmTVnAdVi2LC8baXBBc2ao021cPic3q2QxJ6AtDbOSkiu5GnF9nkmjtSZmmJeXb/oM4YiRMabdg7NmlWNAaa/+MZhmTptZVTwlzc94FcKzZheXzYwL4r4JypSZxWWzU6OJNPp6KdNyyqqKssfw6eUpXenjJpZWTpsQp0wuKZo5KyWaHy3j7eulTJ0wY/bU8bHKpKKC6TPHRhlG13grx2ZMK52cFhMxbvrkgskjlH6GMTmRmRPyitLHBPf2F+X+ze/0KKR/m4OzgQAIgIBLE3D632TBUNLR8enMOFIyphSjSY1xgjGWMA02kAIC0iEgWzM09rvpdFs2NpSM9vLmO+iaq0aSf5lT6lo4+xrtZXE0KZ9ft6I0xHckr2ott042mmFL3RT+3zmfpaWugLucIfwjicvL+BPT7sfQUu6Zx6a5M0nHpTkzpCNdyZELs7ysjiY1a4aWEmfNKpfOV80Va5JVVlWcm0Rrrs0oKy4rS4rgrj67z2dIIplJeiKfh6SPL60smpSoTSstmlmaGGE0Q+/EjBmzp01MCEqdUTC9OD7CaIY+Y8ZNK80bP2ZoZsnkgonDuIcx+Jtr6LiMvKKMxCHODWKcHoU4t/koHQRAAAQkRcDpf5NhhjRCwA4IyIOAbM3Q8JxhVkE117PX0jCNf56wyxe5PX54p4XnDCdz6qhrrkpLTU3O5nsPb6vLNfQZGsWvW0+g4Ty8Cq4oNf4yZMgyz7IZ0iGj9GxWzTB1XJqp71kyQ9PeRXl8a0VrRUaZaZ9hWVIYZ4aBaWWmfYbFkxL4dGGfYVFOfGBqqWmf4bTsuMDkGaZ9hnmZsZEZJaZ9hhkJEc4NSpwehTi3+SgdBEAABCRFwOl/k2GGogUkKAgExCEgWzOkzxkan/FbXHcbZ3qGPsNhY5JTU2OH+VrqM+Q78Lp7pI7rKjToG/fUouDpQYMZmu8znMGZoaF30Tt0xlJeS7P5PsdemuGIkTE1NTWCL4dZM6ypqcFzhgJQvX3LzTEzk8wrw00tEz+Nf0u0n5+cJneccUIa8jYl1IvbmZubStPzCksrJyWHeI3MnzazclJqOHnO0Gtk7tQZsyeODfEakTtlenl2crhhurbhEydPKx2fEBIQP2VywfSx0YNJn6EqPi8nb1pCFJ4zxPNFIAACIAACBgIww97e1pEfBEDAOgHZmmH3PkNdQ/Eo3tlamqomJ6eSRwTJo4O80a1dnGsQRV75QkoatnSb0dSwfMXSEn6GGGt9huafM/SezHnplrWLi7Nyy8n0NRsXWzJDvttx7cLJyaljIo19j+xVbGpuFjxVaGqGZieqYU+CfVsI+MVy88qwc5PmpQ3zikzLKpiZOiomqVAwN2lBFDdXzbDEQsHcpFP59KiEAsHcpPnD+Pzx+YK5SXMjA/y8A0YnC+YmzU4OxNykmJsUBEAABEDASABmaMutHHlAAARsJyBbM+zq72vZ2Fg1mVOskNQZ9RvJPKK6lo0NxWSRw9GF/OQxOp2OdjNqi7lOPfJgoQGl0RVvXUJnOjXfZ+jl7WtmblJv35FTFjfdxldqy8bGFWv56VIt9BmOLjLWqGtUKntF8/LyBXKo1YYIugcxMSlLzI79QeqE/LwSsp7h7OyM0YO9ff0SiorLqqZmDvdSj06aMpusZ1g0LX94qHE9Q/XoxPzyojJuPcPCgrzhISTdz0s1OjFvFlnPsGBKbnSIcT1DVUz8pBKynmFe7sRhwcb1DIMTxuYUkfUMs8aPC1NxDxw6dyCT06MQ5zYfpYMACICApAg4/W8yRpPaEWDwXRHmOgBwThBwIgE5mqEb/DObNau8pqZG0HNIvkZabUgN/3LitwpFmyPALelLlvH17vYVJel0BhrjKsBcZrKxSwbDDDGKDARAAARAwEAAZmjubgvjAgEQ6DsBmGHf2Tn37xHpOczLy6dLVqSOS0sdl6bT6TDxjHMvjYXSYYYI5kAABEAABPqTAMzQwg3XVUM7NAcEnE4AZujCfz7IbDRNzc1Nzc3c4hjNzbNmlQuGlTr9G4YKGAnADPszHpLUgC5UBgRAAAScQgBmaLzDunAshyaAgKQIwAzx1wQExCEAM4QZggAIgAAI9CcBmKGkQmpUBgRkQABmKI4VoBQQgBn2ZzzklJ/nUSgIgAAISIoAzFAGgTiaAAKSIgAzhLGAgDgE5GCGyWm5Kk2wpAIjVAYEQAAE3JOAShOcnJbr3LZjblJJxfSoDAjYTwBmKI4VoBQQkIMZxo8dHxw21LmBCEoHARAAARBQqrXBYUPjx453LgqYof2BOM4AApIiADOEsYCAOATkYIbDRyVGj4x3biCC0kEABEAABJRqbfTI+OGjEp2LAmYoqZgelQEB+wnADMWxApQCAnIwQ21oZFJqjjooxLmxCEoHARAAATcnoA4KSUrN0YZGOpcDzND+QBxnAAFJEYAZwlhAQBwCcjBDpVo7fFTiqNhk58YiKB0EQAAE3JzAqNhkp3cYKtVamKGkYnpUBgTsJyBnM/TxGzxosHJwgNofGwg4n4BmcIDGX0k29jup8efS1dxmqCSXwn1vDSl8BmP9pRAMjR6TOjI2WYmpaNSYbRUEQAAERCegCR4Zmzx6TKokbgfx6QI59PYZ1H3z8/bx8/bm/+vj5+3jy73lNy9v7gdTGsh6e/vyn/oK0mkG7IAACIhAQLZmOGiw0hhn04AbOyDgRALyMUOlWjsiZmxiclZkVIwmKFQK0QnqAAIgAAKyJ6AJCo2MiklMzhoRM1YijRVo4ej49O5aOMjggTBDb3FGJ6EUELCXgDzNEFoIK5YeAVmZoVKtDY2IjolLTU7LTUzOik8ajw0EQAAEQMBxBBKTs5LTcmPiUkMjoiWihRhNKkIHDooAAZEJyNAMffwGS88KnNhVhaIlQkBuZkhDk6DgCG1oJDYQAAEQAAHHEQgKjqB/daWzgz5DkaN2FAcCjiYgQzNEhyHEWJIEZGuG0olRUBMQAAEQAAExCcAMHR2m4/wgIDIBGZohppyRpBdJpOPOidWAGYo+TwNmiAEBEAABEHAkAZihyFE7igMBRxOQoRnCi0BAkgRghjBDEAABEAABWRGAGTo6TMf5QUBkAjBDJ3YioWi3IgAzlFU8JOZ4LZQFAiAAAtIkADMUOWpHcSDgaAIwQ7eSEzRWFALKQKVaq9KEqAMNm0oTotKEqjShNMWww6VzG/dWE6zWBKu4jU9Uc/tKVZC/MpBb8FBK6xlKM0BjmfXYAAAgAElEQVRBrUAABEAABEQmADN0dJiO84OAyARghqKogjGsp/E9duRKQKnWaoLCmC1UExSqDgxVB4apA7unc4kkncujMbwN4RND1V1iyS0YSHGJfNdHcSAAAiAAAiBgiQDMUOSoHcWBgKMJwAxhhiDQbwRMtDCMUz67zVAdGKpUGeTQ0u0Z6SAAAiAAAiAgMgGYoaPDdJwfBEQmADPsNyugvTrYcU8CAapApquQdg/2jxmqNSH8sFK1yHd9FAcCIAACIAAClgjADEWO2lEcCDiaAMwQZggC/UNApQl2qBmSMaWWbs9IBwEQAAEQAAGRCcAMHR2m4/wgIDIBmGH/WIF79pKh1SwBdWCoQ81QpQnxD0CfISY4BQEQAAEQkAoBmKHIUTuKAwFHE4AZwgxBoH8ImNPCfnvOkJuQBmboyPWaRf6hHcWBAAiAgAwIwAwdHabj/CAgMgGYYf9YAdt3hH33JAAzlEGUgyaAAAiAAAjYTgBmKHLUjuJAwNEEYIYwQxDoHwIwQ9uDCeQEARAAARCQAQGYoaPDdJwfBEQmADM0YwWzphRubFqtY17Ni+sK0ie4Z1cYWm0jAZihDKIcNAEEQAAEQMB2AjBDkaN2FAcCjiYAM+xmhtERw5oW1zFK2G23aXFdVMQwGz0B2dyNAMzQ9mACOUEABEAABGRAAGbo6DAd5wcBkQnADLuZ4abuXYXdvJB/s6lpdcQQyGE3aO5mgJbaa4MZVizfvHllVSqfM1QTGKoOTJ5Zt3bd2mVzskfyb0PVgSFqLj2Um3KG22feYgYazEADAiAAAiAgJQIwQ5GjdhQHAo4mADPskpx5eYVUBTcs7NZzuHlV1+DSeXmFltyASY+ZWLFy4+38+W7ftKJi0vCAroL8A9QR6SU1zS2kuJbmW4vTu2zTykfM+budDelSINCDGcamp09a1NzdDIdOr1uzfkNjVe6wICKKMEOpTMUug9/y0QQQAAEQcDQBmKGjw3ScHwREJgAzNCjWkCHDqBauKalcoAikNrh51eoFisA1JZU0w5Ceug1zF2/S6XTrls6ZklFQXreuRafbuDi/y14S5qxo0elamhcWTZpYVL1io07XsrI8ga+JlY+6u2XX2ZAuDQI9mOHsFZs3t2xmzTC6aPHqDetXLcyJDtXADKX0K7ijYymcHwRAAATkQQBmKHLUjuJAwNEEYIYGM5yT39VhqNPpavyjavyjiBySfaqFOp1uTr7VbsOhc1bodC3LSyIMxjKseHmLTreyfKihrNzaTTrduoXjDW/9xy9ap9NtrOXU0cpHUEGJE+jBDAPD1IHdRpNOWrh6w4bmRVNT1IEwQ3QVggAIgAAIuB4BmKGjw3ScHwREJgAzNOiZYOKZzatW1/hHrZxYtCQyiSoilcOGsgprllK+UqdrWTLNKH4Bav9p9S063YpykjKpZoNO11w9pqunK3Fes0634daJAVY+Ys7WdSASJUSgd2aYtWDVxo3NtcVJnDHCDF0vHpLH7/1oBQiAAAjYQwBmKHLUjuJAwNEEYIYGtaDWR3bWlFTW+EctUAQuUATW+EexQ0l1Ot1tTautmOFEbihpc6Wxh5DLOXRuMzegdBJ/FNejSHoI6Un4rsKV5QFWPpKQAtFqY4cl0BszTJu7YtPGNUtmJIeqXcoMt+/Y2dZ2Q298tba2HjlyNGN89rFjx9vabmzfsdOeCAPHggAIgAAIuBYBmKGjw3ScHwREJgAzNBjXbcwcM/+fvTMPb+K6937/ep8XLbYsy7JsGe/7vmCMF2xjg3Eg4Bi8gA3GNhgMeAVjDMhMliY3adqmuU3aJM1tb2+SkuVmuW2WpmlSIGma0NybEtIGAqSFXkwIYTWLNzTvOzPSeCzLRral0ejM1888YjSamXPOZwbp95nfmTMURfHZwrrv6DeGptmaYftkZmjVPKHLCZVPOG9Zx7rJJB8J94Z5KRJwwAyX1GxpaSjLTK9q27Wru2n5XJ1+7pL6th07unfs2LF9y5qCCKmPQMOZ4UcfH2re0rLHtPfEiZNms/k/X34FZuhZwRxqCwIgAAJOIQAzFDlqR3Eg4GoCMEOLY3SOfYzhznVNbQVLGzURG0PT2gqW2phhZ0OTMFlkM89qnr2cIXsnoWayxCDMUIrKZ3N8J3rrgBkGMeukV23Zubt7c2W63qhbtH57d9fGFYuzShtat29vqS0a85gK6T21gjPDAwcOciFFd8/u69ev//Vvf+PN0NRLnT17doT9O3Hi5EPf+/7p0/+8dOnyxk1btDrDvd99YGBg4PBnR6pW1X766V8GBgdHRkb+/o9/dO3YWVZe0dd3tr+//8qVK/39/T994qkvvzw+MjJiNpvPnTt3/wMPOiWIwU5AAARAAAScSABm6OowHfsHAZEJwAwtKtK4slrYoXRLaj438AzXm7StYKnw01WTP7gC9xnK8k5Ix8wwdllzz+6dbVV57GMq4udmZWcnRRrDi+pat2/fXJXn0Wb47HP7Tp/+5+XLV+6+576f/PTJwcGhw58deffdP9y6devnv/ilVmd4663f3rp16z9ffvXI558PDAw89vhP777nvsuXr3zzzTf33nt/X99Zs9nMJST/+7//Z3Bw6MeP/aStfds37F9VdY0ToxnsCgRAAARAYOYEYIYiR+0oDgRcTQBmaDHDguz5Qvfj5rek5m9JzR+/PCp49PGDdjJIKcxdhePGJu1cxT2XwkdX0mQaPzapqalUM+lHdgqSpYBJloMjZhi+ZGPPnj2ttcWCBxjGzl+xqb1rR+v6ijwP7036xJNPbWhqXrV6jVZn4HKAfX1nn3n2OSZPePiz4kWlp06fvnTp8i9/+cy1a9c+PnSIC0peefW14eHh1177dV/f2YsXLzU0Nml1hsOHPxsaGnrzzbeat7Ssq1+/oak5MTlt5kEM9gACIAACIOBEAjBDV4fp2D8IiEwAZjjafXHTitEnFk5ihu2TdiXlvIV9nqFpR9PY5xmmr2hsaWu8K0PDPbSwp612oucZ2v0IHihtArc3w6jFDTv27OlYVxAVZHmAYXxRdXPXjh3bm1ffmTcvJz0p2iNyhtYBaGibEWge/dfHXnzp5WvXrvEr9PWd7d65+/Tpf168eOmRRx69fv364cOf2Qxjw638zu9/39d3tq/vbFl5hVZnaG3r5FKINE2PjIwcPPh+ZlaOE6MZ7AoEQAAEQGDmBGCGIkftKA4EXE0AZjhqhlGzw/mn24/PE3JLdrdv89eMbjJx/iquZE1bz152o727WteURvnoNMuYZ1eYNpVpfHTB81Zs3G7i9mnavumueaNJyEk+mrg4R6qEdVxL4HZmGFfc0L1nz46GRbHsmmxv0hXN3d07LSPQbN/eXlfqEWbI32fIRxXcfYa/f/e969evHz16rKR06YqK6q+//pozPa4T6fHjJ27duvX00z/n7k7kc4b/P7u4cdOWlrYO3gyDQyPX1a9fV78+PSOrrX3byZMnb968efc99/HFYQYEQAAEQEAKBGCGrg7TsX8QEJkAzHCMLeTGpezu2DahFnZsy4lLgZ6BgF0CtzPDIJ2eHYHGn3tlzVDvkU+tmMgMDxw4ePPmzaNHjy0rW/HyK6+OjIx8e+HC1pb2u++57+bNmzRNnz9/vqa2Ljs3/+TJkwMDA//xzLN333Pf2bNMJ9Lv/+AR3gy53qSDg0O/+Pf/KCuvOHbsy2vXru3o7pFCGIQ6gAAIgAAI8ARghiJH7SgOBFxNAGY4xgy5iH/92NFoOFFsbZxsPFK7qoCFsiIAM3z0Xx9767dvDwwMmM3mby9cOHbsS7PZfODAQe4OQ5qm+Txh7dp6fujRixcvPfjQw/x9iVxv0tq19Uc+/3x4eNhsNl+6dPnpf/sFH4hgBgRAAARAQCIEYIauDtOxfxAQmQDM0I4Zcj4THxq1IGXOgpQ56bFJhoAgWUkOGjsNAnIww2nHIh8fOjQ0NPSjR3887T1gQxAAARAAAakRgBmKHLWjOBBwNQGY4YRmOA03wCZyJgAztBuylJVX3Pfdf/n2woVvvvkGT56wiwgLQQAEQMBDCcAMXR2mY/8gIDIBmCHMEAScQwBmaDeyOXDgIE3Tw8PD+/a9YHcFLAQBEAABEPBQAjBDkaN2FAcCriYAM3SOFcg5V4a2cwSYB1FYRpcZO9KMv1FnGWlm7HJmoYeNQOOhsQuqDQIgAAIg4AoCMENXh+nYPwiITABmCDMEAecQ0OkDXWqGvroAjY/OFT/t2CcIgAAIgAAITIMAzFDkqB3FgYCrCcAMnWMFyJuBgNbX4FIz1Gr9YYbTCFywCQiAAAiAgIsIwAxdHaZj/yAgMgGYIcwQBJxGwF7a0OjnjN6kvn5MwhBm6KLgBrsFARAAARCYBgGYochRO4oDAVcTgBk6zQqQNAMBjVav09vcbegEM/T1C9Ro9TDDaUQt2AQEQAAEQMB1BGCGrg7TsX8QEJkAzBBmCAJOJaD189UZ/Eb9cIZmGKDVGTRaP966XfcDjz2DAAiAAAiAwJQIwAxFjtpRHAi4mgDM0KlWwPb344N4zMiagFbvMzr5+Wj1Gq3ex9c6WT4SLNf6+VgmZkMNO88C9NP4wAwNUwpWsDIIgAAIgIAIBGCGrg7TsX8QEJkAzBBmCALiEPDz9vFjsn/MJCyRFT+tTrCQWeLtwy+Rohn6G4JDwuMiY1Oj49IxgQAIgAAIiEMgMjY1JDzO3xAsgvU5UgTMUOSoHcWBgKsJwAyFMTrmQcB1BMgxw5Cw2NjEucFhsQZjqD4gGBMIgAAIgIA4BAzG0GD2GzgkLNYRc3P1OjBDV4fp2D8IiEyAQDNkki2YQEByBAgxw5CI+IiYFJ0+0NUBB/YPAiAAAiBgl4BOHxgRkxISEW/3UzEXwgxFjtpRHAi4mgCBZujlrYUZgoD0CJBghoag0Jj4DF8/ZlwcTCAAAiAAAu4i4OsXEBOfYQgKdVcFuHJhhq4O07F/EBCZAIFmqFR7S88KkMYEARLMMDw6KSg40r2BCEoHARAAARDQ6gxBwZHh0UnuRQEzFDlqR3Eg4GoCBJrhLIUKaUO4sfQIkGCGsYmZOv8g9wYiKB0EQAAEQECrM+j8g2ITM92LAmbo6jAd+wcBkQmQaYaQQ+l5EXKGJJhhfPI890YhKB0EQAAEQIAn4PbvZJihyFE7igMBVxMg1gxnKVRKtbeXtxYD0sASpUEAZohbE0EABEAABJxJAGbo6igZ+wcBuREg2QzldizRXmkTUM9SqBVKFTMpVIKqcsvVCiU3qSwzzMrc5KVQjk78pWK3zLg9CnFLq1EoCIAACEiTgNu/k5EzFPyaC3/ZMQ8CnkoAZuipRw5fRp5GAGbozCvl0ozSUCsQAAEQEJMAzNDTIgHEnCAgdQIwQ6kfIXzrkUIAZggzBAEQAAEQcCYBmCEpEQJiURCQCgGYoVSOBL7dSCcAM3RmPCTmVXmUBQIgAALSJAAzJD1yQIwKAmITgBmKTRzfYnIlADOEGYIACIAACDiTAMxQrhEFYlcQcBUBmKGryOLbCgTGEoAZOjMekub1e9QKBEAABMQkADMc+zuLiA4EQGCmBGCGMyWIbyUQcIwAzBBmCAIgAAIg4EwCMEPHfn8R6YEACDhKAGboKCl8+4DAzAjADJ0ZD4l5VR5lgQAIgIA0CcAMZ/a7jAgQBEDAlgDM0JYIvmVAwDUEYIYwQxAAARAAAWcSgBm65vcakSEIyJcAzFC+xx7fp+ISgBk6Mx6S5vV71AoEQAAExCQAMxT3dxwRIwiQTwBmSP4xxvemNAjADGGGIAACIAACziQAM5TG7zsiSRAghwDMkJxjie9HaROAGTozHhLzqjzKAgEQAAFpEoAZSvt3HxEmCHgeAZih5x0zfA96JgG5m+HRo8f6+s6WlVcIA6znn39xZGTk6NFjwoWYBwEQAAEQcIQAzNAz4wFEniAgXQIwQ+keG3zfkUUAZmhrhj27TNevX6dpGmboSAiIdUAABEDAhgDMkKw4AREpCLifAMzQ/ccA32vyICBfM9zQ1LzHtPf8+fPCnGFVdc2ZM33nv/324sVLMEObaA9vQQAEQMARAjBDecQPiFRBQDwCMEPxWOP7S94E5GuG/f39NPvHm2FwaORHHx+6fv36gw893Nd3FmboSAiIdUAABEDAhgDMUN5xBSJYEHA+AZih85niewoE7BGQrxlyoYzwPsPnn39xcHDo+edfLCuvgBnahHp4CwIgAAIOEoAZ2vu1RVwHAiAwfQIww+mzw/cRCEyFAMzQcp9h146dV65cOfL555lZOTBDB+M/rAYCIAAC4wnADKfyK4x4DwRA4PYEYIa3Z4TvHRBwBgGYIWOG99x3/5kzfWfO9FVV12h1Bpjh+FAPS0AABEDAQQIwQ2f8OiMOBAEQGCUAMxxlge8XEHAlAZghY4YvvPjS4OAQd9uhzeszzz7nYDCE1UAABEAABLQ6A8zQlb/aiA9BQI4ECDXDwLzKTV09vRTz12vqaa1bkjSVo7uylaKolpVT2URhs3JZ826TaVOZI99ZOWs6TLs71ubZ7AFvCSMAM2TMsKWtY+OmLc1bWripZ5fp3LlzJ0+ebN7SUryoFKEeCIAACICA4wRgho5EWVgHBEDAcQJEmmFhQzdFUaauDSuKMovLN3SZKIrqaSoJdNg0nGCGK1ooimpd4ciRyG/ooaiehnyHq2drodjQIwjADC33GQqDHvQmFdLAPAiAAAhMiQDM0JEoC+uAAAg4ToBAMzQs28yYYEOhlYKxpIlxw46q+FlJSxs6e0xsLtHU3VqZY5ylUIUW13X08NnFmvxA1SzWDHu2dVjX3LycTTkacqpaupldMfvvbGDzkGMNkFPKjYzqWf/GKN/4PZQz6Unrn2MmaW2XR+gQKskTgBnCDA1TivmwMgiAAAhMTgBmiIgIBEDAuQQINMMljBh2rc3kI3J+xricc8aS+Ji5VR29FNVVl6UobtrNZBSLwo0ZSzf3UJRpQzFnhpSpq2FZXlFFK+OC7VUx8StaTBRl6li7OK+onFmT6m7IV9gzw9XxKZk1HcxWNRmZaTGjucrstV0UZWqtnBsfU9LE7GFzWWJS5hJmtqfpjsyMpHDnHl3sTUoE5G6Gk8c3+BQEQAAEQGCqBGCGUvqV56NNzICABxMg0AzZLFxruZ0ul8aYtMyMtHgD+5F1taXNvRS1u3X14ryMpKSETFbP2NRfV102+40Tv7qT6Ri6dhXjei0rmTTjLIWK7QJqaiqxZ4bMDYpjl1sqE27ZP/O20NKH1LKrMalFfNORSABmiIwZCIAACICAMwnADEmMFjxYKnA4CCBAoBlOnDNUJdzRYOk4aum/yQhkwrLNPZYuohTV29VQEs/lDPkRaDiHZLuICvzNci/iWAO0LJzIDI05Fa2jZbF9XvNhhhZtJv6rEGbozHhoqlfWsT4IgAAIkEcAZkhAII4mgICkCBBohgZWz+zdZ1hl7TiqmqUwVrYzmcDywPiUzMyUWOOs8KSMohqui2nGqOAxusKZ4WQ5w86aGFZvsuq6rIOajjVGTn7iuS6mVRlM/1LkDIlXQZsGwgxhhiAAAiAAAs4kADOUVEiNyoAAAQQINMNZgfbGJu1uyA9kO46ytxTGlHCDxHStnVvJ9Cbt2bwkwxjK3XzYXhVjzwzL7d9nGM8apqmlojhnWQM7Cir3uAvWDLsaijIzE8KthpDJimN7VUZgeBZ3++LuzctjjTnrmNsbW1bm8T1dCTix0IRxBGCGzoyHyLv2jxaBAAiAwFQJwAzH/dRaIy65dEdCe0HAyQRINEOFalZ4XuVWyxik7PMMa4pYPRvtOGrqadnUwfQhbV0RWlwzOuLotiZmGFK7ZqhQjR9ZlPlKmruihXlIBvPgxI6tzD7Zbqjx7LgyzGK+V+oshTF/TQf3lEVTT0fzVibByOQ282vYqrCPrsB3GbEEYIYwQxAAARAAAWcSgBnCDEEABJxLgFAzJNYunHxhwLknE/Y2KQGYoTPjoaleWcf6IAACIEAeAZjhpD+7CJlAAASmTABmOGVk+BoCgWkRgBnCDEEABEAABJxJAGY4rZ9jBH4gAAITEoAZTogGXzcg4FQCMENnxkPkXftHi0AABEBgqgRghk79mUZACAIgoIIZ4iQAAXEIwAxhhiAAAiAAAs4kADOEGYIACDiXAMxQHCtAKSAAM3RmPDTVK+tYHwRAAATIIwAzdG5MjL2BAAjADGEsICAOAZghzBAEQAAEQMCZBGCGiONBAAScSwBmKI4VoBQQgBk6Mx4i79o/WgQCIAACUyUAM3RuTIy9gQAIwAxhLCAgDgGYIcwQBEAABEDAmQRghojjQQAEnEsAZiiOFaAUECDDDLN8/QKmelUb64MACIAACDidgK9fQHxyltN3O6UdxifPs5kUSq+xk1qhVCsU7KtSrVCqmLfsNEvB/CzyQa1CoWI/Vdks51fADAiAgAgEYIYwFhAQhwAJZhgVm2Ywhk0pbsDKIAACIAACriBgMIZFxaa5Ys+O79NGC+OT543VQi+LB8IMFeJEGigFBGZKAGY4U4Ii6DuKIIIACWYYFBIdHpXkeNCANUEABEAABFxEIDwqKSgk2kU7d3C3MEMi4hNEwiAwSoBkM1Sqvb28td4+Og0mEHA/AT9vHz+NlpuE56SfhlmuYyZLJZklzHlrWcKuYK2/g7/WrlstKi7d7bGI61qHPYMACICARxAIComOikt3e1VhhjBDECCMALFm6OWttcbZfMCNGRBwIwFCzNDPEBQdlx4akeBnmO32oAQVAAEQAAG5EfAzzA6NSIiOS/czBLm97TBDwqwAzQEBMs0QWggrlh4BQsxQqzP46gKCw+NiEzOjEzKi49IxgQAIgAAIiEQgISM2MTM4PM5XJ4nBwGCGEAkQIIwAgWaoVHtLzwrcmKpC0RIhQI4Z8lep/Qyz9QHBmEAABEAABMQhILXOGjBDwqwAzQEBAs0QCUOIsSQJEGiGvCJiBgRAAARAQIYEYIYQCRAgjACBZoghZyTpRRJJ3LmxGjBDZz7fWYYRGJoMAiAAAlIjADMkzArQHBAg0AzhRSAgSQIwQ5ghCIAACIAAUQRghhAJECCMAMzQjUkkFC0rAjBDouIhqV25R31AAARAQHwCMEPCrADNAQGYoazkBI11IwGYIcwQBEAABECAKAIwQ4gECBBGAGboRlVA0bIiADMkKh4S/9o8SgQBEAABqRGAGRJmBWgOCMAMZSUnaKwbCcAMYYYgAAIgAAJEEYAZQiRAgDACMEM3qgKKlhUBmCFR8ZDUrtyjPiAAAiAgPgGYIWFWgOaAAMxQVnKCxrqRAMwQZggCIAACIEAUAZghRAIECCMAM3SjKqBoWRGAGRIVD4l/bR4lggAIgIDUCMAMCbMCNAcEYIaykhM01o0EYIYwQxAAARAAAaIIwAwhEiBAGAGYoRtVAUXLigDMkKh4SGpX7lEfEAABEBCfAMyQMCtAc0AAZigrOUFj3UgAZggzBAEQAAEQIIoAzBAiAQKEEYAZulEVULSsCMAMiYqHxL82jxJBAARAQGoEYIaEWQGaAwIwQ1nJCRrrRgIwQ5ghCIAACIAAUQRghhAJECCMAMzQqgphC1a17DLtpZi/vaaetrUlsdaPfNiZWGYF9mOK2tm2qjBOwy1nXuMKqtt6LNvuaq1eEDX60didYLl8CcAMiYqHpHblHvUBARAAAfEJwAwJswI0BwRghpy5hS/baqKoXa3VpVnZOSUVW3soiupcmzqqMYsad1LU3h1bKkqzFlVt3M6s3Fhksb6iBsYYd2yuKskurWjaYaKonoZFAm+EHIKATuMDM4QZggAIgAAIEEUAZgiRAAHCCMAMWWlJWdtJUaamUl7ncut3UNSOddkWpQmubKMo05aycMsKYWVbTBTVVhXso9OEVbVSlGlrGTPPTJxktlWEQYdAQEgAZkhUPCT+tXmUCAIgAAJSIwAzJMwK0BwQgBmysXthfedu05YVgjieUcHRrGBFC0Xt3nTHaApRd8cmRg0rfHSaCkYaN94h2Jb9rLVCsESwIS+fmJEZAZghzBAEQAAEQIAoAjBDiAQIEEYAZmjX31IZ3du7dZnF6BYwXUk7VluzgswmwdWdjDoW6gqYrqSdq4QZwrDVnUyH0gUyMx+7JLGQJwAzJCoektqVe9QHBEAABMQnADMkzArQHBCAGfKBOz8TXlDbaaKoHXX5VrVb1NjD9B21vmXXtCYVi9bvsiQPRxODTP/SnvW41ZBHihly7jPMzs1/+3fvXLt2jabpkZGRU6dPm3opx8OR5i0t/f39R48ec3wTbs2y8oq+vrN9fWfLyiuE27a1b/vr3/42PDxM0/TAwMCf//xJReUq4QrC+aV3lh0/fuL48RNL7ywTLsc8CIAACIDANAjADCESIEAYAZihjbTElazfQVFUz6ayMcPP9EyQMyzSsWZoL2cIMxxVZRvI8nxLQs4wMyvnyOefm83mz//617vvue+NN94aHBzq7+/v7tntYEjhXDPc3tV9+fKVgYGB119/c2fPnj9++Kfh4eEzZ/qqqmvs1mcivbS7MhaCAAiAAAhMTgBmSJgVoDkgADMUWkrGsk27KMq0o77U5rETuM9wTL4UyjcdAiSY4b3ffWBgYOCvf/tbZlYOFy68+tp/mc3mD//0UXZu/nvv7b9x4wZN09euXXvxpZeDQyNr19Z/+eXxkZERs9l87ty5+x94kDPDy5evXLp0mVvz33/5jFZn4Dfn1nzoe9/X6gwlpUsPHfrz8PCw2Ww+/+23/f39wpxhcGjk4c+ODA4OPfLIo3zs8uJLL9+6devt371z4MDBwcGhh7//Q63OwAnhpUuXuerR7N8zzz7Hb4UZEAABEACBaRCAGUIkQIAwAjBDqxmG5axqYZ5FsWVFjvB+Qs6Ikpg7B8eNTdqxOslHp0lhP7Mdm7RzVYp1z9OxCGxLHgESzPCtt35769atpzdiivUAACAASURBVJ/++fgA4ue/+OXIyMj7739QU1t37NiXAwMD9373gQ//9NHg4NCPH/tJW/u2b9i/xx77SX9//8jIyMGD7z/yyKMXL166du3aju6e997bPzw8/PIrrzZvaTlzpo9beODAQbPZ/Mkn/33vdx84ceIkTdNCM6yprTt//vyp06eLF5Xy9WlobLp48dJXX3116NCfbczw3LlvnnjyZ+fYv55dJuFW/OaYAQEQAAEQcJwAzJAwK0BzQABmyBpI2KJ1203U3l0bKxZkZedYp6yksIy71re1rl+R6sM+z9C0Y+OEzzM07WjC8wzJ0zkntogEMxQm4mxCh/+fl9u4aUt2br5WZ3jm2edomn7m2ecOH/5saGjozTffat7Ssq5+/Yam5l27Tf39/adP/7OkdKlWZ3jl1dfMZvPvfvf7r7/++quvvuJSkY89/tPh4eEP//TR+fPneRXc2tJ+9epV/q1WZ7DbMZXvL3r48Gc2ZtjXd7Z37912b1a0aQveggAIgAAIOEIAZgiRAAHCCMAM2dC/aAPzaHvbv12NRWUbTRRl2sQMUhpbWtvGPNGe+dvZVrs4TtDBMq5kTVvPXvajvbta19h2RhWs6UTTwK48iwAJZjhJzrB589YTJ06OjIxwfTU5M2xt6+zrO2s2m7nhag4efJ+6+17hCDScQ/7xjx/29/fzG3IzR48eFa7JKx8/As1Uc4YwQ0fiPKwDAiAAAo4TgBkSZgVoDgjADD3LLlBbzyVAghk+/P0fDg4O2b3P8ONDh7iOo1qdYd++F2iafv6FF9fVr19Xvz49I6utfdvJkydv3rz5yquvCX2PM8M//GH/+fPn+Zxh8aLS5i0tpl5q8pzh5PcZct1TH3v8p1qdYeOmLZcuXYYZOh7tYU0QAAEQcIQAzBAiAQKEEYAZeq5poOaeRYAEM8zOzf/8r3+1GZv08uUr27u6ud6bP37sJxuams+c6aNp+s033/rb374YHBz6xb//R1l5xbFjX167dm3f8y+MN8PnX3jxo48PjYyMvPXWb7d3dX/55fGbN2/ee9/9H/7pI7PZ/NHHh3b27Pnyy+M29xlqdYZJxib90aM/HhoaOnX69L88+L3PjjDjqfb1nd21p/fMmb6LFy/d/8CDfO7RkegH64AACIAACIwnADMkzArQHBCAGXqWXaC2nkuABDPkxgvdv/8AN8jn8PDwV3//e9eOnVqdge84OjA4eOzYl5cuXe7v7//pE08d+fxzbnDRS5cuP/1vv7C5OZC/I5EfhlQ4YOmyshWffvoXfmhTYQqRD1Amep5hZlbO7999b3BwiBvslN/2rbd+yz388MCBg/xOMAMCIAACIDANAjBDiAQIEEYAZui5poGaexYBQsxwGqEDNgEBEAABECCSAMyQMCtAc0AAZuhZdoHaei4BmKGByMAIjQIBEAAB2RKAGUIkQIAwAjBDzzUN1NyzCMAMYYYgAAIgAAJEEYAZEmYFaA4IwAw9yy5QW88lADMkKh6SbYoADQcBEAABngDMECIBAoQRgBl6rmmg5p5FAGYIMwQBEAABECCKAMyQMCtAc0AAZuhZdoHaei4BmCFR8RB/yRwzIAACICBbAjBDiAQIEEYAZui5poGaexYBmCHMEARAAARAgCgCMEPCrADNAQGYoWfZBWrruQRghkTFQ7JNEaDhIAACIMATgBlCJECAMAIwQ881DdTcswjADGGGIAACIAACRBGAGRJmBWgOCMAMPcsuUFvPJQAzJCoe4i+ZYwYEQAAEZEsAZgiRAAHCCMAMPdc0UHPPIkCUGfobgkPC4yJjU6Pj0jGBAAiAAAiIQyAyNjUkPM7fECwRF4UZEmYFaA4IEGiG3j6eJQyorUwIkGOGIWGxsYlzg8NiDcZQfUAwJhAAARAAAXEIGIyhwew3cEhYrBTkEGYIkQABwggQaIZe3loN5BAEJEeAEDMMiYiPiEnR6QOlEJSgDiAAAiAgQwI6fWBETEpIRLzb2w4zJMwK0BwQINAMlWpvmCEISI8ACWZoCAqNic/w9QtweziCCoAACICAnAn4+gXExGcYgkLdCwFmCJEAAcIIEGiGsxQqpA2l50Uy6TI6STNJMMPw6KSg4Ej3BiIoHQRAAARAQKszBAVHhkcnuRcFzJAwK0BzQIBMM4QcwgylR4AEM4xNzNT5B7k3EEHpIAACIAACWp1B5x8Um5jpXhQwQ4gECBBGgFgznKVQKdXeXt5aDEgjPUeaJLFG8EckmGF88jz3RiEoHQRAAARAgCfg9u9kmCFhVoDmgADJZoijCwJSIqCepVArlCpmUqgEFeOWqxVKblJZZpiVuclLoRyd+IDALTNuj0Lc0moUCgIgAALSJOD272SYoeDXXPjLjnkQ8FQCMENPPXL4MvI0AjBDPOkeBEAABEDAmQRghp4WCSDmBAGpE4AZSv0I4VuPFAIwQ2fGQ9K8fo9agQAIgICYBGCGpEQIiEVBQCoEYIZSORL4diOdAMwQZggCIAACIOBMAjBD0iMHxKggIDYBmKHYxPEtJlcCMENnxkNiXpVHWSAAAiAgTQIwQ7lGFIhdQcAlBLyVWpihS8jiqwoExhGAGcIMQQAEQAAEnEkAZjjupxZBHQiAwDQJKBVeBcZimOE08eHLCASmSABm6Mx4SJrX71ErEAABEBCTAMxwij/ECPlAAAQmJFBgLKoIq4YZTggIXzcg4FQCMEOYIQiAAAiAgDMJwAyd+jONgBAE5EsgJyCvMry6MhxmOObJcvI9IfDd6noCMENnxkNiXpVHWSAAAiAgTQIwQ9f/diMyBAHyCWQa5nFaCDMk/2DjS1MyBGCGMEMQAAEQAAFnEoAZSuYnHvEkCHgqgRR9Gq+FMENPPYr4KvRAAjBDZ8ZD0rx+j1qBAAiAgJgEYIYeGAwg8gQBCRGI1cVXhldZp+qVYRW4z1BChwdfcEQTgBnCDEEABEAABJxJAGZIdNiAABUEXEsg3CeSd8LK8KqK8Kpgn1CYoWuh4zsLBKwEYIZMPLS9q/vy5Sv9/f3NW1rEvLKOskAABECAPAIwQ+svLGI5EACBqREI9gmtCKu0miGTNozURs9SqGCGU+OI7yAQmC4BmKEhOzf/5MmTNE3DDMmLUNEiEAAB8QnADKf7i4zYDwRkTSDA27gyvKIyvKqK7UpaFV4Vq4vn/jfBDGV9ZuArVUQCcjfD4NDI/fsP3Lx58x+nTsEMxY8gUSIIgAB5BGCGIv6II1wEAUII6L0Md4WVc9lCzgxT9en8fyWYISGHmT+imJEqAbmb4eM/eWJwcOjV1/7rwIGDMEPyIlS0CARAQHwCMEOp/uIjtgQBiRLQqnVlYWVVEVX8NNcwT/j/CGYo0SMnPEiYJ4KArM2Qu73w87/+NTs3H2YofviIEkEABIgkADMkIjxAIAoCIhHwVmmXhiytiqisCq/kXucb59v8J4IZinQwbLjjrfwIyNcMs3Pzv/ji6KVLl1vbOrU6A8yQyAgVjQIBEBCfAMxQfrEEolYQmCYBL6XmjuA7GCG0TguCFigUapv/RDDDafK14Yi3IHA7AvI1Q+72wh8+8iMubIIZih8+okQQAAEiCcAMb/fLixgPBECAIaBUeJXMLuGdsCqisiS4RKnwGv8/CGaIMwYExCEgXzPs6ztL2/s7evQYkbEaGgUCIAAC4hCAGY6Pa7EEBEDAhoBCoV4QtECohXeElHopNTarcW9hhuJYAUoBAfma4br69c1bWvjpo48PXbt27V8e/N6q1WvECZ5QCgiAAAgQSQBmaDe0xUIQAAEhgfnG+VURFfx0Z+hSb5VWuIJwnkQzXNlKCf9MPS0VeQaFI2YSv6Sph920p7mpg6KojlWZsxRlzbtNpk1lQmqYB4GpE5CvGdoEZOhNagMEb0EABEBgegRghlP/LXYkGsQ6IEAOgayArKqIimrWDKsjKu4KW65V6yb5j0OsGXasyszIzMwoWtHcTVGUqanYkWO8ooWiqG11OZlpCXlVTVubKnOMsxTswtYVk0DERyDgAAGYoYELfWCG0wsBsRUIgAAI2BCAGTrw4+tI+Id1QIBMAin6VN4JqyIqVoTfpfcyTP6/hlgzbFlpPcYlTSaK6lnXxFhfd1dPL0X1NOQrkpY0dDDzjDayScX8Bi5dKEw3tmwULuxpyLfu06EMJFYGASEBmKHFDG0iG7wFARAAARCYHgGY4eQxLj4FATkTiNPFVUdW8FNFRHmAt/G2QGRmhpSpo6Y4Iy1+8TpGA3s2rSjKK13bbqIoU0t1YUpmDdOFtL2GSTauYmZbVscLFqbFBAoDfcyDwJQIwAxhhiAAAiAAAs4kADO8bZiLFUBAngRCfMIYJ4xYWc10JV1ZHVkR7BPiCApizXBcb1K2U2hXXQaT7itt2s1lDtnIPpD9qLMmRthxlL1ZkU08ojfplPwHK09EAGbozHhoetfXsRUIgAAIkEQAZuhIpIt1QEBuBMK04dWRjA3yrxHaSAchEGuGo51CLSPQCAVPOK+apShk+owyXUwFy2GG6DHrZAIwQ5ghCIAACICAMwnADB0MdrEaCMiHQKg2vCpiBeuEK7nXaN8Yx5tPrBmO3mdoie8F1oecoZOdZ6IsGZYLCcAMnRkPkXTVH20BARAAgekRkKAZenlrLZPG14uZtF4ardqy0Jf5iF3CLVR7+1o+si4ULld7MxtKcFJ5aZQqb8dDbawJAqIRCPEJtdHCBL+EKZUuTzNU5Y+/z7A8fswwpDY5w66GoszMhHBhoI95EJgSAZghzBAEQAAEQMCZBGCG7vVG+OGUlAMru5pAiE9oZUS5MFuYrE+aaqEyNcNZ48cmZdJogrziqBnyDzmkxuUhpyQGWFnmBGCGzoyHpnd9HVuBAAiAAEkEYIbuNUO1t1apRvJQ5tGdVJrPaeEq5vbCldxrmn/qVLVwlkJFohmiqyQISJEAzBBmCAIgAAIg4EwCMEO3myEjh+hZKsWgSyrCNg03m8Yms32C2WzhilWRK6ojmdfMgDnT2A/MUF7nzfROEWzlJAIwQ2fGQyRd9UdbQAAEQGB6BGCGUjBDtbfWSXECglIQmA6B2T7BVZF3rYpihJB7zQrInPY5iZzhdI7BtHFjQxkTgBnCDEEABEAABJxJAGYoETNE2lDG0Z2bPcKoCWK0kM0Tcq8z0ULkDN18OPEfSU4EYIbOjIemd30dW4EACIAASQRghhIxQ5WXRk7xDIJnqRAI0gRVRpYxeULrlGPMmuGpiJyhVI7uDA8kNpc8AZghzBAEQAAEQMCZBGCGEjFDdCiVfAxGYLRvtGhhOauFzGuuMXvmBwJmSOC5MvPTAntwAQGYoTPjIZKu+qMtIAACIDA9AjBDmKELwhUExh5AIFBjtGYLLWaYH5TrlJMBZugBh98pRxo7cTcBmCHMEARAAARAwJkEYIYwQ3fHNoii3UCA1cLlq6LK+akwKE+hUDvlZIAZuuGIOuXIYSeeRoAMM8zy9QuY3rVtbAUCIAACIOBEAr5+AfHJWU7c4TR2FZ88z2by8tZaJo2vFzNpvTRatWWhL/MRu4RbqPb2tXxkXShcLh3rc6QmnhaTIPr1VAKcFq6OKuenwtlO00KMQOOppwW+gDyQAAlmGBWbZjCGTSN6wCYgAAIgAALOJWAwhkXFpjl3n1Pdm40WxifPgxl6YHyCYNhjCBi8Ayojl61itZB7LQqe76xsIXfqImfoMWcDvms8nAAJZhgUEh0elTTV0AHrgwAIgAAIOJ1AeFRSUEi003c7pR3CDPl0ooeHKAiGPYCAwTugIvLO1dFstpB9XRhcoFQ6pxMpfwKTbIZqLx+tr0GnN/r5B2ECATcRMPr5G3V6o04fpNMLz0OjH7OQW86sY30byC406vwCdXpuYlfzC2SW+AVO6TfbFStHxaW7PRZxRbuwTxAAARDwIAJBIdFRcelurzDMEGbIGwVmXErA38vAaGHUXfxUElKoVHg5vVBizdBH66/VGdRePgpny7TTjwF2KA8CJOQMtTqDnyEoOi49NCLBzzDb7UEJKgACIAACciPgZ5gdGpEQHZfuZwhye9thhjBDeYRwbs4o+nsZVkYsXR19Fz+VhBSqlM7XQmLvM/TR+mt8/HCygoCUCBBihlqdwVcXEBweF5uYGZ2QER2XjgkEQAAEQEAkAgkZsYmZweFxvjpJDAYGM4QZSinQcrO/uQiFn5d+eXiJxQmjGDlczGiht4uKIzBnyHQi1RlcxAu7BYHpEiDHDPmr1H6G2fqAYEwgAAIgAALiEJBaZw2YIcxwukERmRbndBp6b/+VkUtq2Gwh93pHaJHaZVpIZs5Q68t0InX6scEOQWBmBAg0Q14RMQMCIAACICBDAjBDmOHMQiP44WQEDN6Gisilq6PL+GlpWLGXUuNS5gTmDHV6I+4tdOlJg51PiwDM0JnPd5ZhBIYmgwAIgIDUCMAMYYbTiogm0yHskCMQoAmsiFxaE13GT0vCir1UrtVCMnOGfv5BOKtAQHoEYIYwQxAAARAAAaIIwAxhhtILt0jQTqPGWBV1J++ENdFlS5hOpC7XQpghCWcP/k96CAGYIVHxkNSu3KM+IAACICA+AZghzNBDYjBPCvhn+8yujlom1MLSUBcOOWNzBAnsTYqcoc0xxltpEIAZwgxBAARAAASIIgAzhBlKI8TyJPGbnFiINrg6ellN9HLWDJnXkpACpWseUGG3JjBDck4muwcYCyVDAGZIVDwk/rV5lAgCIAACUiMAM4QZSibKIiGeD9OGrIpeVhNTxphhTFlNTNmikPlKhVpMyDBDEs4kMc8YlDVdAjBDmCEIgAAIgABRBGCGMMPpBkUIv20JhPuGreayhTHLWTNcXhycqxBXC3Gfoe1RwfkNAi4jADMkKh6S2pV71AcEQAAExCcAM4QZuixqkleIHqWLWB29rDZmeU3Mcu51QXC2+FoIM5TXaYf/vW4lADOEGYIACIAACBBFAGYIM3RrZEVIGB/jF1kTs6yG1ULutWD2PHeBRW9SQs4qd51AKNdhAjBDouIh8a/No0QQAAEQkBoBmCHM0OEoCPG2fQJxftE1MUy2kJ/mz57rRqowQ/vHyY2HBEUTSgBmCDMEARAAARAgigDMEGZIaMwmkh0k6GNrGS0cnXKD5rgXKcxQpGPv3sOM0iVAAGZIVDwktSv3qA8IgAAIiE8AZggzlEB85amRfLJ/vNAJa2OWZRvT3c4TZjh6Phn+r1fM/9EY/q+X248KKkAiAZghzBAEQAAEQIAoAjBDmCGJAduoGriudWmGRBstzApMdV1xju8ZZqhKi45vq99ACf72tG/r7tiWFh3vOEesCQK3IwAzJCoeEv/aPEoEARAAAakRgBnCDG8X/IhhWR5Xh7mBKYwWxrKdSNnXNEOiRFohdzOsLSoVKKHtbG1RqUSOE6rh+QRghjBDEAABEAABogjADGGGnh+eie2u84xpbLbwTv41yT9WOhhlbYadY1OFtl7Ivu/p2Cado4WaeDIBmCFR8ZDUrtyjPiAAAiAgPoFpmuGy9TuYv+7u7p07d+7sXFvopdHyE+tavrxxecqMJ8cnYquRnFllBCTVxt65JnYZN9XG3pmol5AWyvp5hlWCbOGe9m02WrhzXRO/pMrBzGF4XuXWHstW3a2VeeFjT31jxtKGjt3s572mjoalGYGj/xUNGUsbOk3ctqbOhiUZxrHbjq6J5R5LAGYIMwQBEAABECCKwHgzDPTWenGTxteLmRjlU1sW+jIfabReMEMF4jo5EpgfNKc29s7amDuZV3Ym1i9KamGtTHOGBkMgL3572rfVfUffVrCUX9JWsLRRE8Hr4u72bdExcbc7coUN3RTV29VcXpxRtKJpm4miehryR8/7mPJWE0WZ2utK8vJKalp7KMq0dUUM99UQv6KF+axj7eK8nMU1LcxnreXxo9vermis6REEYIZExUPiX5tHiSAAAiAgNQLjzbB+WbZFDmGG0D8QsBJQKtTFIdlrmGyhZaqNvTPGzyaHJIloVqZmuHhONu+BFEW1FSyt+45+e9kqiqJ2rmuyEUWKolYUL55czwwrWynK1LzUmusLXNpsoqjWFQbLOVHY0ENRXXVZ1lMka00Xr4757Gdr51pPiLl17GeFk5eITz2NAMwQZggCIAACIEAUgfFm2Ny8sXrBbDY3OGHOMLN6C3qTeloMY41RrXEs6u84AbXSe3FoHu+E3EyULszxPYi5pkzNcFN5ldAMKYrakprfqInYXraq7jv6jaFpNp+212+Y/KiUb6Wo3U0lgv8wJU2MGpZzS/IY+etYJRjsNL6mg6J61uXNUuQxycbOGkv+kFk/fnUnRXU35Aj2Nnnp+NQTCMAMiYqHpHblHvUBARAAAfEJ2DPDzc0bquYHadmupHZ6kxrT71rfsR1m6AlxC2zQCQQ0Kp9lEYVCLVwdc0eodrZkTwCZmuHusTcW7lzXtDE0re47em7akpovvM+Qoqjd7ZOPQ8PaXXuVNUPInEmGCkb9GvLYs6q8lZkvFJ5hbBZx64pZihUt7GfCU4TNIlqtEn5ICAGYIcwQBEAABECAKAL2zbB589olcUIzLK1ra2/v6Ojo7Ozs3LZt2/btMENhQIh5Ygn4qnXlkcVrYpfy06qY0kBNgDDml9o8zJDJDnJmyMlhoyZiY2iajRlSFDXpkWM1r3XFmHWY/qXWWw2F8xbP4TeBGRL7jTDmfFDADImKh8S/No8SQQAEQEBqBCYyw811y6MF9xlOywxDChu6e3t79/J/OxsXhDCD2Qim0Du3WEbv47p69awvDhqzgnBl186P/cWXSWCDZk5GwODtXxldwjvhmtilldElBm9/iZ8qMjXDjrHPq9i5rqmtYOmW1Py67+i3pOa3FSzlh5/hvmua76qe9ECymmc3Z8gNQsOZ4ficISOTMMPJ/l9Nit2zNoQZwgxBAARAAASIIjChGW5etyRo9D7DaZmhVh1SVN8lMMO9e23EL2Fl2xgv7F6/wE1aqPbWEhSueFZwJdHaBvkEropZLNTClVELfdU66Z8nMjXDyqLFwjsJd65ratRENGoi6r6j52a40Wj4dSqLbjMCDe4zlP657u4awgyJioekduUe9QEBEAAB8QlMbIabKvNnbIbeWnVhw04+Z7h3L0X1NBaHWnKGyZXMmO+jfzvqclybFRTkKu0U5O4YQ6KCJE8s4b4hNbF3rI1byk9lkQt81J5x+UCmZhgfEzf6ZWKd40YlHd+PlKKouNs9tSKmqsPO2KTtVdZxZYqbdo8fm9TUVMz8Ty7aYKKoLpuxSU0biuX534ncVhNlhll+W2v1+zv9r+70pzGBAAiAAAiIQ6DT/2qtfn+W31bxJdBuiROb4Zba0lEznMnzDLPXdPFuyMRrPevZPqXpNvnCHWvzJjc3V39KbvQC55wagVi/iDWxS9bELeFf74wo8FJ5e8oZIlMznKVQ1QiedM+54URmuL68yoHDyT7P0NTVNPZ5hobCmuatm1cXGrnnGfZsrZnweYY9ravxPENCBpux+yVCiBn66ozV+jfEiYFQCgiAAAiAgF0C1fo3fHVGu7Ym5sJJzHDDylwnPek+b63VDblorWd9cWbl2H6knWuS3dePlHNOBwJFu7EBFhJFINUQtzZuiXAqDctRKb086PSQrxkaDIG7xo5Qas0djvl3121GJRWc0OHFq5kn2LN/3a2ri5nnV2as6qCY51VkzlIYM8qaunazn/aaujaUZQSObmvIKGvaZukVYdrWtDzD+lxEkk1ptPke9B9mBlUlxAyhhXajNCwEARAAAZEJVOvfEFMC7ZYlihlq1Wm17Wze0BJiURTVOzpL9XZWp9np3unqJKHN/mcQHsgtHCK2vdnGVKETro1bsjA0S6lUe9a5IV8znKVQRfgHdY4dikbwTcPM9nRsi/AP8qwjitpKlQAJZpjlt1Xk0AfFgQAIgAAITETA7d1KRTJDb21yZcde5j5DO38dVek2kuaWt1KNPYjVMEkBVyjUhcFzbLQwf3aGpCrpYGVkbYbMUwcNgSuLx4xGw3/rrCy+zagzDiLGaiDAEiDBDGv1+ycKULAcBEAABEBAZAK1+v12U3miLRTNDNXeaSta9/ARGj9jaqt0ez9STkQR6siWgErpVRKabdXCO7iZnKAUDwUidzPkDpvWVxfko58fFrcsLr04Pi0yMNhDDyeqLWECJJghhpwROexDcSAAAiAwCYFO/6uiSaDdgiYxw7o7gp10n6G1p2jaqg5hJ1KmT6kk+pHCDCUcerk8Zeql8l4anmfVQssdhqmGWM9lAjN0+UnjuScHau5UAiSY4SQBCj4CARAAARAQn4BdYRNt4cRmOOapFTMZm5TvGhpUunHMUyqYvKFpY6n1IRYYgQYjU4hOwEetvSuycG3cHfy0Ju6OWH2EU6NHsT0FZig2cY8+XVD5GRCAGeL5FiAAAiAAAk4mIJoE2i1oYjNctyzWOU+tsJhhyLLmPfbuMzRtuTPEmlR0qxzOIDxAIOqRBDQqn5VRRXXxdwinSF2op58JMEOPPB09/bSTZf1hhk6Oh8S/No8SQQAEQEBqBOwKm2gLJzTDhruSNU40w+QVW/dMNAKNqaUywa1OiN6kMgzqDN7+1TEL18bdUccmDOvi7qiJLQnWkvBkAZghzBAExCEAM4QZggAIgAAIOJmAaBJot6CJzHDtkjj2JkNfL43WS8Pk9LyYyZd51Wi9lq3fwfx1d3fv3LlzZ+faQm41fmW1ty/fiVTtrU2uaGW8kB+bdMcO6yPCuJFoTK2V7h+eVIZ2JNsmh/sG18SWCFOFq2MXBWoMZACBGYpjBSgFBGCGTo6HpHblHvUBARAAAfEJ2BU20RbaN8MNVfODtE4zw7SKFs4LOTM0ta1M0yZXdfLDk7L3GzILhTIp/jwZVoBW3JZAvD5ibVxpXfzoVBlTpPf2u+2GnrICzBDGAgLiEIAZwgxBAARAAAScTEA0CbRbtiisTgAAIABJREFUkD0z3Fi9YDabG+R7ky5Z29rW3t7R0dHZ2dm5bdu27du3C3OGPT09u3bt2r179x7L39by0ZxhWlUbmy605Az59GD6yrax49G0r3bv4ys8Je5HPWdCIMuYJHTCuvjSFVGFWrV2JvuU2rYwQ3GsAKWAAMzQyfGQ+NfmUSIIgAAISI2AXWETbeF4M6xflh3I9R0dvc9w+maYvWb7qBfu3TvmlsK0ytaxbrhjbZ74qUK+RKnF96iPcwkoleqFoXNttHBJeI6Xytu5Bbl9bzBDGAsIiEMAZggzBAEQAAEQcDIB0STQbkHjzdCihcz9hDPOGRY2dPf2jprhns02w5Am2OYNexoXuK1PqdsDelTAdQS8VZo7I3JttHBBSIZSqXZdoe7aM8xQHCtAKSAAM3RyPCS1K/eoDwiAAAiIT8CusIm2cLwZsiPNsOPNzNAMQ4rqu3p7R81wT5OdRxeGlm4amzfsXr/ATQ+xcFccj3JdTUDnpVsZXcBq4WL+dU5gvKvLddf+YYYwFhAQhwDMEGYIAiAAAiDgZAKiSaDdghwzw3Fjk1oHLOXGILUMWMou5AYytRmblO+xKeUZd8XxKNelBAI1htWxC9fFl65LKOVe6+IXx/iFubRQ9+6cQDPU6Y0KEtO77j1RUPqMCcAMnRwPiX9tHiWCAAiAgNQI2BU20RbCDHlZnXGQIM5FapQyBQIRvsFr4hati19cF7+Ye62NW0jGQwsnOV0JNEOtr0Ht5TNJm/ERCLiDAMwQZggCIAACIOBkAqJJoN2CYIYwQ3cEVFOwu2lXL8UQzQhhwuhUFbPAn6CnU0xEhkAzVHv5aHWEPG5yosOG5R5IAGbo5HhIalfuUR8QAAEQEJ+AXWETbSHMEGbogfHY7cVyfnCq0AnXJSwui8rTqGWRdiLQDGcpVD5af40POQ+dJPJ/nfwaBTOEGYIACIAACDiZgGgSaLcgmCHMkLBwTqlULwrLtNHCxeFzVUovwlo6UXPINENODrU6plsp7jmc6NhjubgEYIZOjofEvzaPEkEABEBAagTsCptoC2GGMENxQ6nbp/tmUh+NSrM8MnddQolwKghOm8k+PW5bYs1wlkLFdCv1Nej0Rj//IEwg4CYCRj9/o05v1OmDdHrheWj0YxZyy5l1rG8D2YVGnV+gTs9N7Gp+gcwSv0DRfu/tFiS1kAj1AQEQAAGZE7D7XS3aQpghzNDjzGeiCuu9dZUxBUInXJdQkhYQM9H6pC4n2QxJPWZol2cSQM4QOUMQGCXwZDn9yfP0yT/S7zxMPzhndLnMo3w0HwSmSkA0CbRbEMwQZuiZIZlt7tHoY6iJKxJq4dr4RVF+wWS0bkqtgBnanhxTwoeVQcBhAjBDRP8gYCHwZDlN04wZcn548TQzP1M/3EvfYPY6+jd8gT76OFPiicvMwhN7Z8r/0d30mT56eJgtYpi+8QX99tqZ7nOnP/36B8wOb3zghF1NVSqwPgEE7AqbaAthhjBDh6Mg6cbb4b6z1yYsrE8sqU8o4V5r4opn+wQQ0LRpNAFmKN0zdRqHE5tImADMEIEvCFgInPwj/WLbGBqfPE9fPD2z/CFnhtfooy/Sn75IH/0LzRnc0XbnmOHP91l2ePUv9Ke/ps+xtkkP0IdmLIcwQwL0zI1NEE0C7RYEM4QZSjjucijCzwiMrWduLFxUn7CIfS2piMnXe+s8vV3Trj/M0KHzZtp8sSEIWAnADMeYgBsDKRTtdgI0bedkeHAOkzm8eJpJJE6nhpwZXqZf97dsfvAvllycE3KGVfQFNlN46qHRun36FbNo+Aj9kLXE6VQbOcOZ0Zsec5K2sitsoi2EGcIMrUGO54XTSqW6OCy9PnERkye0vpZF5WhUGs9t1MxrDjP0vFN55kcde3AHAZjhaEhNUliGtkyDgF0z5PbzZLkleTjl3Y4zw537WJk7PiZn+Ohu+hwneTTNdTd96Gl2ta/op6yKcuoas+Ro++gZ+9SvLbsaI4F76TNf0OeO02/70+domr5MnznNrHbjA/qhZvrEaWu/08v0mRct9vhQM32qj90VTdMD9Dl2uSVn+JW1Ymw/1dfmjZY+ZRTWhmBDORAQTQLtFgQzhBm6I6ByQuiuUfssj8pmhDBhEf+6MDRDqVR7aIucVW2YoRNOL2cdDOyHaAIwQ0S6IMAQeHAO436ThOzcCu88PNk6djYfZ4b73mYd7IjADK2pv3Nv0O8+w96XOEx/WEGfYTueflrFlvgQ22v0HP2fAr86eITZ1YVfT1glxgxZ2Tv1a/rDe2jOLa9+RL/7KH1hgPmE88yj7HpnnqH33U+fYQX1zBOW+wyZ9ONp+sivLesPfzRhWXbaLqgqPpUbAbvCJtpCmCHM0BMjt0CNf3VsAZsnZLWQSRguyjTGeWJbnF5nmCHMEATEIQAzRKQLAgyB25rhTn/mLsSTf5wirrFm+Gg7fY5VsnP7Rs3w8X308DX6qnWsl3c/YZztzBO0RfxeYUp8+yNmoY0EHjrOLDy3b8IqcWZ46gfsCvfTV6/Rw19YkpBcvvHq28xHzGrX6INcPrCduR/yw3usZsi7KKemgm6xclMdtHdKBESTQLsFwQxhhk43E1fvMFIXXJdQLNTCuoTiaL8QV5frKfuHGYpjBSgFBGCGE0bVUwqDsLKnE3DQDCfPK9qBwJkhY3Cjf8Nf0D8fPzZpCb2vhZkOsmbI+B4nY6cZl+PSfZb8oTUX52DO8JB1faZ68+hn2FL2sT1RuaFHD31hqRsjqMfpIz9gepmOH4GG88wxexPuGfMgICBgV9hEWwgzhBl6ivBw9cw0xtYnLqxPXNTA5gnrExetiisI1Og9qxUurS3MEMYCAuIQgBnCDEGAIfDgHMaO7KidNdh9cI7lOYeTrGPnI84MrWOTfvri6CMlRkegWWvpwznqjtZMICeER55gu5Ietx1UxqH7DGna4nLz6KPsDYfCUviHUrz2NH3qC/qC9V7HC6/ADCc7GewcaOt5go84AqJJoN2CYIYwQ5daihN3rlSqS8IyWC1cyL+WRedo1D5OLIWAXcEMxbEClAICMEPEfyBgITCJGXIj0Hzy/NRZje1NKtQG3gy57qNX99OPsnbBveX6iHKJu2G2A+qZp8eVbr1B8cQ9ox9ZxiZlbwgUZvk4jRz+gt7H9hrl3jJm2ECf+II+97ZVO39gsVDkDIUHC/NTJWBX2ERbCDOEGXqEC2nV2ruicxoSFwqn4rA0jDcz/vDBDGEsICAOAZjhaEg91dAH6xNG4OJp+8+1P/lHZz61gofGmyF3D+HwV/TbLfS7b7Aj0ND0jSP061X0znb6KpfjG6YP2stK/ecrkz3PcIwZvsLu6AL94W767Wfoq6xt0qfpd61PVrzwLv1aC/0p27P06tvIGeKbYUYERJNAuwXBDGGG49VCakuMPv6r4wo4J6xn5bA+sTgjMEZq9ZRIfWCG4lgBSgEBmOGMoh8+yscMAQTGP+n+nYcZm5pOqpC3OAdyhjvnMT42zI5ESl+mT7xIX2XnT+xlTk5u4NDhTyY8Ufc9QZ/rs24+QF/9C/1aiWVloRnu9KcPfkDf4EphH01xxjoWzs61gqdZDNAXPmBug0TOkIBT2o1NsCtsoi2EGcIMJeIzE1Uj2i94XUJxQxKbLWRf6xKKwnVBE62P5TBDGAsIiEMAZjhhwO3GoApFu4XAOw8zucFPnmfGIP3keYsTPjjHzWcIZ4bCZ9m7BQ4KBYEpERBNAu0WBDOEGUpZpbKC4hqSihsSi/nX6tj5Bo2flOvs9rrBDMWxApQCAjBDN8f9Uwq2sLKrCTxZzgwz88nzzOR2J3z3RfrT/XYeY+hqCNg/CMycgF1hE20hzBBm6HaTsVsBldKrNCKDEcKkhfzrsqgsjVpjd30s5AnADGEsICAOAZghzBAEJEqA6wtKD9OnnpBoDWfuD9gDqQREk0C7BcEMYYa8UUhnxtdLuyI6mxVCNlvI+GHxgtAUhUItnUpKtiYwQ3GsAKWAAMwQMTcIgAAIgICTCdgVNtEWwgxhhlIzHKOPf218QUNScSMrhI1JxfWJRakBkVKrp2TrAzOEsYCAOARghk6Oh0jNAKBdIAACIOA4AdEk0G5BMEOYoaQMJ94/tCY+n3NCLme4NqEwzNcoqUpKvDIwQ3GsAKWAAMwQZggCIAACIOBkAnaFTbSFMEOYoXQ8pyA0qZFNFfKv1XF5/t466dTQI2oCM4SxgIA4BGCGTo6HHL+mjjVBAARAgFQCokmg3YJghpwZqrwwrok4oZT9UpgbC2PmNSYVCaelkZneKm+PkDFJVRJmaP8kk9RBQmWIIAAzhBmCAAiAAAg4mYBdYRNtIcyQM0MlDEThtnA6XGdck1DQmMxqofU1Z3Y8EaGjG6jCDN0AHSerLAnADJ0cD5GaAUC7QAAEQMBxAqJJoN2CYIacGcoyqpFE/Dw3KEaYJ2xMKqpLLIj2C8YRmTYBmKEkzuxpHz9s6DkEYIYwQxAAARAAAScTsCtsoi2EGaq9tUgYuiUS81Z53xmVyaQKBVNVXI4eNxbOLH8LM4QZgoA4BGCGTo6HHL+mjjVBAARAgFQCokmg3YJghko17mQTJ4gaU0qgj351fF5j8gLhtCg8VaX0coumklQozHDMqUbSoUVbJEYAZggzBAEQAAEQcDIBu8Im2kKZmyGyhW4JtJIDwuuTChuTF6xnzXB98oKGpMKUgAi3VIa8QmGGMEMQEIcAzNDJ8RCpGQC0CwRAAAQcJyCaBNotSJ5mqPLSwAndYkQqpdei8FShEzYmL1gdnxfk4++W+hBZKMlmaFRkJinr5yl35SopTCAgIoG9uUrLlKPsZSdTjrI3W2nKUe3JUe3JVu3OVu3KVvXMU+2cp9qZpeyep9qRpdo+V7Vtrqozk5k65qja5qhb56ha5qhaMlRbM1Rb0lWb01Wb7f42i7bQ8WAFa4IACIAACIhAQLTvf7sFjTdDhdJr7KRWKNUKBfuqVCuUKuYtO81SMBdM+dhaoVCxn6pslvMrYEbmBPy8fCti561nU4X8651Rc7zRoXdmNxbanFekmqE6QVkjognAPEFASABmiPQgCIAACICAGATsCptoC2GGNlE13rqIQKRfUF1i/vrkQtYJC9cnFzYmF2bNjnFRcXLeLZlmCC2EFbuVAMxQjHhIhIvxKAIEQAAEJE5ANAm0WxDMUM4KIU7bFQpVTnCcwAkXrE8urEucH6YLFKcCciuFQDM0KjLdagXC3BHm5UkAZggzBAEQAAEQEIOAXWETbSHMUG7aIHJ7NWrN8ug5rBYyeUJuKo+Z6+ulFbkm8imOQDNMUtbDDEHArQSINcNO/6sSv3yO6oEACICAfAh0+l8VTQLtFgQzlI8wiN9Sf42uNiF3fUqhcMoPTRC/JrIqkUAzxJAzbpUieSYJbVpNrBnW6vfLJ+RCS0EABEBA4gRq9fvtCptoC2GGsnIGMRubFhjRkJzPOGEya4bJhQ3J+XH+wWLWQZ5lEWiG8CIQcDcBYs0wy2+rxOMkVA8EQAAE5EMgy2+raBJotyCYoTzlwaWt9lZ5l0ambkgpFE6r4rMDNH4uLRc75wjADG2yPXgLAjMnQKwZanWGav0b8om60FIQAAEQkCyBav0bdm1NzIUwQ+iEcwkYffS1CTnrUwo2pBTwr0si09QqL+cWhL1NRABmOHMNwB5AwIYAyWboqzNCDiUbKaJiIAACMiFQrX/DV2cUUwLtlgUznCi8xvJpEMgwRjYm529gtZB7bUzOTw+MmMausMm0CcAMbWJ6vAWBmRMg2Qy54CDLb2utfj8GpJFJDIpmggAISIRAp//VWv1+t3ci5S0RZjjt+BsbCgl4q7yXRqYJnXBDSsHq+Gyjj164GuZFIAAznLkGYA8gYEOAfDPkwwLMgAAIgAAIyJYAzFCESJ34ImZr/WsTc2y08I7IVC+VN/Ftl2ADYYY2MT3egsDMCcAMDbKNk9BwEAABEJAPAZihBCN7z6rSnKDI9SlcD1LLa0Py/JTAMM9qBUm1hRnOXAOwBxCwIQAzhBmCAAiAAAiQTwBmSJISiNwWjUqzLDqtKbVgQ2r+Buvr6oR5gT4Yg1Ql8rEQFgcztInp8RYEZk4AZkh+PCSfnABaCgIgAAITEYAZCkNqzDtOIFjrvyYxe0NKPqOFTM6QmUojUtRKjEHqTi2cpVDBDGeuAdgDCNgQgBnCDEEABEAABMgnADN03IWwJkdAoVDNnR21IWV+U2o+PzWm5CUHhAKRFAjADG1ierwFgZkTgBmSHw9NdAUdy0EABEBAPgRghlII5T2oDj5qTVlMOi+E3MyqhCyDRudBrSC7qjDDmWsA9gACNgRghjBDEAABEAAB8gnADMmWBOe2LsIvcF1yro0WLolK8cYYpAo39yAVHmiYoU1Mj7cgMHMCMEPy4yH55ATQUhAAARCYiADMUBhSY34iAgqFKjs4ekPq/CbB1JiSl4oxSKXkhNzhgxnOXAOwBxCwIQAzhBmCAAiAAAiQTwBmOJELYTlPQOflc0dkstAJm1Lnr0qYizFIeUSSmoEZ2sT0eAsCMycAMyQ/HproCjqWgwAIgIB8CMAMJRXTS7AySYaQ+uQcGy0sCo/HGKQSPFhclWCGM9cA7AEEbAjADGGGIAACIAAC5BOAGUo2vnd7xTRq7zui2FRhGtOJdCP72pCSE+sf5Pa6oQKTEIAZ2sT0eAsCMycAMyQ/HpJPTgAtBQEQAIGJCMAMJ4mw5fxRlN64NmleU2qeYJq/Ijbdz1srZywe0XaY4cw1AHsAARsCMEOYIQiAAAiAAPkEYIYeEeuLWUm1yqsoPH5j2vyNaXn8a1Nq3rzgKIVCLWZNUNb0CMAMbWJ6Yt/WNFJj/nqpPa1UQ/KM2lu2nOraSm2roRq5nbdTZcrRHXax5TUJluR60HwBtYeiqB6qcSG1bSvV1TimabdrCMyQ/HhooivoWA4CIAAC8iEAM5xe8E3qViG+/jWJc5tS8xgtZF+bUvNWJ2YGafWkNpm8dsEMR03mduG+Z6/JmWFvK7Wpkpm2cd7WTdVMamtNrYzeda201/YEqstEUb3UpmSK186u8tE1p2+GViubvG6uPV6COmxqZyBsu3O0abcrGmYIMwQBEAABECCfAMyQPDGYXouUSnVeSHRTai6bKmTNkMkZ5hWFx6mUXtPbJ7ZyCwGYoePhvmevycnbnkZrK4Kobb2M8LTNty6xp4iTmGFVHbP5rjpmc94MKRPVlGDZITFmmJtF7WL8mKqyh8ieJcIMyY+H5JMTQEtBAARAYCICMEO3xO5SKzRAo6uOnyNwQsYP1yXPi9IHSq2qqM9tCcAMJ/Mie0G/p65va4ZKqq1n1AwXzqHaOqle1hV7e6htldRCJcWpHbMS+9dWMKbt3OabWA8cNUOK6t3MbJtr3ZzrTWp3/5x27mlk1w+y1KebTdBZy6So1jGFMlXqobZ1Mp8zlhtEbdpqqTbVS+1qplYFMevbNnYlu79WKped2bOV6uq2lLCnc7RL7apKag9LgOqlurdSzGyPJafKpQ1tCEx8esAMYYYgAAIgAALkE4AZ3jbOJnsFhUKVGRSxYVyqcHlMio9aQ3bbSW0dzHCMeEwc63v8ajayVFXJmg/Xm5TrF0pRXTXUmlKqizXGrpVUXSXVwdrhro1MB9QaazKQoTSXTaN1UstYCbTsvJnqZs2qo4TBNZoznGD/udblbYWjLldRSG2qY+u2m2qppDaVjiFvkVUT1bGaWl9IbWYVsXc7tbmS6tjOyh57r6NNYzkhZCSTU0RW+VoqLS2l2plW1NSzm7N73ryBrYDADJetZj7dtWZMZSY+W+RihoFB4aERCZGxqdFx6ZhAAARAAARcRyAyNjU0IiEwKHyi9J1blsMMSdUDR9rl561dGZe2MS1XOK1PzUkNDHVkc6wjTQIwQwdjfY9fjZMlS6aM+6ebashi2rVyDas9bL9Qxna4zpNsumzC3qR3Mpv0brRg4U2sjDUoajdVFzRqhpPsf1k562Amq6ayGb9cwT1+NvbFmSFnnrkl7FbWtF6uNQvasXDUMy2bj80ZUr3Ueq6gBIrLHW5OsPatteZFLbj4nXNlbXbwNCDfDAOMYdFx6ZGxabNDog3GUH1AMCYQAAEQAAHXETAYQ2eHREfGpkXHpQcYw9zigeMLhRlKM7gXoVapgSGNqdmbWC3kXyvi0/XeviKUjiJcRwBm6GCs7/GrcarDj0DT0mxRsqZkitO/MdLIvmlSWj6yMwIN1y3Tetcib4a5Skseb0+jRbr4ndjdf66Saths+aSt0Ar5dmbI9VBdxWb5Ru+ctHYi3bXmdmYo6KFq6VJbYxmJdHTMm8KxS7gqCTa0Udaxbwk3w6CQqNjEzMCgiPFRApaAAAiAAAi4lEBgUERsYmZQSJRLS3Fw5zBD1wXokt2zj1qzPCaZs0FBtjAnJzgSz6WQ7FFzvGIwQ6uNODq4iKeuL5Q3TmMamhkl27WGatrKzHSvplbOHTOVTssMLSlHqwgyZjjx/nmTZEZ44cc1nZkZ7qmHGbrw5pbA2eGxCZn6gNkOxg1YDQRAAARAwLkE9AGzYxMyA2e7v2cpzNDxgJuMNaP0gWuS5m5KzxVOa5IyQ3zxXAoVGYcYZuippjc2SXX7VkxkhnvqKe4mut5my8gxuQXUrt1UbytVPokZjs2h2ezccs8eK4dNysn2X8V2ZO3dzibo+HFNHTPDSXqTLqxky261tIhz4NH7DAWpP0vOsOB2vUnH5khvB5/knGFM/BzpdGRybrCFvYEACICApxAIMIbFxM9xe21hhmTIgCOt8FZ7L4qI35SWsyk9R/i6MDzOS4XnUhCihbMUKpjh7Z3qdhrgGXvg5M22NylFtWQxI3xuM7Fpw7rREWi6K5l2cV09e9vHjUCjZFVqN1UnHIHG2rmUueXPOvgn0/Nzov1zNzSaqIYgS5avt5V9oDw3vA1FbVttfwQarjdprpJqYe87HDMCTSe7B+sNhLs2UJZ+sxQ7zCl/w6E1Rcyb4eQj0NRtZPg4/EhDYs0wKCQqPCrJ7bEIKgACIAACIBAeleT2PqUwQ0ecioB1Iv0C1iXPZZxQMDWkzIvxNxLQOjRBSABm6BleN3M75cyQTaWxL73Unu3UJv5hhslUSyvVy/oh/9QKptACqnu3ZSObZzasZ+8P3LacAWiTM8xVUgu5+/QoymJx4/cfZLFHXrc4meTuaWxgTYwpWJDfGzPeKad2Y59asWer5akVuUqqbAnVzQ6yyjyCYjObk+THJhXskzfDXCW1pkbw1Io69j5JbgQa7tmP/Lg1Vquc+KAQa4aR0akBEhsZD9EhCIAACMiTQEBQeGR0qnvbDjMUhtREznupvBZGxAqFkJtfHpOs9fIhsskybxTMUC5mOLHGTJfAQnYMmyk8/326Bd3exFy7Z67Lq3Com9vBJNYMYxPn6vRG9wYiKB0EQAAEQECrM+j0xtjEue5FATMk2yJCdf51yZk2Wrg+dV5qYAjZDZdz62CGrpWK2ymEZ5duGVqmxnqDorsVzhW0F+ayT25ku7w6vH9izTA+eZ57oxCUDgIgAAIgwBNw+3cyzJBUhVArvRaEx2xKz2a1MJudYebL41L8vJEqJOeuwvEnMMzQs93MYVdBM8UkADN04eCofEiEGRAAARCQOQGY4fi4FktmTiDEV782aU4zc0thNv+6IW1euhGPsCfZCbkzB2YopjCgLJkQgBnCDEEABEAABFxOAGY4cwvCHoQElEp1QViUNUPIpAqbmbRh9sq4FL23Vrgm5kklADOUiaugmWISgBm6PB6SeaIAzQcBEAABrc4AMyQ1OndLu2b76muTMpozsoVTU/q8OUGhCgX5uTK3MJdgoTBDMYUBZcmEAMwQZggCIAACIOByAjBDCQbWnlglpVKdFxq5KX1eM5sk5F8r41P9NUgVysuKYYYycRU0U0wCMEOXx0NIF4AACIAACMAMPVHDpFbnIK1fTWK6ME/YnJHdlDZv7uwwpAqldrBEqA/MUExhQFkyIQAzhBmCAAiAAAi4nADMUIRAmeAilEp1TkjExvSs5ox5wqkqITXAx5fghqNpkxCAGcrEVdBMMQnADF0eDyFXAAIgAAIgADOcJMDFR5MTSA8KaUzNFAohN58VHDb5hviUbAIwQzGFAWXJhADMEGYIAiAAAiDgcgIwQ7JjdBe1LsDHd2V88ngnXJWQavTRuahQ7NZTCMAMZeIqaKaYBGCGLo+HkCsAARAAARCAGXpKtC2ReqqU6ly2++hmtvso/7opPSs3JEKpVEuknqiGGwnADMUUBpQlEwIwQ5ghCIAACICAywnADN0YQHtc0WE6/9rkNNYGs4SvqxPTgrRIFcprANJJzl6YoUxcBc0UkwDM0OXxEHIFIAACIAACMMNJAlx8xBPwVnstiozZPGfe5ows4evGjKys4DCkCnlQmJmlUMEMxRQGlCUTAjBDmCEIgAAIgIDLCcAMEcrflkBigLEhdQ7jhGOnFXFJejyrUIFUoS0BmKFMXAXNFJMAzNDl8RByBSAAAiAAAjDD23qRnFfw8/Ypj0vcPCfLZmpMnZMUGCRnMmj7JARghmIKA8qSCQGYIcwQBEAABEDA5QRghpMEuHL+SKFQZc4O3ZieaeOEm+dkLY6K0ai95QwHbZ+cAMxQJq6CZopJAGboUDxUVl7R13eWFvwNDA6+//4H2bn5rksFHDhwkKbpr776KjMrx6aUST6yWZN7e/ToMUHdmdnr16939+y2u/L2ru6LFy99+eVxl7bObtFYCAIgQCoBmOHkMa48Pw3S6lYlpYx3wrqU9Ai9vzyZoNWOEyDQDOcpd+UqxdQAlAUCNgRghlMzw5s3b/b391+/ft1sNtM0ffjwZ8GhkS6K5CbRv0k+slsZzgwHBgf7rX/ffPPN9q5uuys/8eRTIyMjly5dbm3rtLsCFoIACIDAVAnADB3vEwD3AAAgAElEQVSPd+WwplrpVRAe0Zwxd/OcMVNzRub80AgVHkqBuwodIECgGSYp62GGIOBWAjDDqZnhK6++xsVDL7708q1bt65fvz6RX001bBq//iT6N8lH4/ej1Rk4M/z40CG7n9osDA6N/JcHv9ezy2SzHG9BAATII5CSNqd581YR2gUzlIPvOdjGKL1hXUr6ljlzbabqxORAH18Hd4LVQIBAMzQqMt1qBTbpI7yVIQGY4TTNsLWt89q1a8PDw+/8/t3+/v4bN268997+GzdufPXVVwULFj71s6e/vXDBzP6dP3/+/gce5PujvvnmW1wQ9uxzvzKbzefPn7/n3u/u339gYGCApumRkZE///mTktKlWp2B07///d8zhz87MjIyYjabjx8/Ubu2nv+I62gaHBr54ksvX7161Ww2j4yM/PVvf1tWtsImzrNrhsGhkU/97OmLFy9x9Tx79mzXjp1aneGZZ5+jaZqp9v0P9vWdHR4efu+9/ZcuXT5//vwf/rCfpunTp//JV+nU6dN8WNm8eevx4yeGh4dpmr569epTP3uaq4apl/rHqVPDw8Nms/nbCxee+tnTwaGR2bn5b//uHa7aA4ODn376l4rKVTbVxlsQAAGXElhWtoLrZ/7gQw+7tCCtzgAzRBw/S6HyUXsXRURtZp1Q+LoxfU5GUDAQgcCUCBBohrMUqgRlDeQQBNxHAGY4TTPs7tl9/fr1oaGh3779u/7+fpqmzWbzjRs3jnz++RtvvMmJ3I0bN27evEnT9NDQ0OM/eeLt373D3zcYHBp5+LMjNE0fPPj+x4f+TNN0f3//0aPHuF0dOHCQ1z+apoeHh69duzYyMkLT9DfffFNVXSPMGT7//IsjIyMDAwNHjx67ePESTdN9fWfLyiuEcZ5dM/zRoz8eGhoaHh4+efLk119/bTabuQ1tzJALHG/evPmPU6fefe8P3NuRkRG+Sv84daqwaFFVdc2ZM31ms/nrr78+efIk54HPPvertesaLly4ODIycujQn9/5/btcR9xnn/vV66+/yYnif/36N8ePn+BLF1Yb8yAAAq4jwGnhr/Y9n5qWSdO0q+UQZjilkJe8lRUKVXpQ8Ib0DEueMJNNGLKvy2Ljfb015DUZLXI1ATLNcJZCDTl0nxfJMElo02SY4XTMMDs3/4M/fkjT9OXLV5597leczn3wxw8Tk9Oqqmu++eYbs9n8u3d+n5iclpicdogVv3+cOvWzp/9tYGCAG/qlobHp4sVLg4NDr7zy2ld///ulS5f/9cePa3WGJ5/62fDwMGdonP5dvnyF69j5w0d+xOUVn3n2Od4M2zu2ffPNN7du3XrxpZe1OsO6+vXnv/321q1bT//bL4QBJWeGnNRxr6+8+tp77+3v7+9///0PgkMjuQ0HB4ce/v4Px5vh0aPHuDQm99Hg4BC3/8d/8sTQ0NCNGzd27+n9z5dfMZvNZ8+eraqu0eoMv/7N61x28dnn9g0ODl25coXrdnv3Pfe98MJLjzzyKFel/fsPJCanlZQu/fdfPvPcr/ZxGVFhzTEPAiDgCgK8FnI7F0EOYYaujpKlvP/Zvn6rkpK3zMm0mepT0+IMAVKuOeomZQKkmiHz3EajIjNJWY8BaaCIohOAGU7NDIVyNTIy8uvfvN7R2dXf3z88PPzY4z/V6gx333PfzZs3OVniQq4f/PBHg4ND/f39Dz38/dOn/0nT9L59Lzz2+E+Hh4d5jyorr3jiyadeeOGlAwcODg8Pnz9/vqa2jtO/P//5E26Qm+DQyC+/PE7T9Id/+og3w3997PGbN28ODg698/t3X3jhpRdeeOnsWWYM1Q//9JEwmuQ0TDgCzb59L2h1huzc/Hvvu/+FF1569bX/unTpMteK8WbI313Jf1RTW6fVGZq3tPBtP3z4M5qmT50+zVWDa8j169d/8e//ceHCRT7TePnylV//5vXs3HwuZ8gtv3nz5smTJ3f27BHWGfMgAAIuImCjhVwprpZDmKGUI2zX1U2j9l4YGcUIYebYaU5mUUSkt8rLdUVjz8QTINkMiT94aKBHEVDPUqgVShUzjRkbiluuVii5SWWZYVbmJi+FcnRyUUzj4G6dG4XwdwlyY5P29/cfP37i6ad/npicJrSjSczw8uUrHZ3buQ6lR48e+/jQIa4raVxCynvv7edGOuW1U2iGn3zy31yT7Zrh0//288HBIX5DfsZmsBm7vUm//4NHuM6u/FYzMcPxaUn+2RgVlavee2//txcuDAwOcmUdOHAwODTykUcePX78BD/Q69WrV7e2tDt4fLEaCIDA9AjY1UJuV5wc7ti5a3p7nnwr534nT16W3U/jk+fZTMIfLHae/SEb/UWz/sYx42RyE3Mpf5aC+WXkfiJtlnvUD72lLS6tc6oxaH1aukULOTlkX1clJQVpdS4tGjuXAwGYoRj/jeVwJqGNtyMAM7RNJPJmyGfP+MjDxgy53qQ0Tf/und8Hh0byvUn//o9/lJQuvfe7DwwMDHApxMHBoUceeZTLMQ4MDDzyyKPBoZFcLlFohtevX+d6k1J333v9+vXh4eFf/sezfM7wnnu/e/Xq1YGBgfsfeFCrMwSHRj76r4+98MJLNoo13gyLF5WeOn2apun33tufnZtfU1t3/vz5mZghV6Ujn3/OZTgbGpt+te/5J5586qdPPHXk88/ffPMtbjnXy/R///d/P/ro48OHP+PyhFxfVj7vyrPFDAiAgNMJpKZlTnJLYWpa5tp1DU4vFCPQ3O5nl7QAj3lQYWKSTZ5wa2ZmY1p6ijFIbjTQXhcRgBmS9sXhohMFu50xAZjh9M1QqzNwQ8LQNH2T/aNpemBg4Omnf67VGUpKl3IdSmma5rqS7ujuuXbtmtls/uKLo++//8HVq1dv3bplNpuPfP75Rx99TNP0rVu3hMO9nDnTJxyBpmDBwv37D5jN5sHBoRMnLAPJXLlyZY9przC2G2+GmVk5x4+foGn62wsX3v7dO319Z7kRbi5cuPinP30kHJuUpmnehyfpTbq9q/vy5SvcoDJHjx4bGBgwm80f/PHD+777wKVLl7kGvv76m9xQqO+9t5/LlPb397/55luHD3+GJygKjxfmQYA8AsgZzvin2TOCQG+1V1FE5OY5c1gtHH3dPGdOYXiEF7qPjumK5RnHVLKnLswQJxAIiEMAZjgjM+SeBsE9tWJkZOTs2bNcPpAL9d5667d8j0puyU+feOrbCxdu3bp19erV3/zmjcOHPzObzV999RU3dM3//M+nn376lxH27/BnR5q3tPDDlnJPrUhMTnv5lf/H3psHtZHmed5/owOELIHQBYhb3AghxGUuA+Y0N8gGI4OMAAkEFiBjQdqustvu7uqu6ipPVWy87zuz0zPdPbM7x877zvQb8e5OvNvdc/VG7Lxz9VE9PbNdu1MV9U5Ed09U9WxVl8N+38wnMyUkgbFIdPElMuxEmfnkk58Uyt9Hv+f4PTL9AxlodP/gbkhYGW6GdC9BbpKJTz799K/++m9+53d/77PPPvvFL37x3f9Cj5X6z9ysFSc0Q7lCtb6xRWatePbsGbkWMm7N+sbW333ve598+umzZ89++tOf/f5/+IOevoGKqtrf+u1/T0Txk08//f73fxBe7ZCrwK8gAALJSwBmmLDhtYAVq1RrbtTVrpnNa+Z65l8zWZ8oL1dlygU8EYoCgTSRBGYYGyvAWUAAZhhqhskbjaHmIAACIJAIBGCGqR3K52TKJ8rLGSGsXzPXr9JmSC8LNTVGjD6KPOHZEIAZwlhAIDYEYIYwQxAAARAAASEJwAxT1QylkvR2QwGvgrwcOutNLXn5Enr8ntiELjjLuSMAMzx3txyfJnEiADMUMh5KhG/rUQcQAAEQiC8BmGGcHuhnGDpmSNPLc9Q3amt4G+RXhstKszIyU++ScUUJRQBmeIZ/3gl1p1GZeBOAGcIMQQAEQAAEhCQAM4z3k13IGFIkktRqtYt0l8L6tQam4Sj373xNlUGZlUoXi2tJWAIwQyH/qhP2NqNiCUAAZihkPBTf7+lxdhAAARBIBAIwwwR4uAsTRuYrs2xVFWtm01qDKfjf5fq6Br0+ZS4TF5L4BGCGwvxJJ/6dRg3jTQBmCDMEARAAARAQkgDMMN5PdgFiSGVG5mBJyVqDydVAa2Hwv33FRZnSjBS4RlxCEhGAGQrwV51E9xtVjR8BmKGQ8VAifFuPOoAACIBAfAnADOP3TBcgepSIpa35eXSSMGy5WlWRp1Am9dWh8klKAGYowN92kt57VDu2BGCGMEMQAAEQAAEhCcAMY/scFzJirFSrb9RWu5gkYfC/9trqSrU6ea8LNU92AjBDIf/Ok/3dgPqfJQGYoZDxUHy/p8fZQQAEQCARCMAMz/KpfVbxofbChZnKcsYG64L/ddbXNuXmYkaKZLynqVRnmOFZ/eWn0rsE1yIEAZghzBAEQAAEQEBIAjBDIZ7OsYsD5emyvuIiVwMRQhO3UrfWUNdTVJCZji6FsbsXyfXOiWVtYYZ4F4JAbAjADIWMhxLh23rUAQRAAATiSwBmGMuI+TTnkoiljbl6Z30NY4N1wf9OVpSp5fLTFI5jQUBAAjDD2FgBzgICMEOYIQiAAAiAgJAEYIYCBsRnV1SZSrVQW0nboIVxQu7fuZqKkuzsszsvSgaBKAjADGEsIBAbAjBDIeOh+H5Pj7ODAAiAQCIQgBlGEfjG8hB1pnyyoiw4Q0jWHaZqk04rEktjWRmcCwROQgBmGBsrwFlAAGYIMwQBEAABEBCSAMzwJJFuXPa5kC7rLiq4WV/tttCpwuB/LxryMqTpcakVTgoCLyQAM4SxgEBsCMAMhYyHEuHbetQBBEAABOJLAGb4wjA39jtkSNMvGvJcDbUuC7dw64OlRVkZmbGvEs4IAicnADOMjRXgLCAAM4QZggAIgAAICEkAZnjyeDcGezLDzOiYPGGt23JosVUb9QpFDOqAU4DAKQnADGEsIBAbAjBDIeOh+H5Pj7ODAAiAQCIQgBmeMggW8PAarXrJVBUihG5L7UJtRaU6R8AToSgQOFMCMMPYWAHOAgIwQ5ghCIAACICAkARghmcaIp+wcGOOar6mItwJHaYqk04rxjAzIkSAyUQAZphMd+uEH1LYLSEJwAyFjIcS4dt61AEEQAAE4ksAZhjfx71BqZytKnNbakIWp7mqKU8vlWDoUcTYyUcAZph89yy+n4M4e7QEYIYwQxAAARAAASEJwAyjfSKfNvbTyuVj5cUhQui21Kw11HQW5skw9CjyhElLAGZ42k+HeH0q4bzJRgBmKGQ8FN/v6XF2EAABEEgEAjDD2EcC2bLMgdLCcCd0WWr6igsUGbLYVwlnBAEBCaS4GYrE0nTZBblCpcjSKLO1WEAg5gQ0ymyNIkujyNIqsoLfgRol/SJ5nd6H+1XNvKhRKNWKLLIwuynV9CtKdXxjkbhHIfG9fJwdBEAABBKKQNw/k41VjSGLSJx+eJGKxFKRiPlXLBWJJfSvzJImor8w5SNakUjCbJWEvM7vEPcVeXpGd1G+y1LtbqxZ5xayPmIsysmUx72GqAAInJ5AKptheoZckaXNyFRKpLI09ABO2rz26d/liVECcoahOcPisjosIAACIHDeCAjoljDD2Dzf0yXpZr1mtaGaThU21rgZOSTrk5UlmI4iNncBZ4kNgZQ1w4xMpVyhEksyYsMRZwGBFxGAGYaaYVaOHgsIgAAInDcCMMMkyhlKJVJrnm65vpJPEvIr12rKSrKzXvToR5clEEgyAqlphukZcrlChT9XEEgkAjDDUDMUMDxCUSAAAiBwDgkgZ3h2T3mpWNqYq71JO2F1yGKvK69UI8hMMuE5u7dKipWcgmYoEksVWVpkC1PsnZr8lwMzhBmCAAiAAAgISQBmeBaxgUQsbdBrbtZXhAjhemP1zfqKer0GUxSeBXaUmSAEUtAM02UXMjKVCcIX1QABjgDMUMh46BwmB3DJIAACIBBCAGbIPWGFyV9JxFKzXuOoLw93wmVzZVOeTopBKzBoRaoTSEEzlCtU9JAzqX7ncIHJRgBmCDMEARAAARAQkgDMUKhIQCyWmHTqJVMEJ1xtqGwz6DMwRSHi6vNBIAXNUJGlwUikQn1WohzhCMAMhYyHQr44x68gAAIgcA4JwAxP/4wWi6V1OvUi7YRVIcuapbKzMDcTTng+jOj076XUKCEFzVCZrU2Ne4OrSC0CMEOYIQiAAAiAgJAEYIaniRNEYkmNNueGybjRWLVh5RZm3WWp7CnOv5CO8e2FaaZ7mtuEY2NMAGaINz0IxIYAzFDIeOgcJgdwySAAAiAQQgBmGF3QLBJJqjSqhbqy9caqjaBUIbNe2V9iyJKhU1JsQiOcJeEIwAwT7pZE9zGHoxKeAMwQZggCIAACICAkAZhhFI/+ao3KXlcWSBLy2UJr1WCZQZWZGUWZOAQEUoYAzBBmCAKxIQAzFDIeCvniHL+CAAiAwDkkADM8eTguEUvqdDl2E++ElUFyWDlWXqiRy09eGvYEgVQlADOMjRXgLCAAM4QZggAIgAAICEkAZniS6FwillpyNY56Y5AKcr0KrVXTVcW5igsnKQf7gMB5IAAzhLGAQGwIwAyFjIfOYXIAlwwCIAACIQRghsdH6hnS9KY87bK5fMNaGb7MVhcXZmH669iEQDhL0hCAGSbNrTr+4w9bE54AzBBmCAIgAAIgICQBmOFRj/5MafrFAt2apSJcCDeslVdrSkpUWUcdi9dB4DwTgBnCDEEgNgRghkLGQyFfnONXEAABEDiHBGCG4RG8IiOju0jvaozshBMVhQVZivCj8AoIgAAhADOMjRXgLCAAM4QZggAIgAAICEkAZhgczWfJZH0leeuNFR5rpaepMvjfDWvlFWOB/gLGmEEwBgIvIAAzfAGg4A8drIPAMQQyMy8UFZe0trb29vY2t7QUFhbLMoMfQjBDIeOhc5gcwCWDAAiAQAgBmCF5KKvlmYNl+evWig1rhefwv+vWioHSfMxFcUz0gk0gEEwAZhjBDDMyMMNpBCzB7xusBxOQZV5obLT2RfqpN5szZMQPYYYwQxAAARAAASEJwAz1CvlouWGjqcITtritFT3FuUpZRvDzGusgAALHE4AZhiqQLD197sqlzEPZnsP7qFsml70+P0X/7Pt9WyuTLYbjKfNbVQMrforyLw+oRIfLZH8dc9GFukcjb414SMiLR5cw7mbKHuMrgxVBCGi1+khKyL7Wy/yocjRpIpihkPFQyBfn+BUEQAAEziGB82yGpSrlVFVhuBB6mirWLMaOQp08HU4YEiLiVxB4MQGYYSijnorCuSuXbJMDR2hD5eQGbVh+78rchM3u9tG/UN65htByIh6evGY4ynila/xElxnx2l/yxXY7g9YzYzx8oMY0YPcQ6hTlc9uaDHyVNE0TK6yy7/t9m/b+Sn7TWa3IMi+Ea+Ek8zMyMtLX10fMsLe3Nz1DniaSisQSeuHMP324QWdv0k3kicVSEbtkyEYt2qsWVZeSfqVQpxipU0+bNdP16tHKC3WZ8Q194h6FxPfycXYQAAEQSCgCcf9MNlY1hiwicfrhhXm60Y8/ski4FfrbUmZhH9AiEfN8FEtCXj8cA0iYCetVC3UlEZ1wxWJsNWgzpNKQo/ArCIDACQnADA85gyEne6PLNHfl0v72cqEhLwJE87yXoqi9lX41OVDT46Czh35HX4SdOQE48aajM34nLeroEk6XM0wQMywfd5NkLeX3+/cZK99z9DD3ou068UW/1+327jGbKM+k8dD9PfGNOOlR4Y1IR0ZGDg4Odnd3iTHyZlhnqg83wzR9bra9SbfQoDRzT83qIvU1i3a2ND1DKspRK6fN2hlTVqde1lSYNV6vmaqLb1AS9ygkvpePs4MACIBAQhGI+2dyiBYaqxoPa2E664FCmKFMmt6Sr1luKPM0lYcvN82ljXlqqQROeNIARvCICAWmBgGYYeBPSCyWbvY382botk9Kw5sitDCprP2VYdYMJWmGSpPZbKocZDb47G1MgWpiaJ5ZYibEJ332a+xO7WkiQ6fNHWiSyia4yFFe55LXR7TH57FfriRvNZVpwL7pIzrk93mdEy10k1TG93wbK0wazWdv40pYZvek9ryOETO/J+UeSxOF2CPJzvnsbWTF67R72LP7fS76LGR/4loURXHXeFJZDRB+ib8Z9YiTIXAoZ8i/aGOu3dDlYGTQZ29PEw2w+08wuNQtdtrgKWZTVBU4wdVlRkoYLi0tHRwcLC4uhphhb29fenpmSM4wTSSR9NbrFqz6qXwJ/X2qPHPcor1myb54QSSSStqqtLPmnEvZ7IO2ojBnqj6+QUnco5D4Xj7ODgIgAAIJRSDun8mxMUNVZmZPSa6r0cjkCcsP/1u+WF9Sp1O9RIBxguc7SgOBc0sAZhjQho6a0mAzvLN+vbvJFPbOYFs5Uvs+z9L85FBXdamG7NPGWJ/3mpn+dWCFiJRrnN5aMuMhlkL28dnbVUP0Dv6N+Z6Wlp55D50H885beAfb97nmp+bWSBKMSXwZx1z0Tj6Xra+z1+ait/hd45XEDOlfthyzEyNtRt7i6BIm50lrV79r1Mju+WIzpAvzLNlml5haUX5Hl7VnYsrBiJbXMTVJnyUALYzPqTcRRpyHHjJDQnVvZZirAAFLuyoxdopTcZGELcY7b6mc8hDJnKIbpqrIDfR7ZpvYGxf1JRQVl4Q3Jd3c3Dw4OJicnAw3w7y8gnAzTJOplXNW/YJF2SAVmUs1cxbtdHG6TCoSSWUDZu2sWdnAt8zRKGGGCnRWBAEQAAEQYAmkvBnmKy9cKc9ftxo3mso3wlKFturCcnUW30Ej6qc5DgQBEOAJwAxZk1Epld6xroAZ7izfWb9+e3lGlZXFwyIrKtOIc4cTF+Z//+Z8m1qSRtqVbtpKRBKySm9cGUgTaZimmH5HF6srPns7q5E2kg80to1MTU708WboHCLSYiR9Gj0TGtM12sy881a2Mg1Mo1afvY20EeVaVHL5QMo1znbPKyE7eOdNgdakx+cMA2fpXAo0lI1da9KWec+e37/HNhoNNkMCgWIIsxxY/3OPkqxsUIdP7hbQw/lwbVA9k5WcF84wWcfTfXHY2toaYoYjIyMURe3u7l67di3cDBsaLBHMUCQVt1XpF6y6mfKsGYtuzpLVLKOb34ik6T112llzdmsmmzPMz8uGGcIMQQAEQAAEOAKpaoYikdSYkzVbU7hhPdRwdLOpfJPxwyvl+fnKCyHhGX4FARA4PQGYIWuGrrFLt8Y6A2a4zZjhzWn7cGfkr6MMlU29Y3NLbMNL/1JXmqjPQXdvc4+qGf3Y89K93Xz2NtIGcs/RwyWy6CaOfGbM7/fveJz2MWYklRBnC5gkEbNDPkr/4h4N+B65EFKCZ5Jv7KqeovOVh/YMOQuRJb41aVBj0aDCY2eGrK2RWlHBZsgyi2CGnlljFwOf8q+NmdSSvBYbyRNSbBaxcpTrn8ikam1NPJ9TyGFvb2+IGa6trVEU5fF4IrYmbW/viGiGaSLFBZtVd71RN2/RTRcwzUppMxTVlahnzdopoyw/Q3RBkdlfp4EZcvFQQjXoQmVAAARAIC4EUs8MpRJpvU69YCpxW40bVuO61ehpMm40sf+6rWWXivXZMkwtdur2WacIfk7vHighkQnADOm/ruba8u3Z/kM5Q2KGyzO716/UlhQEbmGXzbXmdtm6+FdUl+mJKGgDFEn6mTakzikmobcywPzqnZtiGo4yQ9QQtyGd31Smvkn7isvNTYCx5+gM7QEYZIa0cVCeGTPdpzGwVOYFyRtTpVQ2wyNzhvvuUSOfGOT02etlGuNy7UsrSXNcuqns6duRkrvf0nIoZ7i0tOTz0efktTB4bNLe3j6TyRxuhhmjTXQ/wwXODOfofobaQS1thuKM9K5qzYxZy4xNqpmqyRqqiUvwwZ807lEIXxOsgAAIgAAIxP0zWcB+hhcyMtoKtMsNpW5aCMuZFqSsE3qajDfNJU35Gpk0nY++sAICIHAWBGCGkszMzN2Fse3Zfj5neHOofX/7Jt2a9Ob07vUr29N9sgxuVhx2KFJ+bFIJ6THINnFkOsKRlpDOAba3YeDXoJxh58yKa80xys51YZzdJHIZks0LmCHpUBeYCLFt3rvn97unqiObYVhr0k0b26yU7mfIJwmZ75wqbexYLewINImbM2R7b+6vDHPfdQX6GTKvsLK9tmKfGWlqIqPIOjrJzqT9La2NQRfIlRPdn1ZhYXFwzpA0JaUoKvhFfmzS3t6+3Nz8cDMUaTPFhkyJITebzhlWyPJl4vxMsSaDMUN6wFKxRplh0clqlOIL6Rl9GIEG/YtAAARAAARYAqlhhhp5Zl9p7mpjmdtqpJdGOlW4bi3baKLThnN1RdXabLEYg44iTwgCsSAAM5QMdzf77GM7TM5w9mK9s79la/jicrflWk/zbSZnuD1zebKljpMH6+Qm0wXO73XOT83a3cwwnswQLyJJGjd4JtOmVJLGjlBKUfsr/YyE8DlD1tN2VkY7zU1Ddq+fovwr/ez+gZnu+f3T1ANOptOfZ54fgYbyTHAj0NC+R94uxC1p/wkegcY5oAkagUZCOhBSPvfcDD834Atak5J0qH/DfuYj0LAXEtyaVGPqGZscasnj8HpJ/0zSapcZgJQbQNXvGjEwKAydS8woPcsDJXSB7Xama6iPjAZLp2cF+OuSZcqDJXBpaYnkK3eDfoLNUJouCzdDaUe5crg8a6RaTZuhSTVYphwwKtuyRSKpuLlcO2vW9Oaw/Qy1+iy0JkVrUhAAARAAAY5AUpuhSCwtzckarzSsNZa5rGVuaxkjhLQcEjMcrzQUZSu48EaApzaKAgEQeCGB826GRQX5t52zuwuj1/svLg130m1KJ3tujXZuDbdt9jcttNXOdTVuT/fdutJRkJPN0lSb++e5CScoyr/jnhtgpoWgZYcTl1QAACAASURBVIMMNkNR7jF6oggRSQZS1MoI82sgB5gm0jRNHCpkkh4q88icIX3qyoE5t89PtPTwrBXMXBRBZuhz29lxTSlqz2Mn1QvOLqpbJte4CTB2VpxbJJN2OJfITYnBFt5m87CTBAqWczv23RlkhuzoMpRrPKjJKD+f4Y6DmdFew/ZCpPsR+gklyu+ZZLKy7FSHW/NNBrZYpl+oAI8Zc0MDL4dLS0ubzI+H+1ldXeXNsKamLsJ8hiLJca1J2fkM63P68uj5DMcwnyESBSAAAiAAAgECSWqGGdJ0c27OtdqiFUvZamPpWmPpGmOGjByWrVnK+kpzc+SZxwYJAjzBUT4IgEA4gXNthhJput9jvzkzeGPism9p0rcwtjM3TCcPJ3tujRE5bPb0WK5aKxfaTUsd9VIJGrjH7LM4yAzV7fTkhGz/QI1pgMtz7vt9a7YeEz/5RGXA2Pf9Prd9mJmXgp2mYp/tXsj+SvkdPfyB0V9UhuxQ2pC3RH6FN0NpemZEM0wTSZnXdVl0zrA8Qyw5NC9wrloxUqdm+hmqR43y6sz49quJexQS38vH2UEABEAgoQjE/TP5ZfsZZmfKOop0S+ZiZ2Op01K60siYobWU5AxvNpS0FWjk9FTSaDsafWQSHuvjFRA4OYFzbYYzEwN228idjYW9tbnbzlnf0uTuwujO3PDhzCEthxudpun60uHqopOTxZ7nhECOWsN7YPgKMcPs7BzOACV0g9JDbVmJGdJdCpnlsBnSL/LzGdIr8Q1K4h6FxPfycXYQAAEQSCgCcf9MPrkZGrIUl8tyl8zFNxuKlxtKnI0ljBmWrjaWrFlLr9UW1uqyJRKpSCwhj8tzEkLgMkEg0QicazOUZcqZJVMm4xcZ/ZNBlgxZRoYsnSzpGenpUgm+xMKXWBEIpGdkmurrw7Wwr6+vpqZWmk7G1yYGCDMMtIMaGZ14//0P3n//g5HRCRJsffU3fvP58+df/Y3fPGHs5Vx1ffTRRz/4wQ9PuD92AwEQAIFUIpD4ZiiVSCu12eOVhkVz8ZK5xNFQfLOhZNlSstJYskLnDEuHy/MKmc6EIhHzfIQZHvruOELIkWgigfqkGIFzbYYpdi9xOfElkJ6RmZ9fYLE0dnZ21teb8/LyOSckn+www4ATksgMZphKESquBQRAIPYEEtkM5RkyS57aVltwo77oRn0xY4bFjBkWL1uKl8zF7YXaLFmgMyHMML4xDM4OAoQAzBDfx4BAbAjADF/CDK3NbX/8x//3v/7rvz5//vzjjz/+7X/3O/q8wqtzC++++6OnT58+e/bsww8/fPDwEckZ/vzn//Kzn/2c7Plr//arsQ/OcEYQAAEQiAuBxDRDzQV5Z5Huuql4ob7ITmshZ4YNdM7wam1BnU6VQc9MSD8W+XAcZsijwAoIxJEAzDA2VoCzgADM8CXM8H/71X/79OnTb3/7O7ar8z/84buffPLJ/Vcf/umf/fmnn/7yzbd+ZX1j6/9lft5661c++uijp0+ffutb3/7yl9/46U9/9vHHH2/v+OISouGkIAACIBBjAglohkPGvDlT4byp6LqpKMgMixbNxcPleSU5CjHbqZ5oIcwQ0REIJBYBmGFi3Y84fkmAU58xAZhhZDN8Hvbz1d/4zf+/oenN5VVrc5tcoeI7H/7VX/31L3/5yz/6o286V13XFxaXHM7be/6PPvrovff+e0/fgFyh+t3f+/1nz54hbRjj2BSnAwEQiBeBBDTDeVoLC68HmeFCfWFHkTZHnnlolDV65nqysGEYcoZnHIQg3AWBExGAGZ4IE/5cQeDUBGCGkc3www8/9N32O1ddzlXX7/+HPyAj0DhX1v7+73/89OlTXhu/+hu/6V7ffP/9D549e/b8+XOSJ6Tu3g8egYZ3yHhFaTgvCIAACMSSQAKbIS2HMzUF5lyVPD1DJAobfxtmiJFmQCAhCcAMYYYgEBsCMMPIZhhxbNK/+O53ScNRuUL19a//1vPnz7/xW799fWHx+sJincmyvrH14x//+H/+z//5u7/3+zDDWIahOBcIgEBCEUhYMxwqzzOqs5hZlxgnhBkmpAOc+ivv2IRPOEtMCcAMY4obf4TnmADM8CXM8K/+6q+JGS45nP/0T+8/f/78j/7om9/73vc//fSXv/prvz4yOvHDH7778ccff/0bvwUzTKg4FZUBARCIJYEENMOWAg3TcJSfiRdmiDgTBJKJAMwwme7WOdaqFLhNMMOXMEO+4egnn376wx+++7Of/fyjjz56+51/8zd/+7efffbZs2fPfvazn/8v/+uvhsxniNaksQxJcS4QAIG4E0hAM2TyhLwWpjN9C6VoTYr4DQSShQDMMAWUA5eQFARghqFmGPegChUAARAAgaQmADNMlmgb9QSBZCEAM0wKqUAlU4AAzBBmCAIgAAIgICQBmGGyRNuoJwgkCwGYYQooBy4hKQjADIWMh5L6a35UHgRAAAQEIQAzTJZoG/UEgWQhADNMCqlAJVOAAMwQZggCIAACICAkAZhhskTbqCcIJAsBmGEKKAcuISkIwAyFjIcE+bodhYAACIBAUhOAGSZLtI16gkCyEIAZhkqFSCypLM0S0XOwhm7CKyAQHQFZTnZuS62hq6Ggu0FrrpDrNSIJ/wYjxhg2C3Bg9qfgQd7S4xvExD0Kie/l4+wgAAIgkFAE4v6ZbKxqDFkwNml0cQKOAoEEIQAzPKR/cnmGZ8E4eTl3d6VZla1IkJuEaiQvAbleXTLUWkwvbcWDrSVD9FI82FI80CLLyWauC2aIXCIIgAAIgEA0BGCGyRseoOYgkJgEYIYBM2w05Xsdps0F42Sffvum2bfWbizRJ+ZtQ62SgkB2mYFVwUhmWDzQrMjXpYlghtHEQwn1tT0qAwIgAAJxIQAzTIpgAJUEgSQiADOkzVAikQ5eqtpdabm1ZPIuN/u2rm+vtO04rXvr3cN99ZJAwz9JmmjMRR3+8XmdEy0qIZqettl9FEX57O2BNxD3UtvR5XO7tKeNu+mauccChx99VMLv087AoDwzxpCq5nXZXDt+9h74PPbLldwOGtOA3UMjpH98bluTIaD93D6xe0WWk10y3Ha8GRb3N8t1mrRAw1GpSCwh8wJnXmnQ2szqS1mBljmyrAuj9XEJPviTxj0K4WuCFRAAARAAgbh/Joc0JTVWNQaeWWLSFYLpKxF4zLHPOKbPDv3FKP90FokkzBNQQr4w5V/HCgiAQCwJwAwlWk32wa2RvfVLu6sttzeGqT0XWW5vDPvW2vyey9T2mFZDGv7xZuh1TExNTkzNsibidw5oTn/bAo7HGx33EsyQ4FWxwkhRfr+f1UO/o4v2vfJxN/eC37/P2OGeo0cdOxUMeQPQWsiY4ZhjbtnjWva4b264bnrWbnrWHBurV27Yigeai/ubiy43M8/RsH6GVUVqm1k7W5lpYPsZihuNmimYIRKMIAACIAACLAGYYciTF7+CAAicksB5N8POtipqe2z/1vDeRr9/e47XQrJyx3ttb713f2uY2h6zmktFYt4M3aOcvJXbvLSFuMdOnzbkNBA5Q0maesTJ2N3hnKFmlEmLUhtTJlr5Kmc3GQNcGQnsb2Pyt4YuB5M8PJSA5W7ZKf9mTnK4XK/hzXB5001rrH//zh3/HeZnb2/P5rzBm6FMlU3yhMy/3PepIplsoF47a1b35tDqKMtRjNdrpuri+x35GUUh2Sp9rqGssLSmuKwOCwiAAAikEoHC0ppcQ1m2Sn8Wn95n9Jl88qoiZ3iSkAD7gEASETjXZjjUU+XfGqK2xw62p/d3HdTeWogZUnsu/+7y/q0Jxh5HR3oruNakATNM43yuLaQxJ/86aYDq8zg3ucaihpbJNR+b8vL7XPMD5Yy0cEccZYaktSSTGNv3+7ZWJpvoRGXgqJAKxFCEhHzHk+thjI+iQlqTtsxt+v17ftcE28SU3XfTVjKwQh+xtzJsZJOEJTMe+hWfva1yykMkc4o+is06+j2zDD0hax4EXGuu4M2wbvxS7filltlhYoa1Y930MtrFm6GqvCiSGUpFBbmqWbN2pkpuSJe0Vmqm6jUDZxJbvFQQcPKdT7hnbn5paUWDPr9UpcnLytFjAQEQAIFUIqDS5OmZT7nc/NITfiqefDeY4Rk9xFEsCJxbAufaDGcGC7xLpg1HD+VzULdvUred1O3VID8MiOLyXNuarXC4KzeCGRIn8c6bQsSMM7Y2vmui3+uYmRpuv2LfoSjK710a6+wcc2zRpuezt6uCHY93jEAhkpJRprWkzz3b29Vjc9OW6XePVqacGbbMe/Zo/SNueDhnGNI01DrH5Gv9S12ma8zapq0kBB1FOzzX0NQzWUlao/o9M8J0DT3qg6PgUgMxw7rxS70Lky2zQwP2Wd4Mm6cHL82N82aY314f2QzF0vRLtdoZs3rImDVRr5mquWBMtVkrcguMBSXViiz1ySMh7AkCIAACSUdAkaUuKKnOLTAKW3OY4VFPYbwOAiAQHYFzbYYFecrt5cbbrk7Kd4PyLVG3HdTtZWpvhdpbDUkebt2o3rpRla9XhJihqrSP0Txm2JgXmKHf0cP0RSQmuTLCtj5lm026R9Ws43HZsqD/ffY2kZmxIO9cA2tHlnnahXz2dk4ez8sINNwbvbKfNBjdp7N/geRhqBl6ZuksYiXRasLUv2FrOuP+hwU9FmKGy5vultmhWjpt2OPcXHduukuGWmvHui/NjY/YbaSfIdPVMKyfIemvn6NRTpm102bNdL26TyMWp5QZqrR5JUbTBWWOsKESSgMBEACBBCRwQZlTYjSptHkC1g1myIUEIV8c41cQAIEoCZxrM5TJ0ndXWvbc3dSOjdq1c354k/NDNmd455bN6zBt32wQ04OUho1NSlGU196mloQODcoZG5czZBugsg4T5H3Mqs/expqh3z0/yQxvQ/87T/KEdq6Q0MMo9xh3nnNlhpXDK2QQUp9zhM7+HZkz3HePkvallWMukoY843ak5CnF5wxLhlpbZod6r08uuJzLHveyxzW6dO3K4tXg1qRH5AwvyCfMWro1KWuGdGvS1BqBxlBcqdUXChgkoSgQAAEQSGQCWn2hobhSwBrCDGGGIAACwhI412aYJpLMT5qZ0UenqN15aneB8cPFQONSOnm4dntjaHelZWqomkFPzJAdm3RyYqyn0chm/16QM2TNsOk609vQMWAym4OW2hIuZ3ho0BRO+zgz9MweOspsqjRwu5wbM1S3zG6QzpZex4CZhU8ysfsrw1zOMNDPkLzSwORYabOmJVzYv6Lw0nKqivl+hmSm+9rxHtKalJ/pnm9Nqq4zRmxNKs7NlORnSmqKcqbNmtHC9LxMSV6mgCFFFEUJG4WUVpgV2dooqoFDQAAEQCAZCSiytaUVZgFrLuxnchQVwwg04QEAXgGBpCZw3s2wqEDNDD06Tu1cpXauUTshfrhM3Xbedl/aW79UZFAzd5qYYdAINJyKpJEubHTLT1o82DFL6V8PH9LjoLVmy0ZGnUlTjzn3/P4dR88L+hkamXE4/c7L7PQYbfNeeiyWqdpzYIYaU8/Y5FBLnkiSpm63Mz0KKb83aCbDwFimXhszvaGand2CdOBME7WzjX59jFLuOTr5u3Y2K+xkhkHzGR5jhpk6TSQzzJR1lSovlyoHq9XTZs1EVVZPqaJH+AEMXioUEDYKEba0l7oQ7AwCIAACcSEg7OeesKVFAQRmmNQOgMqDQDiB826GMlkGtT3GLNN0m1LaD+eo3et841L/9px/c2B/a5ib7/6w5h3yii7HHpOTWpvn5jlkElQhZihix03xLb/cCDSqgRVaa/yeOX4Emn3PZOqNQMMiZdWOHoHGzKb7XOPm2S2uPe0+PUoNu6yNFQSGmWGmOiTzGe44+itpS29j8rTU1nyTgS3Wv9QV/scg7CtsV8Oh1uNzhoZOc8SZ7kWi1G9NGveYJoowCIeAAAiAwGkICPu5J2xpUVwXzFDYyAGlgUDcCZx3M0wTSRavdTJmOEFtT1PbM4wfXgv44c4MtT02N93G3apjzFCiappy7ZCGjn7f8goZIiY0Z0gnvloml70kfUW9xKwVkvLL864dZhr3FJ61ItwMSZ6Q7h/YZye9Czk9ZP9nhyQls3owr+37fWu2HhOdX2WnqWAGqgn8SnEDAh1yeyFbmbJTGnJmWDzUNro4N7p0LaQ1qUylOsIMuTFpSgpUdGtSg1RMT3kfxZNbwEOEjUKELU3Ay0RRIAACIHBGBIT93BO2tCguGWbIBYdCxg8oEwTiSABmKCku1FHbY6s3Lt3ZuLy/OXTgHaW2J6jtSWaZcsx3U9tjJUX6ON4knDpJCSgK9CVBZlg8SOcPg80wqyQ/TSR9gRkyQkhPdg8zVKiiCFxwCAiAAAgkDgFhXU7Y0qKgBDNM0vgE1QaBowjADCWyTNmWs9/rMO04rb61i3vrl/yb/QfeK5SXbmW66ez3rg1KpNKjCOJ1EDiGgFyvLrhkKR5qLR5qCzFDWU42cyDMEL4HAiAAAueFgLAuJ2xpMMNjnubYBALnhADMkG4AoFVfKC1UlhVllxXnGEvU5aXa8jJ9hTGvsjy/sjy/pEh3Tt4NuMyzICASS+V6dW5LraGroXigJaeyWJaTLaJnQCGNT2CG5yUijCLqwiEgAAIpRkBYlxO2tChQI2fIPcrRmhQEUoQAzDBFbiQ+mxKeADFAiUgsER3q3AgzhBmCAAiAwHkhIKzLCVsazDDhAwmErCBw5gRghmeOGB80IMAQgBmGRn5xj2miCINwCAiAAAichoCwn3vClhbFdSFniAgHBFKMAMwQZggCsSEAM4QZhhKIIg7DISAAAklNQFiXE7a0KMDCDFPMCnA5IAAzjI0V4CwgADMM9aK4xzRRhEE4BARAAAROQ0DYzz1hS4viumCGEAkQSDECMEMYCwjEhgDMEGYYSiCKOAyHgAAIJDUBYV1O2NKiAAszTDErwOWAAMwwNlaAs4AAzDDUi+Ie00QRBuEQEAABEDgNAWE/94QtLYrrghlCJEAgxQjADGEsIBAbAjBDmGEogSjiMBwCAiBwRgRqas2PHn/h+RE/P3nvvUePv3D6UwvrcsKWFsXVwQxTzApwOSAAM4yNFeAsIAAzDPWi08Q0RaVVy+t79x69fe/R28vre0WlVXxMI/gmjb7g+qKHevjk3qO3N3cfVNY08OcSfJMiS907MHHn3uv3H79z597rvQMTiiw1OZ3gm+SKnOa2nh3/5+8/fufgwVvj0zdU6lzu0gTfpBL2viiztcPjcwQU9fDJsnsvv9DIVD6nq/fK7sEX7j9+596jtz3br5RX1XMXFfoOlCtU7d1DBw/erDO3hOxTZ245ePDm/cfvhCzjM4tyhYpsbe8e4ldCDpcrVIaict/d1yIebmpovXOfvsW+u68ZisrDjx2fWQw5kLlHEeoZfix5hZyd1PaofY56/YXVYw48krNal29bWPW/8sb9x+/4X3nDtrCq1uWTc1maOjd3H5A/283dB5amzqPqQF5v7x4K4cDfrM6eKwcPn9x//M6G976GK1+uUHX1XqEePnGs7hxfcsStX/v6N7729W9E3CRXqGpqzT95772jtp789dN87oWfRdjSwst/4SswQ4gECKQYAZghjAUEYkMAZhgal0cd0xSWVOz4P7/j/7y19VJjc9etvc/t+D9fWFIhV6gE36TR5btv3b1z//VLl8dqTM1rmwf+V96orW+WK1SCb5IrVGPTC3c/9yu2hVVjVf303DL18MnY9AIJzgTf1HFpiHr45KbLV1ndMHjFdvDgzYWbW1nZGrlCJfgmwe/L0OjVu5/7lem55cKSitaOy767r7lv3dXo8pvb+4gYFJdV15lbgt8bEWPco8xQma01FBoNReX8Mja9wGsJL4T8SnjhhSUVt+9+aXz6Bl+CoaicOMz1Rc+O/wtVNZb8gjLe/INL0Ojyg48qLq1237obokDB+4evn8YMX1g9uUJ1NOec+cUN/ytvtHX2K7O1bZ39/lfemF/ckCtyqmosd+6/fnNtN9dQnGsovrm2e+f+61U1lvDK86909lzxv/JGY3NXgEahUZmtzc7Rr20euL13i8uqcw0lckUOOaSswrR398v3H78TnRn+5L33amrNpKg118ajx18IWX7y3ntf+/o3+H34er7UStSfexHPImxpEU9x/IswwxSzAlwOCMAMY2MFOAsIwAwFM8PxmcXgmJJEnCQ9Ivgm4kjN7X0kPMovKNu+83hpZVuuyBF8U0FxxW3qNRJGM6ejg+zb1GsFxRWCb9Lo8je891c9+3yecGj06v6rX6kztwi+Sa5QCXtftLoCz84rKxt+ZbaW3Jfewcn9V79SY2q5ubZ7a+9zjC3Q7zdLcxf18K22zv6jotujzDBk/1xD8a3bD244vfrcQkNR+eDo1XuP3j4+Z3iMNDpWd15K8xqbu/Zf/Upnz5WQWh3z62nM8ATVyzmKs6HQ6Dv44uz1Vb5us9dXfQdfNBQaR6cW9u5+uaS8lmwqKa/du/vl0Sn2iw9+/+CV8ZnFiGlV8hYN0T+tvnDde2/r9sPtO49DNgWXecz68+fPifV97evf+M53/iRECx89/sLXvv6NR4+/8JP33ltzbRxTzvGbhHU5YUs7vuYRt8IMIRIgkGIEYIYwFhCIDQGYoTBmqNbmrXvvOdfvkOyWXKHKytY41++se+/lF5QKu0mtzbvh9G7dfqjLK+KjIj7SFXxTW2c/9fAtS3MXfy5ebATfVGNq3n/1K72Dk/y5+Ehd8E2C3zKtPj+/oEyXG7gpvYOTd+6/XlltyTWUBCeRLM1dBw/ebL7YK1eoyqvq1zYPSKvgW3ufs7Z0c61J37pmd23feXzv0dt7914Pbv3Iw+kdmCLaHNzOkzfDucX1zZ1XqYdP9l/9yg3nLdKuNaIZhjQx9d19rai0enh87jaT6dp/9Svzi+t820tydmW2dnl9jzdJtS5/fnF9/9Wv3H/8zu27Xx68YuOyjnQD4Ft7nyNXMb+4cefe6+TrEpU6d3z6xh7TRDn4kHAg4dUzFFVcujx2m3rt3qO3Dx4+sS9v6fOL5IqcozhHa4Y5kc5Cf6EQboYELN/KlCOTY5tf3bv75Vpz84b3/mnM8IWtRodGxr7znT/h3xsvuyKsywlb2stei1yhghmmmBXgckAAZhgbK8BZQABmKIwZktBz0uYIDmImbQ7fwRer66y+gy8KuKmsvHbde+/m2i7fXE2uUHX2XNl/9SsN1g5hN9WYmkenFm7f/RJpFkuujrRIHJ1aEHxTW2f//qtfqbe08RhJIu6G0yv4JsFvmYHtUkjeUTm15mbfwRcda7t8/pNcVKmxxrP9yubuA9J80Xvn0ZbvQamxJr+gbH373o7/84ZCI+nJFtL6kW9VS8ohieIbTi//ZQRvfWSFevhk8IotO0dPakLatdaZW+7ce9196y7f425seiE7R59fUOZcv7O5+6CswpRfUDZ4xUY9fDI0ejU7R987MEE9fDI8PsffFNJu8+DBWyRhqMzWLq1s+w6+WGtuZvanfXVo9CrfANg2T3fqIxd+//E74zOLWdmahZtb5AKzc/T86XINxeFACorKQ6rX0z9+8OAtcnXVddZbe58LzjOHc87K1txwev2vvGFp7lJkqS3NXf5X3iDoCKvFlW21Ll+ty19c2eZb5166PBbxLOMzi3t3v7yxfZ/4/Padx9aWbmW2trS8dnP3gXP9jqGonHwR0NV75eDBm129VyKmE4N5HrNOcoYvFL8XquMxpyAqdfwOL7UVZog4HgRAQFgCMEMYCwjEhgDMUCAzZAb2CBlag+QWakwtvruvCbiprMIUnn8g7Q8bm7uE3VRnbgnPkPBtAgXfFN6Kkg+pBd/EX0VwyHuaW8aP2sJn8A4ePhkau8YLPD9yyb1Hb19dWFNma+vMLTv+z7d2sM1Kmy/2Hjx80nyxl+wZLGP0wDZ0+jEwzhDfzpavf4gZLjg8/KlbOy4Hl+zZfqXUWKPM1hIlI71G+eaaiiz1gsPjXL9D+h+S7nNrmwfZOXpyLpU6d9Wzz6XFVDWm5jv3X2/tuMzVJGfB4fHsvJJvKF3bPHDdusu7cVVto/+VN8ZnFiurG+7cf52/QJU69+ba7s21XUtTZ0QgcoWKrx5J9oZcnf+VN/gvFMI5yxWqXEOJ69ZdPqfn2XmFa9xLJwaph2+RTdTDJ310yjrnmLM4VnfuPXqb6C7pmkh6+fLvVcKhxFjjO/gi8fmQTRyo0A+fiK/DDCNiOf5F5AyFDcpRGgjEnQDMMNQKJOmy/uHRrGx13O8NKpBcBDJURVllXZr6KXoxTSoKrFJlbtAlwAxDg7Povu0mmhEhMXj3NWKGAm4iZhieMzx48CYxQwE3ETOMmDMcn1kcn1kUdhOjf2/xIb5coSI5Q8fqjuCbBL9lvBmSmLXUWOPaovbuvV5RFdA5RlGK7cu3qIdPrK2XQqJbXu3CL7be0nbw4K327iFyiKHQuOP/fHDCMHxs0uAegOzAMzOLBcUVHT3DeQUl3Klzlla2SctkXr24TYE/jZBNxDP58nkT472LDHAa/s4nd3N8ZjH8AsNPGnxFwWZIblzwucg6D4cUlWsIcNbo8l1blO/uaz3948Vl1T394767r7m2KI0un9Rk0bldVdtYVdu46NwmnI85S33jxaaLPXxvUtLbdvb6arD+ke6F6957Wn0hGRcq/CubiJcc/iLMMJzJC1+BGQY95UPjSWwCgWQkADM89JcsTc+0XOwaHBlzbdzKUkEOD8FJxvd3bOosVebqm24ELXZ9E7uoTZMZqiKmGjDDQPhLoo3ozFDwTmvH9E5EP0Nyp07ZBVHwW1ZaXtPZc6WgmB6Nliz1lrb9V7/S3Tfa3j0UnO7jm+Oq1LnTc8ukYSevOu3dQ+HiFGKGw+NzfKNH/nS8WJIV3tzI6Lj0kKRMsq6ts59P4pFheEivuWD9q61vIXOV2QAAIABJREFUJhM58LXiM4Qqda7r8JCk4Q19SZXC3fuFZngUkENmyAwnE/JVC/0lgr7wKM6kY2dQVlNFy+2DN62tl5zrd4KzmuTqnOt3ikoqwhuBk/7D1tZL9Y0Xeey8EPIrvNPy9PgV/qiTr8AMT86K3xNmGJswA2cBgZgRgBkG5CdDrmhs72rv7R8enXRt3FpyujS6vJjdiTM/0biboijKPXbmJxIFkL78ucZcdC0P/2zaSg6XqTIN2Dd97E4+92yLIehEhqYJt8/PbNz3e5cGTOrT1OfFx8rz6oKckPhhwAx11gWddSFTU5YmimCG6cMNOnuTbiJPLJaK2CVDNmrRXrWoupT0K7ps+WCNesqsma7XjFcpW7P553FcVqJzuaOqGnVpM3PO8LFJZ+accoVK8E09/ePUwychY5PedPmysjWCbyo11ty++6XQsUnvfqnUWCP4Jq2+cMv3ILjP2NDo1YMHb5mt7YJvEvy+kDFy+BaScgWjHw+fXLo8RrcqDGrbSRpVDo3aevrH91/9SiM96gw9wwGvf8e3Ji0qq9o9+EJIwpC3EX4EmuAz8q1JewcnqYdvNXLjCWVla266fMT6eDMkqB1ru9yoM/SYn7wZkin7grUzpGmoXJFzfdFzc21Xn1f0sq1JLw9PRwQSbIakdWuwzrV29HvvPLK2dB/F+aihkrp6R44aHSo3P7Ty5Cw1Jqtz/c6t23Q3UfIZQv4KxmcWg80wZH6RsgoT6YJ41MfOMa9/5zt/MjQyhn6GxyAK3wQzDAo/XhwwYGcQSHwCMEP2L/mCMruxvbu9t793eOzK+BQxwzm7I1wORxnDco1H+xHQZqedxmdvO2w7Z/FeOVTVpDBDo83DOJ1/zx9Y1qYOmWHlmIsTPz9ZofyOHg0DUEPoUhTl32O3UZu28jNDnaEq4rWwc8K9vO5jfrUbO5duuneNnUvEDHXW60zmUCoSS+iFr48+N9vepFtoUJo5M6wuUl+zaGdL0zOkIlmOctqsnTHn9BtkTYVZY/WaqePm7A5/Zgv+StQuF7EmUZdGJse7tfe5xuauiPMZCriJTFrou/taZ8+ViPMZCriJzGdIPXwyPbcccT5DYTeRWTduOG8dNZ+hgJuEvWWk993Bgzf7hqYMReVkPkNGIUrmFzeoh08mZpcKSyrIfIZ7d79cVmEaGqUnbLzYNaDIUpcaa1Y9+/cfv9M3ONnRM0ImZA+ef48fgWZ8ZjE8YRhuhhFHoCHj1vgOvmhtvVRYUjE9t3z3c79CRovhzTCvoGT7zueX1/dyDcXKbG3vwNTBgzc3dx8UllQQ+eEtkfsLCswWGDyczAlHoFHr8mfnnKQaRwFRZmv56vHzFtrm6QacZHwd5tuEvKM48ze6us6qyFKTQWvIdKNj0wvk1pARaCZml/jpOsnsiGFnySWvL7v3jFX1ldUN69575CuhYDPkyLDZ42M2hewZ/iuZkeI//qc/fvfdH4Vv5V/BCDQ8CoxNehaRG8oEgfgSgBnSgpeVo7V2dHf0DfQNj12Zmh2bnHF5bjmcrrkbjsmr8yFyeEi3+BD/5Csww2NYETh7jp4j99EMrzDuuGlropOBhs4lJnlITLth3ktv9DkvV6aJJCrTlGef/t0zQbwxWpk/sjISXguH5zzL676GwRV9043OCZe+yd4w4NzauTN0dZ2Rw+tq05RInBFqhiKJpLdet2DVT+VL6JyhPHPcor1myb54QSSSiixG7axZO5QrFqeLxOmiYoMKZsi1Hixhgvt7j96+9+jtVc9+ibGGD1YE36TPLyLd1e49evvW7QdkmntyOsE3KbLUg1dsd5gJBu7cez1oTgKV4Jvkipy2zv7dgy/cf/zOwYO3pueWg5o+Cr5JJex90egL5hc3Dh4+uf/4Herhk2X3XlFplVyhIjM0kFaj9x697dl+pbKG7nwYMtnD+MyN7TuPDx68OTZ9486916euOsjEDHv3Xh+fvkE4kGnTg/OB/HssuDXp3r3Xp+eWyXQRzLQTGxp9Adkzv9C47N6jmEoG381g9bK2dJNjyVVcs7vuPXrbsbrTOzBFPXwS3CyTlKnM1o5NL4RPQSFXBCZ+uH33y9PXlrfvPCajMal1+baF1b17r9979PZt6jXypjoKSJ25Jbh6coWKr2HQrBVHcpYrVEWlVTect8i8GmQaD3JrFFnqS5fHyOwg9x69vX3n8aXLY9yUG5HPQs7OH8L/9R2jf8ds4m/fMSs1tebX33jzr//mb4/f5yfvvXfMDsdvivobsYjFCltaxFMc/yJyhvEN4nF2EBCcAMxQkq3RsVo4QmvhzNzCxJSNzxlO2uaHx6fVOjKUSEhbR5+9TZJmaJlc41o27rhnl+ikF5NR1JhGHF5ui3/HPdkUyGgxckNR7mUmgeh1Lvv8+6SpJ9MYkuS79v0+93x/Je0zxJi8y3YPKXDf71ubYtToqAqEVfUmk+vcWnFssXXybdpJ4YK/q6Iv8MVmOOCkZc/vHDKyZ2HTjPS9MF1jxNA7b+FcrsfBZA7dY6p2hjTld3TRPMsnmNzkjuM0BPjuhZ0T7lu7fmKJw3OerZ07RA71TfbN7b0yOnN4XWddyFAVhZthmkytnLPqFyzKBqnIXKqZs2ini9NlUpFIKm2rUE/WZrcqaC2kF40SZsiZ4fHBCraCAAiAQNQEfvLee0MjY0cdTua7P2rrC18X1uWELe2FlQ/fAWYYfcDDBSooAQQSisB5N0NtXkFTx6WOvsHLI+OjU7aZOfvCknNq9hprhjcctBlOTPcMXcnR5qaJrD0TUw5iH46pyYmRNmO7fYe2PP+WY3bC5thiWzDSZkjyVzsro53mztEV2sb8KzOXRybn3fROe+65ianJ3lniKxTlc81PTfZa264zO245Rju7Rpe89J479jY1a4Z0GZuO2RmHhzmPf6krTXRUBcKqep0xQzqj5p6bmHcRPdw43FAz7p9TxAz3fV6OpG9zvtMQlOszk6ygZ9bIv8g6n2tc0s+kE/2OvsDfGGlDS2cUOS3fc3RWklyiz8GkFgM7v+Tl51QNEhtcXvcZuxxMtpBuUMo3JdU32c0Dyw7XDjFDVUV/BDMUScVtVfoFq26mPGvGopuzZDXL6B6GIq59KauF6aLaYjXMEGYIAiAAAmdMgHQ1fH7Ez9e+/o2aWnO4I53wFWFdTtjSTngJwbvBDKMOIXAgCCQmgXNthjpDUVPnpc7Lg5evjI9O22bnaS10rm3M2OZCcoY9g1faei6rNLo0keRQa9IBxkUCnQYDlpLGOIl/eUDF+Iall5ikJI3ID3sIu79nhm79mCZiEmL7K8PsoClsy0nXOGc1fDasi8mF7Tl6jqlASFWJI/GFG6eYrJln8owHaHm59z25HNqcva41j49pC3qoTyahR0UwQ8+MkdyaCGZImqeqWYsmCVufY+CU/Q819VP6phvGLgefMGwYXLm16x++ttEw4CTDk+qsC5vbe8QMNXUTEc0wTaS4YLPqrjfq5i266QKmWWmYGWq1yvF6zVRd8CM59uvCRiHClhZ7GjgjCIAACLwsAWE/94Qt7WWvBf0MXy7Ceclvn1E4CMSFwLk2Q21egbW9u6W7t713oHtguG94bGB0cmRytqu3f3zm2vS167bri/M3bt64uXpzxb3q3my92Blihk1Mis9nb+dvHjEXOmdoDBooxed1Ldl6TExvtwhmyLRKFXHSyLY0Dfzns7dzB/EnIo1F3Y5jKhDRDANjkxIp5U6dIB9YXTbXmtu1zLahTatkB6RxDnEZwuNyhsZjc4Z0CVybUoo6XTtScruJGeqbbvBmSESxc8K1tXOHyKHOurC/v0/MUGuZDzfDjNEmup/hAmeGc3Q/Q+2g9lDOsECfNVGvmTJltymjeHILeIiwUYiwpQl4mSgKBEAABM6IgLCfe8KWFsUlI2fIh39YAYHUIHCuzTBNJNHnF3b0DV4aHLk8Mj40PnVlyjZhm+u4dPnK1OzE7NzM3MLVhaXrS8uLy2vmxmZyy4NzhseZoYjuATg876BzX2wjU8+kkdO/QzlDTs9ayLCljn6z2RS0VJeyOcMgBU1NMyxpH5mkG9laub8uPqfK9SokaVWKCrjiyfoZktFNVQMr7K2g3KOnTpZmlXWR1qS3dv18a9KrDi9pTUq6GpZ1LvE5wwuGxnAzFGkzxYZMiSE3m84ZVsjyZeL8TLEmI2CGZXlZk2bNdF1Wi1IkTo/iyS3gIcJGIcKWJuBloigQAAEQOCMCwn7uCVtaFJcMM+TCFe776wT5nh3VAIFoCZx3M0wTSTS6vMtXxofGp0enbZO2+dl5e1dv/+DYFJHD6Wu0HJaVV/F//MFmmHZ0Y87qEbtrzT3Xy46KSYZCoXOJXPqPmbUiJHHX59ijKMo7y4w6kybSjK74/Xs+Ry/bzzDcDEePrkBIepO0bg2azzDk1Inxoca2JvUQAlyKjx42Jq9lZHK0z6TmxibdInNRcO1sfXRvTLZvJ+V3Xmaws/0JKc8E01iXzeL6fQL1seSnrBie8wzPebiEofvg4GD42gZpTepw7XSMr5GcoVSRG26G0o5y5XB51ki1mjZDk2qwTDlgVLZlEzMUlxeoZsza6TqlJZOMQxPFk1vAQ4SNQoQtTcDLRFEgAAIgcEYEhP3cE7a0KC4ZZsgHh1gBgdQgADOkjUirz2O1cM4+Z3d0MdNXDI7RLUvHZ68VFpcF32y2yeKG/QUj0BAD9HvmeltMnVPMiC/euQZJGtse0uec4Ueg4XKGIomFjK5Jj1vDjUDDOA+nk6GtSUePHIGGvq5DVSUj0CR4a1LucuixdrgJCf0btiY1GZKUot04wnyG/FgynCiGHi5JExlH1+h8oX9lpJw3xik+FRmNGIvE6cGzVtDZQnYcGnrWCpI5nF3aIrNW6KwLEWetOKY1qbiuOGfWrJ2pV/Xkyiw6WQO9RPHkFvAQYaMQYUsT8DJRFAiAAAicEQFhP/eELS2KS4YZBseHWAeBFCAAM2SVQKvPn52/MWd32B0rly4Pdg+M9A2PDY5NcvNVBJlDm81DZ/bIdPWSNEPX3CZJQlGUz+PcoNeZWSsk5ZftfENSv89jZ0fCNPY7uP3ZWSsCZpgm0jRNrHhJ89OwWSsi5AzpNqtHViAtuKpk1opEN0NJmrplctnLjj3j93mWxprosUkraa/b95LRRFWmATvH3L/jnu0xk2F+mD9IZtoP0mZ0nz9cUj7ODAnrWyHTVLCzVlBscjLqv2R+4goyMCnX4ZDWwoODg84JFz/TvVSRl0YPN3p4pns61y9lXtdl0TnD8gx6B2ZUUpFU2llDz2dI5wzNmml6mnvMdB9F4IJDQAAEQCBxCAjrcsKWFgUlmGHU8QMOBIHEJAAzDCifVp9nd6w4nK6ey0Ptvf1d/cMKpeoFt61lyrnmdl0fIN3Y0kSkraPf0RMo9gUlRNsOmC027hU4Zf2T//BMjZHPHHIrdtKUVN9kJ2Yoz63lDPAoM+TnqAiYIauI/KwVzEoUT24BDxE2ChG2NAEvE0WBAAiAwBkREPZzT9jSorhkmOHZxnjJHyOBT9IRgBkeUjitPm9uYam3f7ilqzdDJn/x7VQPOJkmit6lqZ4Wrv3nnqPn1KObvPjU5PMi7hXAx5ZIwnc4DDdDtWlSqsxl7ibJDcIMVXzwEfeYhq8JVkAABEAgNgSE/dwTtrQoCMAMTxqtIVgCgSQhADM8ZIZ0n0Ndbkd3nzQj84R/7SrTwJzb5ycz7/n9Pvd8P5mdIlbvgLhX4ISgUns3kThdqsxVFFiZqSzsGtNkVllnhqoo6KphhgEnJPFH3GOaKMIgHAICIAACpyEg7OeesKVFcV0ww6CnfGg8iU0gkIwEYIb4SwaB2BCAGcIMQwlEEYfhEBAAgaQmIKzLCVtaFGBhhskY+qPOIHAMAZhhbKwAZwEBmGGoF8U9pokiDMIhIAACIHAaAsJ+7glbWhTXBTM8JsLGJhBIRgIwQxgLCMSGAMwQZhhKIIo4DIeAAAgkNQFhXU7Y0qIACzNMxtAfdQaBYwjADGNjBTgLCMAMQ73IWGW5oMyJIhbBISAAAiCQjAQuKHOMVRYBaw4zPCbAxSYQAIEoCMAMYSwgEBsCMMNQMywqrVVp8gUMklAUCIAACCQyAZUmv6i0VsAawgyjCHxxCAiAwDEEYIaxsQKcBQRghqFmqM0tNhRVChgkoSgQAAEQSGQChqJKbW6xgDWEGR4T4GITCIBAFARghjAWEIgNAZhhqBnKFaqisjph4yQBQy4UBQIgAAICEtDmFheV1QlYoFyhghlGEfjiEBAAgWMIwAxjYwU4CwjADCOYoVKlLS6ryysoV6p0wgZMKA0EQAAEEoSAUqXLKygvLqtTqrTCVglmeEyAi00gAAJREIAZwlhAIDYEYIYRzFCuUF1Q5OgNZaUV5uJyU3FZHRYQAAEQSCkC5abSCrPeUHZBIfyAWzDDKAJfHAICIHAMAZhhbKwAZwEBmGFkM+S/QVeqdFk5eiwgAAIgkEoEzrRBBMzwmAAXm0AABKIgADOEsYBAbAjADF9ghrwiYgUEQAAEQOAkBGCGUQS+OAQEQOAYAjDD2FgBzgICMEOYIQiAAAiAgJAEYIbHBLjYBAIgEAUBmCGMBQRiQwBmKGQ8dJJv07EPCIAACKQ2AZhhFIEvDgEBEDiGAMwwNlaAs5xrAlJFrqpyQFM3oTGNZ5V2yFRFInE692dJjFEqEpNFwq6I+FfSReLAEt8oJ+5RSHwvH2cHARAAgYQiEPfPZGNVY8gS/MBi1plnWeCJxj3jxPSzj1nY8EAkkojE9BLyOvesPNdRBCCAQMwIwAzZzxpZpiJbpc1WaXn0skyFPq+Q/xUrIBAFgQxVkc66oLNep/9tXNBbr+vp9Xld41y6Us8UCDNELhEEQAAEQCAaAjDDKJ7LOAQEQOAYAjBD2gxlmQpTQ0tTazdZikoqyAp5UZapOIYgNoHAUQTkeXWMFkY2Q13jtUx1KflylEsYSplvTEO+YQ0kDEXi9Ph+XR33KCS+l4+zgwAIgEBCEYj7Z3JIwtBY1Yic4VEhAV4HgaQgADOkzbCiqr6iqp4ooj6v0NTQwmcLi0oqyKYX3k5lRVdH96C1Qh3YM7vW2j3Y0VqrFEl0tX0dXX3V+vDmECV13YMd3c15opfaFL5zarwy5qLCfjZtJYfhqEwD9k0fu5/PPdtiCDAXGZom3D4/s3Hf710aMKnjQ0aqzNU32YkZmvuXO8bWSM5w0OYu67DrGud0jdd0lmsZ2YVpgWY2ATPMvNKgtZnVl7ICT1lZ1oXR+vgGJXGPQuJ7+Tg7CIAACCQUgbh/JsMMg8KP+AQbqAAICEsAZkj/JTe1dh+VGJRlKppau08CHWZ4Ekov2Mdo8zBO59/zB5a1qUNmWDnm4sTPT1Yov6NHw5SsabOzxujfY7dRm7byw2L5gjoItLO+yU7McOjq+tLatrnfqWtcKOu4Ye6/ubG1OzC7RsxQZ7kmEmdEyBlWFaltZu1sZaaBzRmKG42aKZhhNA2uEiqSQ2VAAARAQCgCMMPYPNBxFhA4PwRghnRT0o7uweq6xqOWts7LR3lj8BvleDMM3vPwOnKGQV+zEbHbc/QcqWea4RXGHTdtTXQy0NC5xKigz94mkqQ1zHvpjT7n5co0kURlmvLs0797Jog3Bp3oyPKF2SdDVUTMsGN8zeHaIf0MB23rHWMrpJ/h+uZOafuCzkKnDaWK3AhmKJLJBuq1s2Z1bw6dNpTlKMbrNVN1QsUT0ZUT9ygkumrjKBAAARBISQJx/0xGzvBwRCdMCIEyQSCOBGCGEo02r7GlM7+g5KilsaVTo8174U061gzVZa2DHd1dZdn0p4ZMV1vfPtjRPdjR1W+tb24Mak169KZ0RaHV2t7PHNVnNVdrMuiiyEkbamvrL5JN/db6Ejk9tFdyLi82wwEnLXt+55CRvUY2zeizt0lM1xgx9M5buMvvcTCZQ/eYqp0kE/2OLppM+QSTm9xx9FeeCaissk5ihvv7+2WdSzrr9UHb+uLqtueWb9Dm1lnny9rtducmMcML+Q2RzFAqKshVzZq1M1VyQ7qktVIzVa8Z0Mc3uIl7FBLfy8fZQQAEQCChCMT9MxlmmKzhFhcmof4gEELgXJvhBYWq5WLPxa7+9u6Bi139Ry3tXfTWlos9FxSqEHzBv57QDCV51ou0E/bUlJUZyqwtXYwiMv0Mj9mkLKc7MV60mvQ5Wn1VO11Ca61SzJphR/dga6OpsNjUwAhnS1VghNXgGibBOjHDfZ93i20L6tuc7zQEyZuZZAU9s0b+Rdb5XOOSfiad6Hf0Ba503M0kEe1tIq6h6Z6js5LkEn0OJrUY2Fm4D0qNaVLfZDd2Lm1u75GxST3evbKORb31urn/Jhmb1O3ZLr14XWe5pq65EtkMxdL0S7XaGbN6yJg1Ua+ZqrlgxAg0aE0KAiAAAiDAEoAZnsUTHGWCwHkmcK7NsKDIaKyoO+HtN1bUFRRxeapICkHMkM7phSz0CDR8zlBR3DTY0d1fZ5CR86YXtNKaR5vhMZsKqrsGO7qsOi4ZqDPRGcI6A2eGzdVyUiW1qaV7sKPdnBOphie80njuNkCailLUnte15vExbUEp0lKUXBHbjzCCGXpmjKOMBkYwQ9I8Vd1u32FaojL/+BwDZ9f/UFM/pW+yNww4Z5e2iBl2jK0trm4vrXp5M7Q7N4kZahuuHmWGohyNcsqsnTZrpuvVfRoxxiZVICIEARAAARBgCcAM4xmxJGmghWqDwLEEzrUZ8jnDo7KFwa+fMGfYaq42FJaxi7G5lR2blDfDoho6SdiaxzlemriknjXDozeRMU5DhJMZBzUsUXlMr0U+yZbAK10215rbtTzPNvKsZAekcQ5xdT4uZ2g8NmdIl8C1KaWoM2tHSp5SJGfYMOBkOhnSs1aQsUnN/TeXVr18zpC0Jj0iZ3hBPmHW0q1JWTOkW5NiBBqYIQiAAAiAAEcAZggzBAEQEJbAuTZDgjI9Q36S5YXcwyRNkhaYteJ0ZqhkZr9oM2vkClnwks7mDIOmykhuMyxpH5mcmJrstXK02Zainhk+W0v6GVIBVzxZP0MyuqlqYIUbsdQ9epazWSgKrKSf4eb2HulnOLu4NWhbX1r18v0M3Z5tYobK4osRc4bi3ExJfqakpihn2qwZLUzPy5TkZca3i0vco5D4Xj7ODgIgAAIJRSDun8noZ8iFK9z318dmY7AzCCQ+AZgh+8ecm1/UYG2vrW8yVtSZGlqMFXW19U0N1vbc/KIT3sWTmWFok1GJofmo1qRBm/SVdAfC9kJm1Jk0kURf29fa3lWuSTUzTGNbk3pmmYFhuBQfPWxMXsvI5GifSc2NTbpF5qLgeg/67G1qfmxSv/MyMxgp25+Q8kzQQ5WmGcl0F34fmdhi4/BkGIJ+mpPJDPVN9qGr60NX18nYpDM3NgdtbjI26Y2VrYtXlokZZmQXRjLDTFlXqfJyqXKwWj1t1kxUZfWUKnpK4xuUxD0Kie/l4+wgAAIgkFAE4v6ZDDM8YYiI3UAgWQjADGkzzLygbO8eyNHoC4rK2jou6/MK2zouFxSV5Wj07d0DmReUJ7mdJzNDyTHDzByzSV7aQXdfbLUEjUBj4kegSZmcYZoo0BWQn5DQv2FrUrOpQp+9PS3CfIb8WDKcKFLU4cMlaSLj6BqdL/SvjJTzxjjFpyKF/7aPdDXUWRdml7aW1rbLOpbICDRlHTcWV25N2zfIfIbq2rGIM92LRGhNiq5EIAACIAACxxGAGZ4kPMM+IAACJycAM6SVQKXWNTRepOeTyFS0dV5OE0n4OQwbGi+q1LqTAD2hGdJnyTM38rNW1FZXt5ERaOiaHLNJXmBpbOu7SA9FEzprRQqZoSRN3TK57GXHnvH7PEtjTfTYpJW01+17yWiiKtOAfZOb0X7HPdtjVgUyfoamCbePtBnd5w+XlI+76dd8K6QHIztrBcUmJ09yf192HzKlITP8zELH2CrpZ6i3Xl9a9baPOnWNc8QMpYrcI8xQyiYSSwpUdGtSg1RMT3kf36+r4x6FxPfycXYQAAEQSCgCcf9MRs7wZWMD7A8CCU4AZsgmixqs7TUmq6Wpvay8Jk0kKSuvsTTRrzRY2xP8FqJ6CUsgU2MkZkhak+oaF/TW66Q1KTFDeW5Nmkj6AjNkhJCe7B5myA26kFCRGSoDAiAAAvEiADNM2AAAFQOBJCUAM2TNUCRO1+cVqoNmtFdr8/R5hSJxepLeWlQ7EQhkqIrUpsmIZpiu1DM1hBke11YqXvEWzgsCIAACiU8AZpgID3rUAQRSiQDMkDXDVLqpuJaEIiASp2eoClWVA5q6CV3jnKKgMV2ZG/SNA8wQZggCIAACIBANAZhhQj3uURkQSAECMEOYIQjEhgAxQIlILBEFekVKznlrUufK2o9+9PefffbZ8+fPP/744z/8w29WVNVG/T29c9X10Ucf/eAHP4y6BBwIAiAAAklEAGaYAoE4LgEEEooAzDA2VoCzgADMMPQb8a5Lff/wj//4ySef/Pa/+5279175x//23549e/bvf+d3ow7LYIZRo8OBIAACyUgAZphQITUqAwIpQABmCGMBgdgQgBmGmiERuXff/ZE+r1CuUDlXXR9++OF//a9/KVeo/PvUBx988PTp008++eRP/+zPe/oGjnrx6tzCu+/+6Cnz8/77H3z66S+RM0zGABd1BgEQiIIAzDAFAnFcAggkFAGYYWysAGcBAZhhqBmOjE68//4Hn3322V9897v3X33YdamPBEbu9c2f/ezn//RP7ztXXb/zu7/39OnTP/2zP4/4otnS9Hff+97Tp0//r//4n77wxS99+OGHz58/hxlGEV/iEBAAgWQkADNMqJAalQGBFCAAM4SxgEBsCMAMQ82QTwM+e/bs+fPnz549++CDD9zrm1//+m999tlnbz15W65QmS1N//AP//DP//xJREdNAAAgAElEQVTP3/rWt8Nf/LVf+/Vf/OIX3//+D0jW8Qtf/BJyhskY3aLOIAAC0RGAGaZAII5LAIGEIgAzjI0V4CwgADOMYIYkGLI2t+3d2f/zv/ju06dPf/Sjv//ud//L88M/H3300fd/8IPDrz3/6KOP/vCPvvnpp7/8z//5W6Qc9DOMLrjEUSAAAklKAGaYUCE1KgMCKUAAZghjAYHYEIAZhprh5x59/pNPP/2L736XxGSkcen773/w7e/8CZ8e1OcVXl9YvL6w+Af/+/8R/uL+wT3kDJM0okW1QQAETk8AZpgCgTguAQQSigDMMDZWgLOAAMww1AxHRif+x//4p08//eUf/uE3b3l3vvWtb5Muhb7b/l/84hcffPDB3Xuv/PpXf+OTTz75y7/8f6i798NfbO+49KMf/f3Tp0+/+c3/8+69Vz744AP0Mzx9rIkSQAAEkoUAzDChQmpUBgRSgADMEMYCArEhADMMNUN6PNKVtb/73vfIfIbBw5C+9qXXf/rTnz179uzp06c//OG7U9M2uUIV8UXnytqPf/zjZ8zPe+/993/5l3/BCDTJEtSiniAAAqckADNMgUAclwACCUUAZhgbK8BZQABmGMEMTxkV4XAQAAEQOM8EYIYJFVKjMiCQAgRghjAWEIgNAZghzBAEQAAEQEBIAjDDFAjEcQkgkFAEYIaxsQKcBQRghkLGQ+c5S4BrBwEQAAFCAGaYUCE1KgMCKUAAZghjAYEzJyBV5KoqBzR1ExrTeFZph0xVJBKncx8fxBilIjFZJOyKiH8lXSQOLPGNh+IehcT38nF2EAABEEgoAnH/TDZWNYYswQ8sZp15lgWeaNwzTkw/+5iFfQSLRBKRmF5CXueelWf+pMaJQAAE0kQSmCH7WSPLVGSrtNkqLf+2kGUq9HmF/K9YAYEoCGSoinTWBZ31Ov1v44Leel1Pr8/rGufSlXqmQJghcokgAAIgAALREIAZRvFcxiEgAALHEIAZ0mYoy1SYGlqaWrvJUlRSQVbIi7JMxTEEsQkEjiIgz6tjtDCyGeoar2WqS8mXo1zCUMp8YxryDWsgYSgSp8f36+q4RyHxvXycHQRAAAQSikDcP5NDEobGqkbkDI8KCfA6CCQFAZghbYYVVfUVVfVEEfV5haaGFj5bWFRSQTa98HYqK7o6ugetFerAntm11u7BjtZapUiiq+3r6Oqr1oc3hyip6x7s6G7OE73UpvCdU+OVMRcV9rNpKzkMR2UasG/62P187tkWQ4C5yNA04fb5mY37fu/SgEkdHzJSZa6+yU7M0Ny/3DG2RnKGgzZ3WYdd1zina7yms1zLyC5MCzSzCZhh5pUGrc2svpQVeMrKsi6M1sc3KIl7FBLfy8fZQQAEQCChCMT9MzncDBVKNbtkaRT0oqYXpZpZJ79qlFkaZTbZqlVksb8qs7VkUWRpmYXeh1nY1/kdsAICIHB2BGCGtDY0tXYflRiUZSqaWruDxONIzYAZnoTSC/Yx2jyM0/n3/IFlbeqQGVaOuTjx85MVyu/o0TAla9rsrDH699ht1Kat/LBYvqAOAu2sb7ITMxy6ur60tm3ud+oaF8o6bpj7b25s7Q7MrhEz1FmuicQZEXKGVUVqm1k7W5lpYHOG4kajZgpmGE2Dq4SK5FAZEAABEBCKAMzw7OJjlAwC55MAzJBuStrRPVhd13jU0tZ5+ShvDHaM480weM/D68gZBsk2Ebs9R8+ReqYZXmHccdPWRCcDDZ1LjAr67G0iSVrDvJfe6HNerkwTSVSmKc8+/btngnhj0ImOLF+YfTJURcQMO8bXHK4d0s9w0LbeMbZC+hmub+6Uti/oLHTaUKrIjWCGIplsoF47a1b35tBpQ1mOYrxeM1UnVDwRXTlxj0KiqzaOAgEQAIGUJBD3z+TwnGGgnQs7dlpI/wiMQCNMmHE4kkSZICAYAZihRKPNa2zpzC8oOWppbOnUaPNe+Ed4rBmqy1oHO7q7yrLpOyfT1da3D3Z0D3Z09VvrmxuDWpMevSldUWi1tvczR/VZzdWaDLooctKG2tr6i2RTv7W+RE4P7ZWcy4vNcMBJy57fOWRkr5FNM/rsbRLTNUYMvfMW7vJ7HEzm0D2maifJRL+jiyZTPsHkJncc/ZVnAiqrrJOY4f7+flnnks56fdC2vri67bnlG7S5ddb5sna73blJzPBCfkMkM5SKCnJVs2btTJXckC5prdRM1WsG9PENbuIehcT38nF2EPj/2HvzqEay/M7339bGIiQQWliEECD2RYDY933fEcmOQCABAgQIEIjMrKQya+mqrKrsqjmnj8+882bafuMZu+1/5nnr4+7X3ba7/cbPyztjv/Zpu9Lj9nHXcfe43FtVdSVv7r0RoVAgKYUyQIL81YmTFcRy495vhG78PvH73d8FBUCBqFIg4n0ykOFNNbdoMwnqDwpwFHipyTBBpqipb6tv7mpo6a5v7gq0NDSjvTX1bQkyBUc+9p8hkqE4zVSPmLCtKCdHm2OqacaIiMcZBtklz0WDGOtNpSnJ6pSCBlRCbbFcRJFhY0tPbWWpTl9ajoGzpsCbYZVdwxuwTsjw2OXcpmJBXVszTVoWvBmJV9AxaWA2UsxnHxZ3YXei29LhbenwOnYiztcJ6UDTQ0tTPvEluizYteg9mL+OUlU6mlI1b2ha2to9JLlJHc7DnMbFFNOssWuZ5CZdd+xm189qKu4oiwb8k6FIEtNarJ4wKnsNiSNlqrGiBMPtzECTpEhJ1ebosov0OSWwgAKgAChwmxTQZRelanOSFFfyXQ/I8Cre4FAmKPAyK/BSk2FGpsGQVxLi7TfklWRk0n4qfwhByBD59DgLykDD+Axl+qqexpauEm0cuW5MRi3CPESGQXZlFDb3NDabNLQzUFOKPIQlWpoMqwulpErK0pqWnsYGY7K/GobY0kge1k1CRT2eQ6fd5nDhWFAPiRQlLaLGEfohQ8eEYRBjoB8yJOGpyob5PRyJiv9xWbqvbvyhqmwspWq+vNs6ubRNyLBxyLa4tru05mTIcN66RchQXT4ViAyFySr5mFE9blSNlyk7VKLbmJs0NT07O688JT1boUpLTE6BBRQABUCB26SAQpWWgnu51PRs3v2NQIaRtFhuqKEF1QYFgirwUpMh4zMM5C1kbw/RZ1hrLNTqcqjFUF1L5SZlyDCzCDkJa9NoxhOIssooMgy8i+Q45QAnzoN6wVEZZNQi42SL4pVms922bl+ZoYI886mENNZeus7BfIaGoD5DVAIdU+rxXFkcKXlLEZ9hebcVDzJEs1aQ3KTGruWlNSfjMyTRpAF8hgnSEaMaRZNSZIiiSW9dBprUDENGVqEsUcm7wQQFggKgACgQPQrIEpUZWYWpGQZ+qwRkCGQICoAC/CrwUpMhkTImVhrK8lzdL0CaWOCdteLFyFCOZ7+oM6qksjj2EkP5DFlTZdxsMsxq6B8dGRttN9FqU5GijgnGW0vGGXq8rBjaOEOS3VTRvUpnLF0fvMrZLGQZJjLOcGv3kIwznFzc7jFvLK05mXGG645dQoZyfb1fn6EoNV6cHi8uykweN6oGdTFp8eK0eH6tisuWxq8VolCnZRlKE+TJl60GHA8KgAKgwI1TIEGenGUoVajTeKw5v31yGBWDcYa0uUJ/vw7qjYGDQYHoVwDIkPoxp6ZnlpsaisuqDHklpeU1hryS4rKqclNDanpmiHcxNDLkhoyKtdWBoklZu1Ly0QDCBh3OOiMQilOKO2obmnNVt40MBVQ0qWMSJ4ahXXwobUxaTf/oYEepks5Nuk3moqBHD7rm65RMblK3tRMnI6XGE3ocIyhVqcBAprtwu8jEFpu+k2Hw2puTyQxTquZ7pzZ6pzZIbtKJha0e8zrJTbqwul0/sELIMDZJ548M4+Oas+Wd2fKeQuW4UTVSkNiWLWvjPxjpUqYAv1aIVp+vTtFdqgJwMCgACoACN1cBdYpOq8/nsf789slhVAzIMEQTEQ4DBW6KAkCGiAzjE+QNLd3JqpSMzJy6xs6UNF1dY2dGZk6yKqWhpTs+QR7K7QyNDMVB0swE2SXNbkTDF2srWBloSpkMNLfGZygQeocCMhMSujfNVUrKVeiabxD4mc+QySVDg6LH43u6WCA0DNqQv9C92p/LEOMY44rk/2sfGWqoMc1NLm0v2XZzGpdIBpqcxoXF1Z3x+U0yn6GyeMjvTPdC4e2PJs3OM8qS1GHYInAKKAAKgAI3UQFZkjo7z8hjzYEMQzHP4BhQABQIXQEgQ4QECqWmvLIezScRL6tr6hQIxcwchuWV9QqlJhRBQyRDdJU0YyUza0VxYWEdyUCDahJklzSjorKuox6louHOWnGLyFAsUNaMrjip3DNul2NpqArlJs1HXHfsJNlEFaXd81v0jPZ765NtRoXX46etGll3kZjRY+Z0ce7wOtrmWiUjGKlZKzyUczKU+3vZY8iUhjj9zFzj0BoZZ5himl1aczYMWjWV04QMJbLUAGSI54ASSYRZGQoUTaqV4LmheDQpwiiKXyuE39LCaA6cAgqAAqDANSvAb7/Hb2lhSAE+w8vaBnA8KBDlCgAZUs6iclNDUampoqohJ7dIIBTn5BZVVKEt5aaGKL+FUL2oVSBeZSBkSKJJNZVzKaZZEk1KyFCaWiQQSp5DhtRkwTFk+uAw3tw8nsKvFcJvaTw2E4oCBUABUOCKFOC33+O3tDCaDGQYtRYIVAwUCE8BIEOKDIWimJQ0nZI1o71SnZaSphOKYsJTFs4CBQRCcawiU1k66pcMY+QpWCIgQ0UY5gicAgqAAqDATVSAX5bjt7Qw9AQyBFMHFLhlCgAZUmR4y+4rNCd6FBCKYmIVOkV+t6pkRFM5LcuojJGnsr44ABkCGYICoAAo8LIowC/L8VsakGH0WA5QE1AgUgoAGQIZggLXowAhQLFQJBZ6R0WKIZo0DFsETgEFQAFQ4IYqwC/L8VtaGJKCzzBS5jtcFxS4IgWADK+HCuAqoACQIdcnEHGbJgwzCE4BBUABUOBFFOC33+O3tDDaBWR4RdY5FAsKREoBIEMgFlDgehQAMgQy5CoQhh0Gp4ACoMCNVoBfluO3tDCEBTKMlPkO1wUFrkgBIMProQK4CigAZMjloojbNGGYQXAKKAAKgAIvogC//R6/pYXRLiDDK7LOoVhQIFIKABkCsYAC16MAkCGQIVeBMOwwOAUUAAVutAL8shy/pYUhLJBhyOZ7bJxCn6Yv0OcUoUWfm6ZMEvkkHWCZIpLExFSDLhsfmV2QlqqOFbH2BjoLtt8cBSTJufqcIp06ET0/sala8lRw/y1USv3dd5E0QcN+PFQSXhsOZOhPdF4lDrnXgJrcbgWADLlcFHGbJgwzCE4BBUABUOBFFOC33+O3tDDaBWQYmo2XkJRBMC8/LTVTlZqjJdSXlRF30eCMTU2jmVCnz6f5MFsmud020svVOn9kWIhut8+Smxx/QRZxojKT+mSgYz40+H2QLj5aoW0BMrwgemjChdYXQOGgAKMAkCGQIVeBMOwwOAUUAAVutAL8shy/pYUhLJBhKNagKCkH+QmzsuWxtEkgTlZnIfteq5T5lhAv16LtunQN7SeMlaZgT2O6KqCPEQzXm6ZAnKbQ6zOMS9flFOm1mlDub5waPQzaFCXlJ5QoyYOkU3EeJPpJu7wyQIbha+f7Y4ZyQIHgCgAZcrko4jZNGGYQnAIKgAKgwIsowG+/x29pYbQLyDAUUzA+BcOeBocO0pa6RIniCfXpah8ekKjTUEhhbhLDkEKxQKRKQRsNiTHBzQzYG+0KSJKysVeQCiqmokllevQkaH2fBPo58XnAREr0JOgz4tjRxfIs/N1BG+v3lMtvBDKM9sfI55m4/A2G06NGASBDIEOuAmHYYXAKKAAKXLUCNvvmV3711775zW9dXB4+er23f+hFKsAvy/FbWhjtAjIMxcaIVeUj2z0lmX0w2ajz3ShIyMRWPifKVJqkQ2yZmhhLShBJNZoMeshiVtAhi2A3RpMCJIgU3WK8XJoM8eOh5boHJSJJrChGKiK4KJImqOlw5ZxCXYZeFidhP3jPXQcyBDIEBa5HASBDLhdF3KYJwwyCU0ABUOB2K2Czb3749OnDR6/b7JsXl4ePXv/w6dMXUYDffo/f0sJoF5Dhc+1sdEBcOk4xUqCS0jZ6XBr2DeYrpTE+JUgzUGBhNocMExSYDCmQSMjEx+Ahi5osashiZhpfLiOf+kQTVt2mikmJG5lkoME+Q12qWpqcpc1CUab6AGmHMFgWpshjBZLERHVWmj5fl5GlVCSy3M7SRDKiVZel0mRqtPiTRE6hRu77mAW9rUCG10MFcBVQAMiQHzIsMdacPHi3oaWXY8SQ7fcefcBZhicWhycWORtdp29qM3OlMgW7NFNNy+7Ro7sP37/78P099+t1TV1SWbJUpsgtKLNve+4+fP/eow8OTt9q7Rwi2+VJ6r7h6aO7b9979IHn7MnK+mG6zkBqpUrJmJqzHd59++7D93ePHjFFceqszcx1nb5pnrW5Tt/k1PDeow8sa3sNLb2c7ScP3i0x1khlya2dQwenb9179MHdh+9v7T8oLquWyhSWtb1N5z2VJp1zId8/k4cnFu4+fH94YpHenlxd17bnfu3eow9OHrw3PL6gUKYG0ZM+i3tDpbLk5vaBPffrdx++7zl7Yts6yS0oIweXltce3UNCEeXTdYYF687J2RMiad/wtDxJLZUp1Ck6+7aHNLmhpVepSZ9Z3HDfe+w5e+I8fNjaOSRLVJIC03WGZbvr+JV3Ts6eOPbuV9a0MDdlbnmb3CxWA7lVlSUq27tHyL07uvt2e/cIUzKndQ0tvbTmClmisrVziDwkh3ffHp9eUShTOcdLZQqVJn3Tec+ytndxF9nCfuouHhOoaUTe/ZPXyU137N4n8pLLcZ6TIFf3veLFh4GrFTk+cK0UppqWncNXPWdP3PceL1h3MrMLyClBfiCBTknXGVbWDz34wXDff8xWOLhovo3y34QQj/nw6VO2V7Co2MhZvvvdP2UfEGKxzGH8shy/pTGVDH0FyDBEXJHIMumsM/k6PbH+czWJF8aGUdGkBT6pRyiwLNKnKQXCWDwQsVAjY2x9WbIe+aDUCWBo3RgF2GTo40jMyvfmlcnmph3CZxWqFKn4swLleMRO5qwEkqCIfFnQpTHZSkWJONY0I5XZ8twnFsjwxjxGz72XcEB0KwBkyDXXwrNpAhmI8iS1VmfQZuYyy9D4HLHpR82WPffrBUUVzK70jBxCAkxpBUUVR/feXnMc5xeWGwrKsHn6XmV1c3pGzu7Roz33a2WV9fqcwrnlLc/Zk8ZWxKW9g1Onr35pfHpFl5VX29jpOn1zfedUpUlXKFPXHMc7h68WlphUmnTzzJrn7El1Q8dFY4uQ4cjkYnpGDlM3bWZuS8fgyYP3mtoGmtoG3PcfV1Y3e/fqDPIkdXVDh+fsydzylj6nsKi0emv/weHpWzl5paGQYWV1s+fsvXuPPmDAqbG113P2ZNnuyi8s7xkwnzx4d255O1mZGkjPiw0hW0itzDNrSk16tqHIsXt/9+hRekaOVKaYXXSQW5CekaNUp685jl0nbxQbq5OSU3oGzJ6zJ72DU1KZorq+/eTsSUvHoDYzV5OqI4eVltcq1Wm9g+iwofE5qUxBbopj935OXqkmLZMoTG5KfmH50b23h8cXtJm5QQh5aHzu9NUvmefWDAVl49MrTMkXm8Ymw97BqeNX3mnvHktKTqlr6nLffzyzuEmIlH3ii5BhkKYReS1re/qcwhJjzc7hq3vu13RZeWpNhmPv/oJ1x/uQIPUy2VUKtH7xYfB75HNrZZ5Z06Rl5uSVOnbvk1oF+YEwzwnnFPLDcZ2+WdvYqcvK6x+Z8Zw9Mc+sEYWZn6rfGvK48fz8vKjYKJUpiPPw3N9///iPP/jKr/4aOeyylw6v3wt0FX5LC3SVINuBDEMzPGJik2nnHh1JqM8p1KrZ3h5ijsbI0rDFn6VPkGAHY6xSnVmkI64kNBSNkGGRTpNMRQ8KxQJxLIonZI89C+oUCq3OYB5foQJ+yDArO0lKRQsLJEkqTPv6lCT2zSJn4QRFqXHk8ZAkU6lKSYIiQoY5OYmxtHdaiGNNJcx3hOc3CsiQq5E4Jq65rStZpWHfDFgHBcJWQCiMUUizs9VdJv1aWcZ0QdqwIiFbJKJ//0JCjBKhiCxiakXIbIkRirxLkDf0Nezi1woJr7QQDcRUrX7n4MGC1ZmYpPLLSypNujYzt2dw6u7D9xtaeidn1w5Ov5htKCIyanWGPfdrs4uOprYBz9mTqrpWsl2Tlrl9cLZgdRJzfHXTTZxdUpmivWf0+JV3ikqraxs7D+++XVBcSU5J1WbtHL66tLp7ESEIGTKERo6XJ6lXNg6J6294YpFxb5K9UpkiMUll3Tjadj1Qp+jIxoLiSvf9x72DZr8tZU6UyhT6nML949fsO6dHd98m1yUYs+Y4ZtxfhH+wZ9IL82w92QWy1xeszu2DM00axSQVGEGxv9THmVlUWo34qmeUnEuas+G8q1SnsTGsxFhz/Mo7bV3DzGHLdhcpv7G19+TBe0ZTA9mlTtFtux5YN44Sk1ShPB4Z+rwDz5ssqEueWdw88LyZoc9jN4esM1Uij0Tf8DR9TPLUnM3vWS9ChoGbpl627e8cvpqqzSIVYOT1+xTRlfTewYtbLj4MF48hW4LUaml1l/0oGk0NnrP32ntGA/9AagKdQlrE3HGpLHnO4tg9ei3bUMj+qQaqJF/bGTLkOA/Z5RcVGx8+ev0rv/pr7I0hrofX7wUqnN/SAl0lyHYgw1BsA4nCgB07BqU8AR8vkUhTU3FuUp1azi2BTltKhqLhE7PlSpSkhAxKFMn0KJqUWgp1+tw0jSYO5rS4UTDMJkNBbFKCXJkQH+/zJJC0NL5xxSSVkT5LLxWz4IVyKWfL0EZ6fhTyeGQX6DKyFHKpT8nPEwrIkCWuUCyOiauob+rpH55bXFYo1ZeSEg4GBS4qoJBmV2fZq/W2ar29Sm+vzrJVZ9mqMCIqpFn4eCDDYMbrRYuEmP7Tixtbe694zp4cv/LOgnWHCeNkjm/vHjt+5R2CN355iR1i2tDSO724sbx+oFSnkRIY4x4BJHbTke2EDGcXHbJEZXpGDtsz094zenTv7fzC8tlFB6EUpjKa1Exs0CdLZShuc+fw1bsP3z+8+/bM4iZDaMzBldXNx6+809Q2IJUp/JKhUp22vH4wvbjBnMKwgWVtb+fw1bnlLSaQtbl9gCFSwpw7Bw8Kiitdp28SMuRwmlSmyMotPjx9a3AMeeeYha2nUpNunltz339879EHh3ffHhqfI3jslww7esbYsbKu0zdr6jv9kuGK3cUOiZyaszNhnKQawxOLhL0vymJZ23OdvGGeXWOXMDyxqErJmFncPH7lHXaEcF1Tl+fsvYrqZqZ1DGVJZQqFMnV4fIEIuHP46uyig1Sjur7ddfpmVm4xc1ZScgrzbOQXlW/u3iMP5OLq7s7hqySe069WQZ7hQE3T6nJTtVn0U4TuS0V188mDd6vr25m7z1SMWfF7dbLX78OAQmH9KRaoVjm5JZy4WVKZBasz0A+kzFgb6JTq+nbn4cOCEhNTf3Jd86yNua0Xw8iZg/laIWTY2z/0zW9+K0iZRcXG8AYc8sty/JYWpL2BdgEZXnzvX9hCoj0LUxN9TX/KvaOXXrTURVJpsjYlI1+ny9GoU+MlYsKW3ikuJHKZMhMdQAJTEQYYEtnpTC+WCVuiSQEfMvTr8o1NxWNTc+Qs5qemP+FmMU1WowegUCklRCORyFKVqTlaZjJMlP3Ix/d44RH1QSEgQ68c4pi48rqmutbOvoER++bO5J25JIUyuHywFxQIooBO2YCw0B8ZVulXTXqrUpYnAJ8hCz8CGR/s7cSq9pw96RkwJyWnFBurXSdvkDBO5jAS/EYchmT03Z779W3XAzKGkBmgxRlnyJzObO8dNLM3Ijt7Zu34lXfYUIEPSCbVsNj2NamZtq0T89yaX3YicZvseEt2VCfBkjXHMTNWcHhi8fD0LYIcZMiiCQ2o8wIbWW9qGzg5e1Jd325Z27v36APH7v1sQxGpLRP7KpWhEWXue4/LKurZLFHX1HX8yjtlFXVMsXR0opPZwtFzemH95MG79c3dSckpo2aL5+xJbWOnVKYg/tVRs0WepE7PyNnYvbt/8rreUJiekWPdONraf5CTV4pwOiVj03lv//i1vIJyMt7Pc/ZkeGJRk5rZ0Tt28uC9moZObWZuVX275+w9EiOKa5K8tLp79+H7dU1d7T2jbGgkGH/8yjvlpqaahs6TB+919I5pM3MzMg3rO6ckbJUd1js4Nndw+kVdltdDqMvKOzj94uDYXGKSam55233/cV1TlzxJTUJGybV6B81b+w+6+ifIQMoTHH9LPkkUl1W77z9etu2navWpWv2ybZ8ME5XKFH61CvIMB2paUSkaR8osJFh3a/9BqlZP7ub6zikZd3py9mRmcUOJx5r6vToR0+/DoNKk+1UsUK1Ky2utG0fM48r8cIgHmKmtVOb9gag02tBOoYZr2rZOkpJTmJKBDFmqoucByDDIKzhqdlGGu4oy3GmzMzYNm/6+Y8lE8kRNpkqTGsd2CgnjE9EkhwXY9I+PlSsT5HJv0hFRfEIqmRzvgvsxmlgoam4HrX9ExWGTITWpCSfjKPEZcqawJ+5BfbpPtiGJBg87zEmUiIn7MT6WFTvq41EMqe1AhpRMxFtY19bZ1jswMDxm39xZstqHxs3yJJ8sw9H5ZA+uezwej30Yt0VbM2pzuY/RFs+xyzHfXaoUC4bxEXgb+x/7sFhR2m/ZdlEbj13OpX50PPrB5HfNO1xuvOfY7Vqf6cqnHyn2JdAVjArvD0xbNbJOn0Vf3bsXlZA7vE5KpSrss3fIzq4fWd8yZ/kcI1aUds9v0XV2rY2U7OgAACAASURBVE/WaFn3hV0Bt3MJN9/3dNbBdIuu4ACFNKcma52QYXPxenPxBttnSMjQpF+RxacLvIGjEqGIiiaNHyhXm43K1kRvKGlcYsIglc+DYxxc25/8WiHhlUas6jmLg3GF1TZ2Ei5idGDHQxJsICQpT1ITk5oZCkVK45ib6ToDe4ycVKYgxjdxXGztP2BDBeN7PDl70jt0R6XRbjrvnb76JYJn8iQ1GUc3ND6XlJxi2zqx75wycZskCpQdTVrd0EFGGJK2WNb27j58n5AkQQ73/cck2QzT2PzCctfJGyQc1LK2577/mAlkVShT7TunxLYuq6w/fuUdMk6PTYZMtCRTIOMvZbb46JmSsbrpnl2k9E/LyNo9QmG3UplCnqQanlg4ffVLRKjjV97BiWGQ/cpx2xryS52HDxlH0NLqLiEZdmUYSiksMREZT86ekNBfXVbenvs1x+79zOwCAsCnr36JuIjZN5SMWiTUSkYnbuzenZqzXfSAMYKQYYqskFFF3/A0IcPhicXTV7/kvkegUcX+JIFHUb6mpfMPkbhTy9qeKoBWQZ7hIE0jt4NJSnT34ftTczZ5kpqURgBYnqQiNDu3vJ2arg90pwI9DIEUC1Ir8rFjctqqUKaSH9fpq19isyLnByKVJT/3FPwsqSemrewBuuw7yzyZV7ECPsNLqQo+wxAsilhZOg7+1GpYWUDo+etJahBJUpI6XYq8QwQCi3TeyQ8lsUocjEolEZEp8Ai01ESv9R+rRikovR7FKzBpQmjmFRpUt+/qbDIUUN5jVupaZv567OuTJKQqlWRq+3icf6goLZmEJYsFQt8HicxtyEZHsSo1p0ifRaeoCeHZADJEjzLjLWzrGegdHh8cGSdkOD1v6R4YkSUqovyhZJFhw/wewinX5vzkiNmyjRDMbRvKKu8YHRljLRYHQkfndGO3FVOayzYzOmFx4HX3ardCqOpaJTsc8xNmyxZe35uvE4oFStYlZladaI/bPpyPJVLVzWNgcznmJ2asZN/6UC77QcwfsuPCvCjL3mswOzANug/d3sU25kOGTAnHbjdVlNvSpvKpgMfjPqQvs2X2qQD7cle5XpO1TshwaXrf7XY7t466qx1MNClDhqXaO37JUFiQqTQb1ZP58VpqkKGo0qAaAzKksomSYEtiwRCHD8NXxC5nHIaJSSpTbauxqoEhSWJiknFuF83NnLzS3aNHrpM38gvLORaSPEnd0TvmOXtvemGdsyvbUGTf9hzefbukrGbDeddz5h0FJ5UhZ9f2wVleYbnr9M1Rs4U5l3jnmJoTkGNb1WWV9VX1bcxQRjJAbnJ2jSnBaGo4uve2Y/c+cV5Z1vYce/fVmgzmgFGzxXX6ZmlF3f7xawvWHVIUA0JSmQLD2HsXfYZMckuOnkzJZIWNkQOjcyc4ZYihoMxY1WDbOjm69zZxdrHJUJeV5zx6uHP4am1jpz6nsG94+viVd+YsjsQkFZsMEcvRmSqJv7S9e8x18kZ1fTtJGOvYvc84gTt60a78wnL2DR2eWOT4BkmdL25nHqGLapRV1B2cfrHEWDM4Nnfv0QcT01ZGAUw479U2dm467y3b9pkHTCpLXrbtMwIyxzNakUoGeoZzC8r8No0pRypTpGr18ys7nrMnptrWlPTMxtY+fU4hcwBxNbMDX9kZU8nwQr8Pw0VlmDID18qbJpe4K81za4yjjzmd+YHkFZSzM+v6PUWhTJ1f2facPensG2dUZd9ZptirWAEyvJSqQIYh2YexqWnZGA6zC9LSMlWp9HRz2bl41goqqYyeGPSxdObJ7AI0Kzo5MStbTgeLescZ4pkJUnQ402lWtow+IKQqXaX9AxV4rgI+ZCiMkaYws1OycpNmZiDXMZWuliZ/iTqVfpb8PR70OMNsPKkJ/aRpyfQYod10IENqbCHxFvYNj49OzQyPme2OHYvVPr1gGZ2aae3uS5BfIkL3uQ8EfweY2hDvzWPMwz7D7lUEVts0Cym7rYeYAMt9vuVkERfian/pBAax1X7K6Vc+40Tnrw8qie/OMUn5CRsw8bktbeIKcsjmGMEtBdlzvNqnFAvI6ceOUXKWkuzzWHsJtiE/5Ogm4lYX5kc/PkNCloeWtoCPr6oPN9GzZa5Cvk1t0xJhUUytVP1d1k5EqorSMaKMY4SpgI8O/N0IbrGyeC0hQ/vKgX3loFpvG27f2XEcDrdtkXGGDBmaMldkcel0+hmvz1AojIvrLlNPGpXtychtGJcsGy5TjZVc6p3N+8HhefkCVSO80oJb1VKZ18lDrqtQptY1dbExj81FHHOT+N+2D86ycCoaWaKysrrZVNuamKSiW4GM/g3n3ezcoqa2AXbOkrKKuuNX3qlr6lqwOjlpY4iTqqi0JjgZEucnAwyEacsq6+lLU/F1DHJU17e77z+2bh6mpFNJXwKRYWffBOOgY6+cPHi3oxslzmHywVwcZ8g4zehqJNc1dZGISqYoy9oeGYHJ9uUSpCQcyybD9p5RtmOT3LLD07eycovZZEiSzZJIQnLpiupm1+mb+YXl7AF+ZFd7z+ju0WtpGVnsGxqIc4KMMwxChnVNXcRjSetAfaRo7RwKTIb+tQryDAdqWk4eEof9GDMRsBn6vMbWPuYZoGn/3RJjrd87xXgdmdtHVk4evDu/vO2XpQPVKi0jizWGFjmHST6h2UVHus4Q6AcS6BQirFKTvmzbP3nwLg4kRtPGkIV9Z5mNV7ECZHgpVYEMQzUkJDKZOkfLDAtEaWNSpTFUAkk8jJCVqlSSpEjLpZgwO/9ighmRVKPSMgcUpKURfyPXFAm1bgEtLijwqhTwJUOxQCiRyNJTdDQf6g0pSqWESjYrTcwo1FMfEXB9JImJqQbW44FGonrvtUiaoMxKo560Qp0uR6VgxR6HcK9fdjLkeAtHzTPT85bR8SnGZzhqnukbHq9raZfKEindcSwl9mx5PHvrk0sIrgjkkChHEsnpdjmtIzV0mKXKG2Pp8bi2V0erMKtgQnNtrjoQ3bjm60icJO0I27bMr7jIdoFQVdpNB3ceu+kSfGIv7cNiAlau+QbmESHuROcdI7NFIDRNI/5Dl8tq6B8dGetrMFB7lWOYFNcHa2Ych2731kwV/QzRbkkjPhchIl2gYXILiWHtFpfeQeW6LR30LnEWRZ7dZEsu/tM13zDKDn+lL4GOeT4ZdluRt9Nt7aXrTLkZUXNIBTzOmQq6zDYLFnN9iCJYj9vSjGqeO4IbumfxhsjSpzCVf5GVHHUXIcPj42NmnOHi1N7U4E5z8Xp39QabDLNUbf7IUCLMSFVMGtUTBVJtjLg2XzVWpupG420iuITHcoEqHF5pxEBkEwg7mjQzp2D/5HXGYSiVKQixrGwcMp43o6nh5MF7ZAAb29wk/jc2aElligWrc8/tDRRk4jPLylFwJjvskKlGe88o22eYmKRatrs2nffStPog0aTEocR2GBIje+cAjSUjGmYbig5Ov4h9jMlkZovpxQ0mNpUEbbKhi6mtOkXHntKgqLT64PQt88yaVmdITc/adj3g5CZlMn9e1JPUYfzOMtGTuD0ta3tancF18gbbn0mUX7Ci8YpsMhwcmyMcyDwYTFpXNhlecJCiTJUkFpfcNYZmSTPJI8G+oYFiI0kTuLlJcWbaINGkJDEP22fY1jVMQlgDRZMG0irIMxyoaVpdruvkDfZjzySkJelz2rvHGD0npq0HnjeNpsaD0y9evFMI81iTu7AfhtrGrhN61Cg7/jZQrfDgVTQUlvFPFhRXHt59u7axk2Q28vsD4bg0mVOkMkVKeiYa6Hj6JtuJTdrFvrNMS69i5Zvf/FZv/xBkoAlRWyDDFzEV4FxQIAoVeKnJkD22kHgLp+ctFqt93DxNkeGCBZHhyHhb70BlXVNcglwgpGIp3dsWJlyTIkMDiZN02c0dTe1mO4I9KsySEJHH7bRMjE0u4SBL4lijh//h0vrrGqlISxTbOTKDS6ARbhCPzXOtT7Y3t5nXcdnrg/TAPxrbaDRapUiMhkCPx7tFrOjFTrf1IZ8QTRQmauyy4IJRNCkDfnhF2Y95zDltpHyJo9RYRLSXwtHZmkEbQkQfBx3xGu7NI8Ikx+3N1ynFTIW5PwlyzLHLieNgUeO3Zpq0rMoYicvSMWlgNlKeSfuwuAu3jI2m1ABL13ydkI50PbQ05RNfosuCXYvcOnDaHtafxoxZhgxbSjaY3KTDbVtHR0fbDtfq0m5j0ZpJv2LKXClJN/snQ5EkprVYPWFU9hoSR8pUY0UJhpgQ39ZXdFh4LBeoMuGVRgzEQBlohicW2blJyKXJxIN35u36nMKyyvo992vMPHuMuVnf3H3y4N1l235WbjFjN2tSM8nca2SeQzKf4emrX2rvHiNzryGfG052QuYzJBTHDMrKyStVadJHJpeY+fqCZKAhWWQYhyGpObn6yvqhoaAsv7B8w3n36N7bBUWVfcPTnrP3zHNruqw8prYqTXrQDDTebwpsr6lUpiC1WrDusOczJG7Si3oSdjLP2pSadCXdOuvGUUqabm55++TBu+3dY/IkdapWz577kU2GJF/LmuM421AkS1RWN3QwU0GyyVAqQ5NJkGQwSnXa4BianZJMC0lNfIdnRNSkZc4sbqJpQooqOHlKmJGKxcZqTWrmsm2fGbc2ND7nOXsyPr3Cmc8wSAYaZhdJvUOqTYg6UAaaQFpV1qC0on6f4cBNQ2p4zp6MTC7psvLIfIZkEktyivv+49bOITS7w4AZh2hu5heiKTov3inONI/shyGQYoFrpSATgeLsO1l5BeXbB2dEE3KK3x9IoFN0WXnbB2f7J68bqxqYp/ri1KOFJabZRUdhiamqvm16cSMzp6C9Z3Ri2spM4hKowwlxO5nG8Pf/4GvBU49CblKiJ5DhVZgQUCYoEEEFXmoyzCkqLSirKK6oMlbVmeoaa5taG1s7Wzt7RibudPb0d/QMdKB/+zu6qaWxpV1AwjURaRAy8WIJcVg5Z0zU7SSRjejIDgsK6UROLbKL4I97qZnilkNLGwYtyuXFMJthyI78Y675OuKpc07TQaEkpJPxDXpBiw6nnG8zKITaKjMZOejxrA/RDxlxGFKuM3oj1QoEdsfMoEEGvfIJlqLxikJChuuDLF6iyHC+wVsNZi+9r44anUiJ4OdIcgqR1+PxHDrtNoeL5NHxqk3jpccPGTomDKRYP2RIwlPpEZLE3+uydF/d+EOChTVZ67vbR3eGdpGfsGbLtuyyLe9312xW6dcmB7YcG3sUGWqnApGhMFklHzOqx42q8TJlh0okAjJEIXyHd98en14hcz8cv/LOzOKmKgWNrMvJKz08fYvtV6FtQe9QqLsP319zHJNgUTZIEKbixNfhuE00z8Tu0aO7D9+/9+iDg9O32rtHZIlKJr//ydmTe48+8Jw9WVk/zMwuIFdM1xkWrDvue4/JADnW1BG4Jp437z58/+D0rfE7K7tHj4YnFslsgezkNHTNFaaaFnL1uw/f3zl4UFxWTbyLnKqSHKeWtb31ndM5i4PM07Bz+Gp1XRszUospkw0DeCMKetw/ef3eow9OHrw3Pr1C/JAB9PQ24eTsyZzFQdLkDE8sKpSp/SMzB7h1nrMnW3uv4Aw0KCCQTYZSmSK/qNy2dUykO7z79tScjdxBXzJUMJMueM6ecNpCFD45e3Jy9mTTeS+/iBoUyqA++0YQNXaPHuHJFVF9ZInKngHz0d237z364Oju2z0DZnJPpTJ00ZnFDXLK1v6DsallNHzUWEPSovQNT++fvE4mHTHPrZHEOVIZuk3kgXTffzy9sL6+c0oentbOISIIW6u55e1AzzAZXblg3bnYNDKdBpks5O7D9x2795lWkzoTPVl3MOCdYp4EJrsSM9iVCHtRsUCCo/kzqpq29lHiX/e9x8yPMfgPxO8pfsNcmcBs5s529U2cvvqlrr6JqTnbyQM0ztO6cXRw+lZuAW/DsIuKjW8/fvcv/vKv2EJx1oEMiSBAhrQdxZhMsAIK3GwFXmoyjI1PqGlur2/rau7qa+8d7B4c7RuZGJq409jWMTxxZ2xq1jy7OLOwvLC8ZlldX13fik+QV82SuE9vuCZhH/sw5Qcj1MH6d32wBo/RY+MNATHnTCnxGdLYdsHnpiKj8ubrfKJGvYUzJ7KCMyvGaBrEx7k2caSqjSJDymG46ZvTRWio6x8bHTHPb6LWeTyOUcYjp6yZ3MQBmU7k6xNQZOi4pM/QMkk0mKV0C0iGzWa7bd2+QudBzacS0lh76Z9ZMJ+hIajPEJVAx5R6PFcWR0peEozPsKdmy75y4Nw6dLuPh9q22RloXC5XUJ9hgnTEqEbRpBQZomhSyEAT0WBajmkIf4ICoMBtVYCAn82+GaiBMNM9UQbIEMgQFLhlCrzUZCgQiuOksuau3vbewa7BEYSF41NjU7NNbZ0YEdG6eXZhZmF53rIaL5UJhOJgZEhiKSeMpUb2kp8WiAz35qsuR4aOSZ+SjaX51GwNHNBSZJvaBsdGR/qb8rUKfAl6nCHtMKQyeYor2lHC0jbaFSkQ5k9uIzS0D2ISUzZMk+ym2zMYC8UCYQ3OfepnnKF9kBKH7bKjxhnaVkjKUoydvv+wgVlIjXscbaf9rkLKmemYoEcVCsk4Q4+XFUMbZ0hCZxXdJOMqybJD0ybj4eRvhRlnSGat6K5xNBdvTA06F6d2mQw0DBlqFTV+fYai1Hhxery4KDN53Kga1MWkxYvT4gOZKdezPbz4z0B147e0QFeB7aAAKAAKhKEACSv98OnTi8v5+fmHT5/29g+FUSy//R6/pYXXHA4cemdaEpHE2hL0gvNOzkTNzCQUSch0voxVLRSK8bxNKBsHXq7wHc1cFFZAAVCAo8DLToYCoTg+Qc54C4mfsLm9i7MlLh5hIVoCR5MSCnKv0IP06mach273+ljhc6NJaddf4GhSkuXFbe2kcmzWzTjdh277WDGplZcMScYVbwqWfJwehorhpByGrFkcCOi6LR30wEKCjiidjEDbTCbAcNvG6BkOkQIkkBVHlqI//eQmda8PEpcjHb1p7TVin6R32gwLToHqtIyN9jf4DHekokmpnKi0iw/FvqbV9I8OdpQq6dykVP5VevSgC7s0qWBaWihqPKHHMYIn1aAGgrpJZlQP13HK50uIyU1KyJCMMxxq295xHAy3bXVXb6wu7TLRpAFyk8bHNWfLO7PlPYXKcaNqpCCxLVvWlh3Gm5vHU/i1QvgtjcdmQlGgACgAChAFioqNF5cXEYfffo/f0sJoFwcLDQWVQIYcOxv+BAVulgJAhogHpAmJQxPYQziDPIQtHd1eL+LEVGw8M6GkOFgGGiWZG9DtmGEy0FBMUoGTdvpkoPFg+PH1GQoodPFczEBDObvcjmkmAw0zOYSQndCFTpCzhRPk4HkIaYqjHIbWbtYUDjRKOVdmRkfoeQtdlrbybisJLN1bnWZNhIi8i1Qz8ZSJ1HyGHqeZePlUXSs49JQ1n6Fn28xkCmV+G16U5brpqPqj7D30hITuTXOVknIVoqGVfuYzZHLJ0KDIPV0sEBoGbahu7tX+XIYYxxhXJJ9YKBCKhcIYMtSQTYZVent3zeaO4+Dw8HDevGPSW0k0qf/5DIUQTerNmBKGvQKngAKgACgQhQrwy3L8lhaGXECGjGEDK6DA7VAAyJBCggRZEjOqsLWzhxl5GBvHxkJ8sLZ5eotgk8fjcljx2Dxqar787ul1F5l+PcisFe69dfasFaz0MGJFab91D8OVx+PeW7Wi2E7K45fbOWPfc6MpMbyzVlCV9wEtUgeSu+XY5ZjvJh4/ii297kTq3LSaMes23Zxjt2sdj/Ejoyd9Az+ZyTkE7Ev4TM6BZizsmll3kRYcu5wrY3jWQepazG/Gp8IcOFTWjK44qdwzbpdjaagK5SbNR1x37CTZRMnsIKR27r31yTYj7fNEMxx6Jwg5Zk4X5w6T5K6rZJoKatYKwuecCvD0J3EbcsiQjDNsKrYzs1bExSgDkCGOwBFJhFkZChRNqpXgyJww3tw8nsKvFcJvaTw2E4oCBUABUOCKFOC33+O3tDCaDGTIGDawAgrcDgWADL3QIpMr5i2rltX11q5enJamNyZOyr3NNWNW27p9tpuOgSTBjexxd94Cuec+DzkyOmfstnXrGJPehnj52Hk4wy/8spWB419cAZWswC8ZVunXCBkmSjPJgAq/4wzpjWSoBvVvGG9uHk/h1wrhtzQemwlFgQKgAChwRQrw2+/xW1oYTQYyfHFTAUoABaJKASBDH9aSJyavrm+1d/XVNLdLYuP93Co6ZNS5NNZW0zxIJiekp53wc/zzaNDnFHrOCftMf1NNx6QNu/JYwwJ9Dr5UyXBwhBRQSLMRHOpt1Xp7ld7O5CYty5iWxafjG4qG2tMQKMHj7znj9YEMIawUFAAFQIFbogC/LMdvaUCGYGWBAqAAkKEPGQqE4sQkZWNLhyTGHxZiulCU4pBREq7pxuGXpayRey9GICS2E4WMoiFxOBqTPc/7ixUOj3tEFBAKY2Tx6dnqrjLtTFnGdI66U5GQzaoJkOEtMfjCMKrgFFAAFHjZFOCX5fgtLYx7AT5D1tuca0/CLlDgJioAZAi/ZFDgehQgBIizcvsQPpAhkCEoAAqAAi+LAvyyHL+lARneRDse6gwK8KsAkOH1UAFcBRQAMuRafhG3acIwg+AUUAAUAAVeRAF++z1+SwujXeAz5Ncoh9JAgYgrAGQIxAIKXI8CQIZAhlwFwrDD4BRQABS40Qrwy3L8lhaGsECGEbfjoQKgAL8KABleDxXAVUABIEMuF0XcpgnDDIJTQAFQABR4EQX47ff4LS2MdgEZ8muUQ2mgQMQVADIEYgEFrkcBIEMgQ64CYdhhcAooAArcaAX4ZTl+SwtDWCDDiNvxUAFQgF8FgAyvhwrgKqAAkCGXiwwFFQny5DBsETgFFAAFQIGbqECCPNlQUMFjzYEM+bWJoTRQABQAMgRiAQWuRwEgQy4ZZmYXK1TpPBpJUBQoAAqAAtGsgEKVnpldzGMNgQzBjgcFQAF+FQAyvB4qgKuAAkCGXDJUp+q1mfk8GklQFCgACoAC0ayANjNfnarnsYZAhvzaxFAaKAAKABkCsYAC16MAkCGXDKUyRWZOCb92Eo8mFxQFCoACoACPCqhT9Zk5JTwWKJUpgAzBjgcFQAF+FQAyvB4qgKuAAkCGfshQrlDrc0rSMnLlCg2/BhOUBgqAAqBAlCggV2jSMnL1OSVyhZrfKgEZ8msTQ2mgACgAZAjEAgpcjwJAhn7IUCpTJMiSU7Q52XlGfW6pPqcEFlAAFAAFbpUCuaXZecYUbU6CjP+EW0CGYMeDAqAAvwoAGV4PFcBVQAEgQ/9kyHxBlys0ickpsIACoAAocJsUuNKACCBDfm1iKA0UAAWADIFYQIHrUQDI8DlkyCAirIACoAAoAAqEogCQIdjxoAAowK8CQIZcKhDHxDW3dSWrNPwKDaW99Ar4IcM4ZVJSdkZaXam20ZheW5KUrY1NlAtFErQI8b9oPYa9hGIrXN0xEbdCrq5pUDIoAAqAAjdOgYj3yTDT/Utv23CtaBDkpisAZOjzTItj4irqm3r6h+cWlxVK9U2/u1D/aFLAhwwl8fHaRqO+qzqzszqzo1rfWZXZYcpsN+naKtNqS2OTkoAMb5yJBhUGBUABUOCaFQAyjKa3vI89CRUDBW6oAkCG3l+yOCauvK6prrWzb2DEvrkzeWcuSaGM+vua3zXvcLk96L9jt2t9piuftCjQdm97o75pt6yqXjKMVSTqu2v0XdV+yVDXZkqrK41XJlPOQ/AZyiAMFRQABUABUMCPAkCGYMmAAqAAvwoAGVL4QbyFdW2dbb0DA8Nj9s2dJat9aNwsT0rmV/FQS6ubd3k8Htd8nTAIIKm6VjEUuhzzE2bLFl7fm68TBtoepKho2aUo7bdso6aj/9wu+0iN4oICitLuOQd9zL59skbLUlVbNWLfPzpB/7mPdha7S5RR0jSKDCVSKcLC7urMrurMrqrMzmpdR1Um9hnq2it1bWjJaK1MrS2RSKUYDiGa1I89dM0f5uFyoAAoAApEoQJRSIaq0TK0jJWpx8vU40b1RJl60ogWc7l6qkJzp1wzXaGZqUiZrdTMmjRzJs28SbNgSlkwpSxWpSyhRbNUnWKpTrFU4X+rU5ZZy0pNSgQXa00KLKDAbVcAyBBhA+MtbOsZ6B0eHxwZJ2Q4PW/pHhiRJSpY4HFdmBEKGSqH7IifHJOUn7AB06Tb0hdge9t1Vf4Cy4UqYP6QnfZ/Hh0ROvRsjhl8Ts8fspNdx0dHRx6MgEdLrSp8jKpubh9vOTk6IHR4cuIw54ZdHz5PpMhQ21xOyLBlamjBtjK/tjK3ujy3apldWZxZWZxeXqgYaM9orcxoqUirKQYyjEJTDKoECoACoECUKABkGElQJIx62zkBYPhlUwDIEGFhRX0T8Rb2DY+PTs0Mj5ntjh2L1T69YBmdmmnt7kuQJ3nhRFkzanO5jzG3HLsc892lxCulNLICO13OlbEqtB1Dmsth3SIuwDsY3pzWFVzC+pBAqK0aWXcdYh6iw0EJFVJg5PF4mMNoaqKiRmtmHIdu99ZMFQ0wg+voJPtygO3D0U6GVMP3LY1asUCoarNgBHROV9ANFAhVvauYBh1mLG964yJGwf055Fwtn95BXLi/0pkvEIoVJWMbbvT3xnA0RAUjMoxNlOt7akgoad/c5N7e3u7untO563Q6t7e3t7a2HA5Hw2gvIsPmioyWili5jJ1+RiiKiaw5EnErJLLNh6uDAqAAKBBVCkS8T76YgYbxGarGy1S0z1BF+wzVd8rV2Geoma1Us3yGmgWThuUz1FiqNZYq/C/LYbhcHXkODO6xBEoEBW6+Ai87GXK8haPmmel5y+j4FOMzHDXP9A2P17W0S2WJGA5N005EX+4ty+TIjB2H9wGpvAAAIABJREFUNLotHQqhuGkJcZt72zLY3jG9idadMyaKDNEOp2VirK9hAJMhihO1z4yNtpvqZlER6Kym5sElJzptb76/s390Zh2tH65Pj6DDssYc6Kqu9cn2jsEVfNXVfm6YpbLfinjVOW30JcBA27245Xt85Lb3rhwdHRw555spDie+zwNLm7dK3SsI9o5WenOoY3LMG5gG52rFJVMYDHemy+njW5cO0U7boKJ+bg+tHS41ocbmDm+iv3aXOil36zUogMgwyZDBkGFRf1Nhf2NhX9PY4qzT6ZxdWSzoqS/orte1omhSQobJeZlAhlFlh0FlQAFQABSIHgWikAw57yxqwLw327aYHkKP3ol4od6/QqFYKEILZ7v3uzz9ZoctoAAocHUKvNRkeNFbOD1vsVjt4+ZpigwXLIgMR8bbegcq65riEuSC7lVMaPTwv/wx+6HbfWjpEzbPO93uw/VRA+7jDGZEcs6ZUuIz9LgtbSTckQR8ehwTyKklEHYjljte7aPGwqn6cPH2YZXAJ5pUP2hzuw+d882kA+2wHKKzunx6yfxBzJJu21BWSNuvgYVe8BKqzlXsM9wY87aojHgFNydzmMIp5rMNiTutJ8fHx4dL7d4fzKDt+Pj4eG+uVqisndtD666lxvzRjSO0dbGD3AWmqCtdQa9AbUMZJsPqooGmlqnBwr5G03CXxba2s7OzuLbSONbbMNbD8hmWp5oKOW/ZyFokEbdCItt8uDooAAqAAlGlQMT75Is+Q847C8jQa5D42GZXam9A4aBA+Aq81GSYU1RaUFZRXFFlrKoz1TXWNrU2tna2dvaMTNzp7Onv6BnoQP/2d3RTS2NLexV28bnmGwL81FVZxcZSo7HUiMkQ5Y8hbq/1QapHIGTomq/D94wbNoqoE+edafAlQ+oGp+WTwrstyGvIlCkWKGsmsZfS45yvYydcCbT9BnRPqqoJBx4pSIWGUoLXEtff5gSLDGcx8W2M5wxgDPRDhvuLrUKxQFk360RsSP7bXewyXKsOiAzxCEOUfqZlarDZjMhQ11E1OGdeWF1uHO/L767P764bmjHnddZpmysymsvTaoo4b9nIGiURt0Ii23y4OigACoACUaVAxPtkIMMA1mD4djkUCApEVoGXmgxj4xNqmtvr27qau/raewe7B0f7RiaGJu40tnUMT9wZm5o1zy7OLCwvLK9ZVtdX17fiE+SByVBVd8dBDT6k+I5kFg1KhjUkAamlC8GkdynM5vgMxbm9qy4yspEpnCFDZcP0NglknfHFwgDbrxWHwuscVXVTToyFR5vTzT75Y7DP8Ph44yIZrg3mdKwg6DtYbPP+qAbX3G63e3e2VigSCEWKutld9LfbvbPYkYe2XOOCpEhvKNV3k8kqqgr7GpsnB8YWZ+4sL85ZLeOLM13mkYbRnowWlH5G21ye0VyeaipgAm/ISmSNkohbIZFtPlwdFAAFQIGoUiDifbI/MpT4vrZw+KhPNCkTNUoCRyk7gRVNSrZc5ws6+LXCs2TgLFDgRirwUpOhQCiOk8qau3rbewe7BkcQFo5PjU3NNrV1YkRE6+bZhZmF5XnLarxUhngjUDQpCR89XB8sxVGj5M/n+gyFOC7U46STi6oGV93uQ5elXezrM6QOm6emZyB/Yp+htnl+D8Gi2zZGJcIh4Bdo+w3AwvzOJZJf9GhzsiaVW+GuFRQIerzSQ//eciY2jo/d7t2ZGlGJeRtR3/YdI418LQsutGVtQC8QCQQiRecy/htt6leKBYLrXCQCgURZmE3Sz6AJ7tFMFVW6jqrR+ent7e2uqRE0ZQXKSooW4jNM1KeBzzCq7DCoDCgACoAC0aNAVJKhz0xL3mhSoUSIFjH+F9EjZzwh3iUWCsUCAXpdXu8LmjEGkKnAXWiL4sKnZNoO4RoqsB0UuMEKvOxkKBCK4xPkjLeQ+Amb27s4W+LiMRaiH38DRWKcDDQGKkWMpbemtGnIgp14nmPHfPsSnliCifz0jSYViivu4IQ2e6veDDQuHBFqnME7XNaJsdH2KTSw0ON2mJtLazombTgDjcdlnV3cIKt7qyhRDb20dXVb/W4vj/4nNX9wjcw2sW/zmclQWdI6ONJTnSpU9mDH4LFjAseCKmuJF9A5W6sUCYx3thAIHljaVV8QiL+QN2I/cB8due1DeejP7IFVl/voyOV0oo1HthG9QIy2X9Mi+YJAEpMoR9MYYizUdVTp2k269qqR+emtra1O8wiZrIJgobapPKOpHHKTRo8FBjUBBUABUCDaFLgpZEhDoARH9GBEvECGTLDPFwTodXldr+ZQbQBfUsX06CXG6DeuoIagQKgKABkipaQJiUMT2EM4gzyELR3dXi/ixFRsfALTYaEVLXfWChLumNs5T82+fux22cYmyRz06xvByVAgVFWNrDpdKBzUQ89agS9n6MKjCdH29SFF1Zh9Dx/j8bi25kfnMTYe7dNz/nljTPGsFXQCVJ/NHnvUz1rRuUxPQnhycug6pJbtucayO9t4dODaoFiQN7h2gPjPfXjgojyAuwvtmP0EypoZ5xH+b3/XRVZctgkTGnuZ07+yf3R0tL/cY8gbth+gnfZhOsHpdXzwQ99HhWJJamWBHk1wX5XZYcrs8CFDXWuFrhVNVpHRXKFtKk+tLsJfW32+v0bWLom4FRLZ5sPVQQFQABSIKgUi3if7iyb1eWd5fYYiEmV6I3OT+sVUzIqAiKHyho8hfR1GF1QsTAWADCnhEmRJzKjC1s4eZuRhbJwvFsLTfJUKDNrRXBLkP5InBv27v9iqrJvdPnYfbIyblCgotLhzZmMX+f2O3K6dtbHmUtYEHumVg6tOxIBHhy6nba6/Mh3dYsPA6v7h4eGOpT0P/zloP0T/2cfwn9fSYWEyFIkl8fH6TpoMsc+wcbyve2q0YqAVkWGLlwwl8fFAhlFlhEFlQAFQABSIKgWADK/l9e3fwmbj4gVK9H9KBGsLlwYFQlQAyND765XJFfOWVcvqemtXL05L0xsTJw1RRzjsihXAo8NR9L838OOKr+h9MHi6EEWGQpE4Xp2MvYUmFE3aRpZKylvYUo4chs3lMYly6lOryOf7a2SNkohbIZFtPlwdFAAFQIGoUiDiffJL4jN8rhnAUCKFiFSgKe+GBBQICly5AkCGPhLLE5NX17fau/pqmtslsfHP7QvggKtX4BYwIXnGvGQoFCLPYVpdia6tMqPNlNFaiVaQtxDnI60uksRL0Rh9KvYGyFARVaYYVAYUAAVAgShRAMjw6o0QHysx+OWAD4PrA3tvhAJAhtzffGKSsrGlQxIDWMhVJhIPNEkRRvkJL1+B4Hmor3kv0lMowguOyBWKxDFyWaI+PbWqSNdakVpVqMjVxSkSfUdleIdkkO2RNUciboVEtvlwdVAAFAAFokqBiPfJ/nyGzGdN1sBC77dO+j0oIjYGyUmD34/0K5J+11/zOzr45S5nERFEZPkPL3c6rQCcBQpEQAEgwwiIDr/5EBTAfTQrfDTUU7y5woL38te/Fz1pbDKkW4Tei9R2wo3EVUi9R4EMwWEICoACoAAo4F8BIMMLM0lc28v9OdbjBTgU0S/955wIh4ECkVUAyBB+olGoAMHCEF2FgV8D3lmJmKmKIriCJmjyztfkTeRDokzJRE+suZ68X1ghmtS/SRRVX+6hMqAAKAAKXL8CUUmGPu8sbxTMzZjPkGMk0HMbBvvoHMyI8vIhjDz0mj3BFIssFMHVBUIxkCE8oNGmgDeCNOhP9AIQUhzo7daZiP/oWEETNPlrkZcM8YxPYmbeJxhneP1mFlwRFAAFQIEbpMBNIUPmvYZfgjdvPkMcF8pYF5yZKhhrJKA19QUBOZccGfAwfxYCHAwKXLcCQIbXrTj88oMqEAoWMr0wXsERp+ycpaFwYNA6XNEj4ZOBhlUBmgw5cz2Bz1AGrkJQABQABUCBYArcFDJk5VTzDpGgcZF656KYGjykgrOd9bq8orczVWwoxgNzDM2KvgYJcgz6ryTAYSBlYHu0KQBk6P83HG336eWoz3Ox0LcLxh/hmG6aWbmgle9ZwWJCrvRI9KTBOMMb9DEeqgoKgAKgQJQrEJVkeMsy0PhYiYylwaxQiMg1LXzOImYJwOEF88yPSnBMxBUAMoTnMkoUCBkL/TkJWT+kK6W7Fykc6QxkGOVmFlQPFAAFQIEbpACQYSQy0FBWEwOHNPKJBQK2keDHuKKPJIf5OYBlzMBeUCAyCgAZRkZ3+PH7KoB7STyLve92cndYXa2vn5A+mHUA97sdvcubjYYg6PX/i4YZBMhAg4lRyOyls9Gg+FJv4A3MWnGDzDWoKigACoAC16DATSJDbwYa/LLzO2sFfg96AzUj++IOZE74bEdWCoOI/vyHXCOTgkOqEO5e2qqB7aBAxBQAMoyY9PD7ZykgIgMFWVuY+8JGO1b/S4Xy03vZPbX3XcKMF4+GFchNGnC0TF198zvvPvnmt77953/+F7CAAqAAKHCbFPjmt779zrtP/lcvdxWgGJVkeJtykzLGA/01mW1seNeRxeLLh2zjhLFnqBUWHHJ3+bOC4BhQ4FoVADK8VrnhN+9PAdThoo7Sz7htum/14yqkd5GumaJBphNHK0w3HR0rkJvUPxm+9dbjf/mXH73+xhf7B0camlphAQVAAVDgNinQPzjy+htf/Jd/+dFbbz3mHQ5vChnSSWVIgu6bnpsUR436BI4Sg8RrdVxwHnItHAyH1Fn+jB/u8XAMKHBtCgAZws8vsgqQ73CoP73w0NPsx2I8fAy93cuEXiD0hUDRFxBzRsnit41kjgoqmpRWAGUrFbwcM91/6f1/93u//weZegPvBhMUCAqAAqBA9CiQqTf83u//wZfe/3f8VikqydBPBhpfMvQfTUq/ARm+ipJ3N6kGUyuvvYHxz9cgQWaJ75G+fkV2G1mnX7R/YAsoEDEFgAwjJj3TQbzcK4HiSOneNggWIj8h1UfTQBjwRRKJQep0E6gXA3rSIAMN2yoaHh3//ve/r9KkszfCOigACoACt1IBlSb9+9///vDoOI+tuylk6DtrBfUqxMaPd5pf1qwVxDDjvEOv+8+gn5Xxp17aAvFNPHNJOMQw+XLbgWCHR5cCQIbRdT9est6BiiMN6DAMhIVBmTAKINDvCww9aUCGbJPoq7/1246tHfYWWAcFQAFQ4BYr4Nja+epv/TaPDQQyvOY3vi8uBuFDv55DH4OTfNGmqdJn10tmCkLb+VOgbt7l8Xhc83VkfJa2ZtTmch970H8ux3y3UeEdt6WtGll3ufGuY7SvVElVA8iQv/vhlRvKDFGBoA5DjH9U14m0pXGLxkKOn9B7AHMkWUHHUzGrjI8xEit+MtDEJspl2lR1WV5KZb6mLFemTYlJSEDfVsmCcpNKhCKf0fw8mhRhFMWvFfLRRx8Z8orCqAacAgqAAqDATVTAkFf00Ucf8VhzfvvkMCpmKKjkLJx3Fsmq7X2voeyj/scZenN3C9DrMhKvaXakKG05cCwK+k8WIrL5kDZU0GEUHOKGMNt9rCM82pCYNz7bgQxBgTAVYJOhsmF+DyPh5vzkzKoTQaDbPpyPS1aRAxEuTsxYyb71oVyhWGAYu4VkKEtUCUTe+IQQxY2LlyUp1EkKNXN8XLwsJU3H/AkrfCtAOQwvFEt3oLTDEB/AbKQiSDEWUrGjXCak0THAe4Xu7r3EeD1b0CuHefOJ4+I0FflpdSVptSWptSVptcVpNcWpNUWp1UXqsrwYuRy9O2/7rBXn5+dhGCJwCigACoACN1cBfvu9qCRDP+MMfcnQ/zhD5v1Iv7uv59V88SpsPuSs06aIPz70Vpve6wOHrI1sswdS0bDVgPWwFchq6B8dGZtcRS5D4jOsmHGi9c0xxHtCsaIBuxOPV/uUYkE53nfsGM3HnySUZJ/H2qsSDK7fQjKUyhRiSdylxI2Ll5WW11TVtpAlMyuPrJCNcfGyS5UGB4emQHCHIf2x7YK3kO0qJEwojomLlyYmyJXyJJU8SR1li0qepJIlqmSJalkiu24qOdpItqNj6D+VeKNKJlfKEsmCD5Mr0Ra5MrL2EL9WCL8WUmSVgauDAqAAKBCKAvz2e/z2yaHUn3MMx2FoKKgkryr8CiPvOPwiQ2805k/0vmO9Gak/mXc3eV3K8DHR+VpPkCvjpYnimDhihND+Q8Z5yAZI2phBafbIdh/3ILgNQ7MYfUSDUy4qQPkAcXAoJkPjNAJDt6WNkc4wuYV2W7vFpXfIvg6mnKwJB9q32n07yTAmLiE2Xs60NpSVvIKyvIIygVBM/ISl5TWMtzAzK4/sem458rzmxpYeU57Se2RSsamlp7G2WC4Ua4o7Gps7ClOYO8SsZJW09DS2VKf5CUYNsos5/cau4JkqLowwxP0mdvohAqyctO/sbG8vDejJVz2qh/2CIKWkY3p51T43N5+dk6dIVsfESoWiGK/yfsSMuFAk3SgnDSnJTcr+wkpPbU/5DG9zNCm/FhLHXoE/QQFQABSIQgX47feikAwDRpNS4yPodxyK7SIL9XZmZaDx2R6Fb3aRKCYmViqVKeITkkTiGIGQyX7nBw7J5+xAMaX0XhR9Cgso8KIKeKNJh+wI9Ryj9OhBgVBM7ZytGbThfSMq7+WI13BvvupWRpMKRRJZolokjvU2+Hm/t6ralkCOwbh4WVVtSyhFARmGohJ9DCK9C1hIf1Fj4kgrJ+zb21tbS/2Z7CBShXF4xW63T03dUarSYuIS6DKjvFcFMuTOZ8ivhRSFJiBUCRQABUABjgL89ntAhpE1AGLiEmSJSg4cXggrDcVt6MedGNmmwdVvpAJcMlwfZBEQvbNhcB2RoX2YZTbT++qE4lsYTSoQism3nBBvaly8rLGlp7CkMtBS19QZiBvZlwhOhuwjfdeDOAaD7GLdTtZd9y05mo/xG0pKB2BgMhQIxUlts9sUGaJYf/xpTfSFwsFFu31tbUmlRK7Cm9NkIEMgQ64CHJMR/gQFQIFbrwCQIZWT5ib7DNmGhyRWmiBPxlu8nkMKDlljC1lRo1wIZO2KZrMN6nYTFPACXrg+w9tKhgKhODZeLpUpQvEcqtRplTVN6RlZgZbKmiaVOo3dEfhdD0qGypzansaW5pwk9GDFaYrLGnoaW3oam7tMZdWVrGjSwLtiZDqTqaELn9VhMhaqYlFR5KLlxcVl9WRXl6ksSyqK/sf3OQ5D0+TGDooj3d7a2nI4FvsyaSwUiPL6Fm02W7WpNF6a6PdGROtGIEMuF/FrId16gxIaCAqAArdAAX77PfAZRsMbPy5ejv0HCPmYMYec8FE6apSOjfL9po9DqCCgNPpt16ivoZcMa3BiUj/jDO2D4qpZlKjGbbkwztA2JLjFZEg8h7JEdWy8HCWk8ZetNEGmqKlvq2/uamjprm/uCrQ0NKO9NfVtCTJFkD4oRDIUp5nqERO2FeXkaHNMNc0YEfE4wyC75LloEGO9qTQlWZ1S0IBKqC2WiygybGzpqa0s1elLyzFw1hR4M6wGqXDkdvkNJcVf0ejBh8bh5c31zY2NLYfDsblJyBB1uAKhqG7Strq6lqRQi6J9YCGnBwEyBDLkKnALzFxoAigAClxKASDDW+YzxDMVx6Cs+Aj2QoFDbO2gI71GAnYbku3ejewDYB0UCEkBLxmKSW5St20oCz9pfnKTutcHDfh5o+e3QLlJbzcZ4p+rJCYuQSpT4CRX7MyQsH6NCiQyiTdJajK//5L0ZaoEuTIBJ+HEK8nUv7LkBFlyghz/K1MkoBSdJHjjBvWhQIZcLuLXQrqUcQYHgwKgACgQEQX47ffAZxiSucxisCs6XpqQJI6Jp6etJ55DesYLOqY0iNsQAkqv6L68dMWyyFCg7Lbiiexd3vkMPU6zCWui6loh+7zzGXq2zRX4l3I7xxm+dI/C1fd6/Enq12FIx1fQIwyp5M5MklLkS6Q/swnEMbGXTj/LX/3DZlEgQyBDrgIRMUzhoqAAKBBBBYAMb5/PEI9gkqF8ePTUFEFiSpljOGYJuA05gsCf4SjAJkOhWJDfPb3uch+jfDMel9M6UqPw8kJ+18y6C+Oh59jlXBmrorOYAhmGbejDieEp4JcMMfXRoaT4x0BtYRLPsFkxNk4WG3fjJpkEMuRyEb8WUgRNPbg0KAAKgAIhKsBvvwc+w3CsZ69xHJ4Z4+es2DhZTJyMPbYQwyFxG9LftYVMklLvFqb+QIaMFLASWQWADP38wiN7S2771QNnJfVDhiQlqY/DUCAQAxmGaILwfhi/Vgi/FhLvjYUCQQFQABTgXQF++z1+++QwGntxpvuXYT7Di3Yaiwx9RhtiVqSjop5PhuRIsEtBgUgqAGQYSfUvdi4vwZYgZEh/TqOD8hmHITuUVCAQARmG8f7m5RR+rRB+LSReGgiFgAKgAChwpQrw2+/x2yeH0XAgQ2K2YTJMQOMM/QaU0lYNDDV8CazcG48VQIY3/hbetJ/Zc8gQNydYKCmQYRgvb75O4dcK4ddC4quNUA4oAAqAAlenAL/9Hr99chitBjL0Q4Z0WoRAAaUMPbLtN0hCw1YD1iOoAJAhkOE1K/AiZEiF7IPPMIz3Ny+n8GuF8Gsh8dJAKORmKfD6G1/85JNPf/SjH88vWJia77kOf/rTn3788cc2+yazMcjKl7/8K59++ul/+29/lpKm+/KXf+VnP/vZ+fn5v/3bv1nX7EHOgl2gQHgK8Nvv8dsnh9EiIENiwfv4DH3chn6GGgIZRhB74NLPVQDI8Jq5CC6H5rhH38Z8hoATJyGzPZDPUIxDNSCalJvKJYzXeXin8GuF8GshhdciOOtGK9A/OPKDH/zTZ5999t6T95mG/MZvfvX8/Py///e/TknTMRuDrDBk2Ns39OHTp7/85S+/+c1v/fv/7X9v6+gOchbsAgXCU4Dffo/fPjmMFgEZEmOGRYacgNJLkCE2jXzmOfS1lDiGE/wJClyJAkCGVyIr/JgDK4DI0HcvlaSLRYxeUCSpn+nEpIgMvwDjDGVAhhFTIAzLCU65UgW+/vVvnJ+f/8l3vkOuYqyo+t73/vbZs2f/4T9+5bLXJZwJ3sLL6gbHX0oBIMPbOWsFyk2agHIiPGeo4YV8Cqyv5ECGvsYhx1aEP69JASDDaxIaHneswKWmrCAdKCcxKZBhJKGI3+/T/FpIlzLO4OBbo8Dbj9/99NNPf/jDH46Nm6Uyhc2++fHHH//kJz/Z3XONjE782Z/9Pz//+c+fPXv28ccf/87v/p6puo7g389+9rO/+Zv/77PPPvvrv/4bwpYffvjhJ598ek7/99lnv/z5z39OyiFaffuP/vj8/Px3fvf3bo100JCIKMBvv8dvnxyGIOAzJNYd8RleggzpsYhs4xCRIbUdTFNQIGIKABlGTHp2d/DSrL8AGZLvcOAzjJzDUCpT8GuF8GshhWHTwCm3QIGxcfMPf/jDTz759PU3viiVKf7Df/zKs2fPvve9v121rf+P//GPv/zlL7/9R3/81luPP3z69NmzZ3/4h1+fME//4Af/dH5+/sknn37ta3/41luPCRn+1V/9v7/+n//Lj3/8Pz/77LOvf/0b/+nXf/3v/v7vnz179p//y29IZQpylV/84hf3Xjm7BaJBEyKoAL/9Hr99chiyABn6J0MMeD7z3VPpSWmfIZAhy1n60tjAN4M4gAxvxn26LT+bUMiQCi7lTlkBZCiKEYpiwnhz83gKv1YIvxYSj82Eom6WAsSb9/WvfyMlTffnf/GXBOe+/OVf+fzzz//8L/6SjDZcXln78Y//58cff/z4nfd+8IN/evbs2W9+9bdIMwkZfv3r3yDuRAYySQnf+97fGiuqiGfy+9//vrGi6maJA7WNNgX47ff47ZPD0ArI8JJkSKdaADIEMoxWBYAMgQyvU4EgZEh/SCPf1TAH4pGHDCjiUd3gMwSfYUQVCMNyglOuWgGCbU+f/sPWtvNHP/rxT3/60z3XIeE9OjiU+v8nn3z6f/ynX//BD/6JwT+pTBGIDImfkJT27T/6Y8Z/eNXNgfJvtwK3ngxLxKsl4tVS8Vqp2FYmtqNFsl4m3jCKHUbxVjlativEO5Xi3QrRXqV4v1K8bxK7TOIDk/iwSnxUJT4yidxVouMq6t/jatEJa/FUi65iOSkTbWaKeuOEqvA+xHOjSWnwuzhxxfOmNCQ2z3UaZnAtUMBHASBDHznC6xHgrJAVeBEypBJ8QQaaCJpN/H6f5tdCiqAscOnIKmCemvnoo49+/vOf//4ffO3zzz8nnr2vfe0Pz8/P//hPvmNdszPL8sqafcMRIhlKZQpmbOEPf/jD0KfBiKwacPUoV4Dffo/fPjkM6S76DG8mGVK0WSU6VgmNIZs0XgPyAhmKSeY8IMMwxIRTIqsAkKH3hx3ZO/FyXP0FyZCcDrNWRCwJDb9WCL8WUhg2DZxyaxT4k+985/z8/BeffHJ+fv4bv/lVqUzx3pP3P/vss+//3d+ZquukMoV1zf7P//zPT5/+w4NXH4VOhmS+xE8++fSXv/wlE5h6a0SDhkREAX77PX775DAEuWVkSBySScL8y5pkvmQYbOIK8BleVls4/poVADIEMrxOBV6UDMl4bpjpPoz3Ny+n8GuF8Gsh8dJAKOSGKkA48Pz8nAR//i93X1tH999/+OGzZ8/+9E//b5KB5vz8/Bvf+L9IBppQoklJIU+f/sP5+fnnn3/+5S//yg0VB6odVQrw2+/x2yeHIdStJMMS0dplbXGGDP2lJ/WZ0hDI8LLawvHXrACQ4XVyEVwLfUjzP58h3k5P5oMAkslAw5nMEKJJw3h583UKv1YIvxYSX22Ecm6iAiSg9Pz8/MOnT5tbO0gTevuHvvvdP/3JT37y+eefc2atCJEMpTLFf/2v/+f5+flHH31knpq5icpAnaNNAX77PX775DC0upVkWC3yyIU5lzLH+SNDEoYK5iIoEDEFgAwjJv2lOp1ts7puAAAgAElEQVTbcjCQoVgoEgt9ElJJBEIJM/Mv2ivCf3o3opSkzBLGm5vHU/i1Qvi1kHhsJhQFCjAK/M7v/t75+fm3/+iPmS2wAgq8iAL89nv89slhtOu2kmGasOFSdheQ4aXkgoOjWQEgQyDD61QAyBDI0DtIkl8LKQybBk4BBYIo8NZbj7/6W7/9r//6rzCNYRCVYNdlFeC33wMyvJpUpR6tqO1StjuQ4aXkgoOjWQEgw+vkIrgWkCGQIZChV4HL2pRw/HUq8Nd//Tfn5+fPnj37k+98B6YxvE7lb/e1gAyjctYK7kwYQIbRjC5QtytVAMgQaO06FXgOGeJnHU/mc6vHGU5PT+/u7tbW1uH2omjS6enpnZ2djs4uJpq0v3/AZrPV1NYycaRkJbI2E7/fp/m1kCKrDFwdFAAFQIFQFOC33+O3Tw6l/pxjbms06dWRoUCIsy0IqGkt2CY+SrVAbb9OwwyuBQr4KABk6CMH+ycK61egAJAh8hl2d/e4XK6h4WGssCRTn722trazs2OemiJkmKxUz87OLS8v5+bmAxlyDBH4ExQABUCBm6sAkOFL7jMEMrwC2xIseT4VADLkU0143J+nQJSSoSIhLk+bVF+g6a5IH63V3WnSD9fousrTa/M1hrREmTTuee0K5SkimWYQGZaVle/s7CxZLLhYSXVN3dbW1s7OzsrKii4zSyiS5OYVLC+v3LkzHRsnBTK8uSYg1BwUAAVAAY4CQIZAhizfoIhtXbC2h2JUwDGgwJUoAGR4JbKyf+qwzlIgushQGhdTV6BZ68k9GCsKvix15FTkKGNjYlhtueyT4yVDpUqzurq6ubmZm5snEEoGBoe2t3csFsvGxkZVVbVQJGlsarHZ7N09PWi9sXlhcWl1dW1lxTp1Z5pjZFzzn/xGLvFrIV2zFHA5UAAUAAXCUIDffo/fPjmM5kA0KbEKQs9AAz7DF7CjLmt3wfHhKABkGI5q8FiHq0AUkWFuetLucGFwIOTsdQzkpykTwm27lwyFQvH4+MTu7l5jU7NAKJmbW7Db7b29fVtbW51dXUKRZHh4dG3NVmky1dXVW1fXRkbGtBmZxSVlQIZhGC5wCigACoAC0aMAkCH4DFm+QfAZghEedQoAGUbdLQkXPG5EQ6KFDBuLUjjU5/dP51DBbGPW7nABs3d/pLBEnxzWPfIhw6bmlt3dvaGhIUNuvt2+Pjc3X1xSarfbp6enk5Xq+fmFxcUlXaZ+ampqdnY+NU1LYkrLK0yRtW/4/T7Nr4UUWWXg6qAAKAAKhKIAv/0ev31yKPXnHAM+Q2IPgM8wLLvoRhiuL10lgQxfulse0V9vVJBhXYGGIb3gK425mnKtsiZLvT/i413M0yZdXkYfMszNy9/c3FxasjQ2tWxvO3t7+5KV6qWlpZWVFZOpenV1bWx8QpepX1hYsNnsa2u21dU1q3XVal3lvJWv+U9+rRB+LaRrlgIuBwqAAqBAGArw2+/x2yeH0RwgQyDDy5tDYHhHtQJAhlF9e27d7y3yZFiQoWBocLYpqwmzX2OuZrXTwGxnVmqy1OVaZblWuT2Qz2w8GCvaGynUqmSXvDs+ZCgQihcXFzc2NszmO1tb2zU1tUKRZGhoeGNjY3Bw2G7faG5u1Wbo5ucXcB6aBCYPTRhvbh5P4dcK4ddC4rGZUBQoAAqAAlekAL/9Hr99chhNBjIEMrykLQRWd7QrAGQY7Xfodv3kIkyG8XExe7T3b2ewgFAf+bdar7o47NDaaWgvTO0tTXeNclPU2HvzRKJLPTxcMuzr63M6d7e3d9bWbPqsbKFIUl/fsLGxSTyEhYUlQpFkcnJyaWk5L7+QkGGlqTqMNzePp/BrhfBrIfHYTCgKFAAFQIErUoDffo/fPjmMJgMZAhneLjP1Unbd7TwYyPB23tdo/aFGmAzby9IY1996bx6bDMu1Sqs/tyFz/MUVY7byMjpzybC2tm5nZ2dvb//O9IxQJBGKJAZDrtVqdTi25ucXFMkqoUhiMlVZratTU3eyc3KLS8pmZmbDeHPzeAq/Vgi/FhKPzYSiQAFQABS4IgX47ff47ZPDaDKQIZDhZQwhMLlvgAJAhjfgJt2iX10kyVAilrC9gnsjhZUZKFKUWRz9PiGjF1GQs2Wly3CZW8MlQ31Wts1m393d6+hA+UiFIklsnHRubs7h2BoYGBIK0RahSFJeXjk3N2+1rsKsFWFYLXAKKAAKgAJRpQCQIeQmhdykl7GdwEq/bgWADK9b8Zf79xBJMsxJTeSgnbkus4KGw8GKDM7eUP6US2NDvqFcMqRPJNspDhSKxAQIGTJkRhiSlciaOPx+n/7FL36h0qRHtkVwdVAAFAAFrk0BlSb9F7/4BY+X47dPDqNi4DMkr3LITUqbNGBU33gFgAxv/C28Ub/GSJJhp9EbSspQ385gwVS9fqXDJ/3M7nDhbFOWuU6/3pvHHOl3pdKgCll/IEMFx+z47nf/dGBolLPx/2/vzOOjqLI9/g9bL1nodEITfDFCCGZQFCWJJOLGOiCyJCyyCQlLdtIJJEBg4sy8zxvfOE9kHEefIoLoIC4szjzQcWRYHGWbTwARgmKQOCYTIoSQDiak0/WsulW3blVXV7qT7q7b3Sefgk91VXXdW7+qvvd865x7LnwEBUABUCBYFZg+c9aJEye9eHVAhumGSl8sgw0T3O7cWTMSyNAjueBgmhWgggyjB9wGS9AqEDMoOmaQWW2JNcfEmqNjo6L5/6OiB/KLeaDJPDCKXSwmdp1HC3N0bESkp6lBjYvGDVOkO9nGwql3pScOwiGmix+7kzxg+aSfzX1waOHjPDFOfWCw2z9vIEM5GVas/8XuPXvxbYUVUAAUAAWCW4Hde/ZWrP+FF68xaMlwxob169dvyN+QZtiQbvgFsfiEA53ZshtkGBUdS9xZ1m6JwjYMtmoEO8cczVk+MbEq1lE0Zz4FrXEIlj+tClBBhm7b1uDfC3QFtPQZ5kwZTjKeq/XxI+IwFqYMjn046TZ8ZP6U4WjXpHtuRxvnPDzU7acXyFBOhiazparq1LqKDURvqnAM7AUFQAFQIAgUWFexoarqlHcvBMjQGeq8sqUbZBgeGdVPZ+inM+jYxajTG3R69iM/qlDHfuQWI4wzdNtwCnSjNyDrD2QYkLctYH9UWpJhyYwRmPFcrayZdW/K4IEkGaYOicUHL5+YhHZNHXUH2rhk/J1u3wsgQwXqS05NO3fu/Gtbto5KSfOuwQRnAwVAAVCAEgVGpaS9tmXruXPnk1O93NBRSIY5Obk5Obm5y/OWTMp/yFgwylgwKr7wyQVFhQXFxcVWa5E1Z1bJJGPpA8bVy4rKysrKc+eWrypbs3bt2nVr1hXPrZhgrFiSx/oL2X/c37olgeEzBDJ02xwCw5tqBYAMqb49Qfcz04wMjUYjBry1s+/NHp/05JihRU8oDCMcI8xujyBw3F1x5BcXPJw4LXlwqQCZeY8Pd/seARkqkKHJbBkYG/f8phcaGxtrLl06ffoMLKAAKAAKBJMCNZcuNTY2Pr/phYGxcV4nVQrJcOnc3FmTc5cuz8vLy1/6OEuGi5YXFhYW5c4pnpluXbrcWlJSsvLJ0kcEMiwvLy9ZtCZr1tpV5esqKirKF1ZkTFi/LJsjw5INyzI2ZD0CZAiWKijgPwWADP2ntdsIEcRV0owMdXqRDMsz70HUl544aK3TFPZLxt2J3Yajh8bmqk5ymOPBxBVAhspkiE2lUSlpjzw2HhZQABQABYJJAZ8GRGhOhkl3p5DpSZPuTnnEmHufMTctPW/Z8vzcpwomP1ZQWFhYOL9ojLE42WhNibWuKC4pLS1dOIj3GZYuKB9tXDPauHb0mHXlFRUVaysWGdanBeA4Q/AZgpUbHAoAGQYxhlF4aVqS4UpiukKUY+aBhNjyzHtIlyBaz508fMp98bPShnQ5w+HCscPcbgiADLsgQ4yIsAIKgAKgACjgjgKak2H8kOEkGcYPGX4fR4b3G/PuN+aPMhZMzeTIsLBo5UoumtTK+gxLS0uXpfNkuGKMQIbGdXmrKioqKvLSgQwptN+gSqGiAJBhqNxptwHGp4JoSYbLCe8fYr8cYoszH7qzJePBBLeFBTIEMgQFQAFQABTwpgKak6HJbIkfMjzp7pSku1Pihww3mS0yMpwykyXD3LlFP7+3ePJI6xR2KXn8vtKJgs8QyBBbEURmGp9aYnByUEBNASBDNXXwzxVWvKSAlmQ4I707c9mr8+FDI/7DbWWADL1pD7nzNh2OAQVAAVAguBWggQxlCsujSccU5BcWFmYXTcDRpIUl1vzSOcI4Q3k0aVnFfIgm1YNpCgpopgCQoWbSu00UwVRDLcnwvqED1THP1d6S6XcveDhx+aSfOQ9KvH1glNv3EcgQyBAUAAVAAVDAmwpQSIbOGWgWLmUz0OTPdysDzep5FaMN69Mmcxlo1m0ogAw0QImggH8VADIMJu6i/1q0JENTZIQr9ls7+96VT9xVpjTmMG/K8NEJsShjTeZoidexePrdbmOhUacHMvSmPSR7Sw0fQQFQABQIQQUoJMMcYtaKdDRrRWzhk08W5buYtWLl0vIyPGvFTHbWCpYMDRtWFMGsFfQbdVDDIFQAyDAIb6onuOLny9eSDHV6Y8aDCYpwmPHAkJTBsQ8Ou63gcfk8Fo+PugNhYcrgWDaX6ex78fLYvXGeSA1kCGQICoACoAAo4E0FKCRD2ThDdj7DsMJRxqJkFE1qtKYYS1KJ+QxXpIsZaNKMFWkCGaZxfJhm2JBugFkr/GyqQXEhrQCQYUjffk/AxitCaUyGlqjINbPkyUjLM+9JHcJ7BR+/n5/CHuNf5mgWGtHy0J234e3W6SPCw8I8ERDI0Jv2UAg6B+CSQQFQABSQKQBkmG6o9MUy2DDBk/7dGBFphlkrPFIMDqZWASBDrwAPnMRNBTQmQ53emH6XSHcI86zTR2D2e3LMUMx+aGXVzBETRtyeMjg2dUhs9vg78d47b4/x8FctkuHYseNWr169YMHCgoKC1avLSkpKs7Kz7x05Um8I0xuMicOS5s1bkJfHDtpfvnz55MlTomMsekP4qOSUBQsXycwCP3+k0ArxswJQHCgACoAC9ChAYZsMPkOdjjV1dHqDTm/opzPwGUd17EduMRI5SA2kIUFsd9OmgsNAAe8rAGTofU3J3zmsSxXQngx1eqNzktLpKYMn3nP7E6PuWOM08T1Cwfwpw1fNHIGxcIwHKUnxAyYhw7Ky8vLy8lmzZsfdPvjhhx9duXLlihUrhiYOSxg6bOnS5bm5eenpY+Li4p944onc3Lzp02feHj944cJFixY9pa1FQqEVoq0gUDooAAqAAhoqQGGb7D4ZphrKHjCWP2CEaFLeTgAylFqM2HyCFb8qAGToV7lD/qGnggyNxrAnH0nEmOfpyuSUO7p1H+VkmJ2dHRFpQplpfj55itVqnThx4oQJE4uKVk6YMEmvD9MbwiIiTXOfnJedvezRR8dmZy/NyJiloQliMlsotEK0FQRKBwVAAVBAQwUobJOBDMFn2C0bCaxxWhQAMqTlToTGD4kKMkRSP/CzQasz5GMO1SmxePrdw+8Y0N07JSfDadOmc6dit98/KrmoqGjOnDmzZ8/Ozy8YOfJ+RIZ6Q9jEiT9fkZP7yKOPzZ49d8WKHA1NECBDbcWH0kEBUAAUkCkAZOiLQYbphkoYZ9hdUweM6oBXAMgw4G9hQP16KSJDnd4YbYqYknqH4mQVMkQsnTli7MjbIyPCe6B2j8hw9Oj0iEjTqOQUmVng548UWiF+VgCKAwVAAVCAHgUobJPBZwg+wx5YSmCTa68AkKH29yCUfkJ0kSFSPiYq8sG7bpv3aKIzIpbOHDH7oaEP/GxQ/x4xIXrG5GToUTTpuHETZs2a89DDj2prkVBohWgrCJQOCoACoICGClDYJgMZAhmGklkbhBABZBiEN5Xi3ySNZOgvueRk6FEGmqGJdy5evGTxkiwNTRCIJtVWfCgdFAAFQAGZAkCGEE3qLxsGrOVQUQDIMFTuNB1tB5ChUW8wjh07rqysPDs7u2jlyrKy8pKS0qeeWjzsziTnWStWrFghmbViwUKZWeDnjxRaIX5WAIoDBUABUIAeBShsk8FnCD5DOgxOMO+7qQCQYTeFg+e+WwoAGYpkOPWJJzgNkS+RzUSKyJBf4XKTcuvheoO4aGuRUGiFaCsIlA4KgAKggIYKUNgmAxkCGXbLPgRrnBYFgAxpuROh8UMCMgQytGhoRUHRoAAoAAoEkwJAhhBNGhrWI9jq/lMAyNB/WsOvV6cHMgQyBDIEBUABUAAU8I4CQIZAhmBbggLeVSC0yHDcuPHFVmtGRqZ3RcRnS05JHTdufJdL4rAkiyUWfyuUVoAMWTLU68n3ERBN6h0LKZj8AHAtoAAoAAq4owCQoY/IMF7/iEe2WUSkOTwyqp/O0E9ngGhSj6SDg2lTIITIMDklNSsry2KJzcrKShyW5PU7kTgsCWFnRkam+lJstSanpHq9AoFwQiBDIEPgQFAAFAAFQAHvKABk6CMyjNZ7ZiUCGQaCCUq+lId1lwoEORkmp6RWVlYWW63jxo3PyspC3kKEbQjk0C6vPNDIVejOqdw/0p2zBdQxXZBhP52RjThlg075I9nXb/wWo457G9dPZ4iINEdEmgPqwo06vThrBfgM3XkXDseAAqAAKAAKqCsAZOgLMrzPkOepgeE+GfbTGVlTB1s7RAwRsd2l1e5pxeB4UMBTBYKcDIutVhS6ifgQuQotltiMjEy8q9hq9VQ1xeMVec9iiXUOHFU8UvGcQbcRyBB8ht55U65uLVGy99nfPdfefothmM8+P0pWKTk17euvLzIM09LSkpNXQO7q4fqESVNqampaW1uf/uWvVU61efOWmzdv+qICKoWSu9ysJ/kVj9Zz8gpauD/vyutRHXxxsMp1bX/zLYZhqqsvuFlucmra0WPH7Xa7yrd8fZvcrCocpqIAkKEvyHCA/m5PrS8gQ08Vg+OpVSDIybDLwNHEYUlZWVleuT2KvOf+Rq/UgfqTABkCGYYiGTY1XV++Ig+bd6vL1thsNl+AmTum/Njxky7X1trt9k8//cfWbdsnTJqCK+bTFRJd3KlnTyqjQlDdOy1Z+e6dwSvfUrkuT2v49C9//eOPPzY3N+/Z+8HGjZsUq+fr26RYKGz0SAEgQ++SYZphwyB9cjdMKSDDbogGX6FTgSAnw+SUVJlLUObBQ55Dr9wb9yFQ8Uiv1IH6kwAZAhmGIhl2dnZueX0bNvj27/+Q4f687jPERaisTJuRWVdX7/+iPUUXlUvocpcKQXX5XcUD/Fl5xQqgjSrX5WkNkUPbfR+jSq1gl4YKABl6iQx/McqwcqhhaqR+UPfsKCDD7ukG36JQgWAmw8RhSRlcMhikO6LEYquVTACTxf15JSGNIu+5v5HCh8MHVWIHEHKDCckYejSwkI28h3GGbOZSNOU9zHRvDniGxNGkDMN8/fXF5NQ0k9kyYdKU2trvZGT40suv/HD1qoP7a2hoeOEPfzSZLQgDrl1r+vbyZbvdfujQ4cxZc6uqTv34448Oh+PGjRsf/fXj0ekPkVYpJofXt77R0tLyw9Wr586d7+jocDgc1641vfTyK2SVGIZpb7/17O+eUywdkUbNpUvXrjW1tbf/37795AntdntV1alf/ed/Xfr2Wzv398XZs7PnzEMXePDgIRSt2tbWduLEyanTZlZXX0CXjP6vrq4moz1VKlBdfaG+vt7hcNjt9osXv8nJzSev11VxSIebN29euPBVR0cHwzDNzc1bt22Pi08wmS1x8QnvvPv+jRs30Gl/8qCu31BpMltkcIW0qqurx/cLVf7QocO4DugrZ7/8sq6OraTD4fj28uVVq8vx2bCAz/7uuZzc/K+/vojqY7PZPvrrxwVFxXV19bdu3Xp+0wvonG++9SeHw3H+fPW0GZnOMqpcF1n5u0aMfH/X7ubmZofD0dbe/uW5czLdDh06TN6Ourr6svJ1ropraWnZuOn3Px2D9ayt/Q59rKo61dbWxjCMzWZ75933kbyuntJVq8vR04KeXnT8/IWLvzh7Fmly8+bNAwcOyh5pLDWsKCpAIRnqDeHSJYzt1MQeTejjDOzYe27h7QG9nntzauCH5fvAAiENDy+ve48MUW4FL1cvsMSE2mqrQNCSIRpJmJGRiakPuwctlljsSERjDnFymp7cDHUItFhix40bj86veGRPig6c7/aUDFESGshAo2gi+GEjhVaIH66620UgtLh2ramp6Xpra2vZmnUmswVtbGhoaG1tRY67F//48q1bt9rbbx04cPDAgYPt7ez6xo2bEAagoNN9+/Zve2P7v/71vd1u/+zzoxs3brpcW+twOA4ePITMcVRJGRkyDNPW1nbgwMEvz51zOBw2m23r1jfefe/9pqbrHR0dhw4dfutPO/bt/1CxdEQaDMNcrq19++13Xnr5lZaWFoRYH//tkx+uXmUYprOzs7m5+eO/fdLY2MgwTFXVqbj4hM8+P4q+9YcXX7p48RuGYT7668cbN246ceIkwzD19fU7d767a/ceTIauLh9XoLGx8S9/2YeKwICNb4picVg6UlW73f7mW38ymS279+x1OBwtLS379u0/fvyE3W5vbm5etbqchCt8p+rq6t99bxdZeXIMJ67kD1ev7tq95/z5aofD0dR0vbDIinchATc+/0JjYyOivl279yABDx8+8sknf8cjUePiE86fr0YeZk+vi6z8gQMHHQ7H5drajRs3ffb5Ubvd/v33dYjbkW5P//LXhw4d7ujoaGq6vnvP3pf/95WqqlPOdw0/TogM0auEAwcOvvfe+3V19QzDdHR0HDt+/Njx4x0dHYhvp83IVHxKp83IrK39rq2t7Z133//NM79taGiw2+3btm0/feYLu93+8d8+efqXv7548RuHw7H/w4/wzYWVLhWgsE2WYmG407vOICdDLn8eGx6Fkudx81hw+WaEdHpdZaABMgQq1liBoCXDyspKWeBoZWUlJqhiq5XcS7IiPsbTFUXewxvJAY14o6dFBP7xPSRDPj0pkGGX5oKPDqDQCvHRlXrltNjpdOTIpwiQfvJxffb50c7Ozj//+f8QGlU+/auamprOzs4dO3aiQnfs2NnZ2flTiprKp3/V0tJy69atF//4ssls2bx5S2dn5+kzXyAUXL4ir6np+o0bN/ILVuLaYlMe+QxxFCvOebNr9x4UTYq8hcmpaa5K37v3zwzDNDY2LnxqCXZgYu/Wr/7zv9ra2mQfGxsbn/nvZ2suXbpy5UrpqjKT2VK2Zl1ra+vl2tqx4yeR6ILrqXL5qAJ4iCYanIkBG11y5qy5isU989/PtrS0OKuK3IONjY3o8tFJkAPts8+PkjUkyXDajEzZLiw42n79enOxtdRktiSnpn157hzDMPv3f4h2YQF37d7DMMyX584h13GxtfT69WabzbZv/4dtbW1XrlyZPWdefsHKGzduNDVd37TpBU+vax8XolxdfWFJ1jL0MgINbY2LTzh95guHw4GoGNccP5zTZmSqy4h9hg6HY/eevSazBT1C+JFGTzXDMMeOH3f1lG57482WlpbGH354anG2yWzJL1i5c+e7297YjnyP6yo2mMyW+QsXv/WnHa4GPeKawwqpAIVtMpAhi4VAhkTO1cC3XTVGNT8LGLRkiMJEMzIyMQFmZWWhWQQThyVhSkSuPDQPYQ+lJ3kPl4s3Ahly8vaEDLmXcNzEFUCGpGXgz3UKrRB/Xr6nZWHje9Pv/9DW1lZXV7+6bA2y2hG6tLS0vPb61p8cVjabrbDIis5fWGS12WzXrjW9+upr2LFmMltkEYAoGpAkHMxvLS0tiAzJwYTo64cOHSbJcPmKPFelHz58hMxaiVkOZftU/xgXn/DU4uycvILfPPNbm81WV1cvgyv8dZXLl1WArLbsRjgXt/H537e0tDir2tzc/MEHf2lrb//3v/89M3MOOs//PPd8e/uty7W1GK7Qdnz7ZJUnS0f499VXX2PP7Y4dOxEBymASESPm/7j4hK+++rqzs3Pv3g8u19YixkahpKdPn0FFeHRdn376D3S/ULXJYFHnIFgZ96oXh8kQP2zO9wJfrKundPNrr39x9izDMHa7/caNG9XVFzZu3BQXn4Dcmw6Ho7W1taam5o3tb941YiSpMKyrK0BhmwxkyJEhP+EW+Ax7aFrD1/2vQNCSocUSm5ySmpGRiVOPopnu0fQVeKJ5FEeKP/bkBmAI1OmNOCcq3ghkyGmrQobs+ENxnCE7pSEaeWjgpzTkZjiEaFJ1K8HXeym0Qnx9yT05P0aLefMX1dTU3Lp169jx452dnceOH+8SjZqbm7ds2UqS4YEDBxmGOXqM/S5elq/II8dl4dP2kAybm5sxaSAF8JnVybC4pHT/hx+huTownHSDDJ0r4EwjaMSgYnHdIMPvv6/76K8fkzCMb5/vyNDhcGzdth1lJPr86LHTZ77o7OzcvHlLXHyCp9eF79dvnvltW3t7Q0PDmrXr8XOSk1cwbUYm+TCTV6denEdkqPKU3jVi5ObNW06fPnPlyhW73e5wON57f1dcfMKzv3vu5Ml/fv99HRptKJvihawzrDsrQGGbDGSIyZDDQi63guBC1OkFU0cILiXNTm4+Q4gmDS0HHfkAULIetGSI9HXOTSrTncxGI9vl6UcMgUCGrqVzhwzxZPdAhtzAfelofmfLwJ9bKLRC/Hn5npZFGt/vvb/L4XAwDIO8Qxi0VMIpUTQp9vv94cWXOjo6ai5dQiiYk1fQ0NBQW/vd/IWLccXwad0kwy6jSXHuSnxmdTJ8e+c7ra2t1641rS5bg6NJVchQ5fJRNCmugCIZomhV5+IQGTpHk9bU1JSUrnYVTYqch6i2JrPlgz//hWEY58pjtXGaGedo0l2792A3GjreVTTp6rI16CpsNtuPPznRs5UAABFPSURBVP7Y2Ng4b/6iblwXlmve/EWNjY03b95EIZpx8QmnTp2+fr359y+8SNacfDjVi/OIDF09pZtfe72q6tS+ffuRcxUd9t13/zp67Pjhw0fQ1CmoGlh/sraw7koBCttkIENVMkSGDTs0Bg1EJO0lIENSDVjXSoEgJ0OcdcaVvonDknA2GlfHuLkdyNANoXpAhpwXEXyGruwD/2yn0Arxz4V3rxTS+EZDyDBpkKC1efMWu91O5kpBYwvJY1ASzm8vX3Y4HCdP/hNloGEY5vDhIziOsRvRpGj4omLpMrCRVcbVxx1v77TZbG1tbW9sf/M3z/z2cm0tyqDz6quvoRFoaAI9MgONq8uXVUCRDNHgQ+fi/v73QyhfDqmq3W7fvHmLyWzZ/+FHsgw0ra2ta9aunz1n3pUrV1CSmH989jnyfCJQISvfZQaaa9eali7LkdV/6bKca9eaZBlojh47HhefgPgcuViPHT9uMlu6cV1kcegCGxoacAaa+vp6MgONLJpUvTiPyHDCpCmKT+nceQvr6upRspnyNRVnvjjb2dl5+MgRlBvp5Ml/lq+pOHz4CMp5Sz7S3fvphc63KGyTgQylgwxlPkMgQ3AJ0q5AMJMhyiuTOCwJ4R8e+4fykSJvocUSi8ccugE2areTJEMcnopHOer0RpwllTyyh4UG4Ne5VlIyNBmH47MtJndF3BZZNGlQk6HOOaO3uEWSAVxbi4dCK0RbQdRLJ8kQJQLBSTtkZPXSy68gbHA4HD9cvfrSy6+QmIfcdCazZeq0mSdOnLTZbJ2dne7MWoH9jXiYomycIaq/YukkaThXRlZ/8iM+W0dHR1XVqbNffulwOKqrL0ybkXnhwlfIceo8a4Xz5csqoEiGJrNFsTg0YeMPV6+eP19tt9sZhmlquv7Kq5sRcqBZK2w2Gxr2Vl9fj2atMJkt6zdUokkyOjo6Llz46ubNm4gMyco7z1rR2NjY0NCAZq345ptvilaWYHci9nmyGubmX7z4DaqPbIYG5FLGGX26cV2kXHHxCW+//c7Vq9fsdrvirBUyMlQvziMyVHlKyUk78OVPnTaTnfqivZ3No9veXlV1auq0meo/K9hLKkBhm+wmGQpTVoRhMyY4Zq3gcpOSiUldkKHehc+Q3a5masJeUMDXCgQzGer0RjyHIRpzmJGRqdMb0eBDNPDPR9Gk6rcNyFAgQNz8iSjISYc+ikMN+aALNt8X63UMvgw0QIakrQProECgKEDyWKDUGeoZTAoAGaqbW37bi+Yz7HLKCp2eewMuDjvEVpDgSwQyBDDWWoEgJ0Od3oi9dggFLZZYnKTUu00GotCMjMwul8rKSuxU9G4dAuFsPO9Jq+o+GbJwCGSolWVDoRWilRRQLiig6BgEWUABfypAYZscyj5D3mEogJ9zYlJ1MhTCUEVclFpKsB0U8IcCwU+G+HeFg0jxjPN4l7dWEoclIX+g+v8hjIVciAWfg5R8vt0kQ37iivCIqIj+0d66a/46TxjnGDTqDUa95IUQux18hv60paAsUMBbCoDP0FtKwnm6pwCQob96cNJiUViP6G8Oj4wSyJAzadg0pEIoKZFvhkszI2TaI4wBYrvC+Sm5TKhGKCgQQmQYCrczEK6xC58hF2jKt6ryiSuEoYbGsEhTlCUQLlbWvoexWOg2GRoMkJvU0j1rCb4FCoACoEAoKBAQZMj2ZeLIeaOe69q6Gmco6z1p/2iKGmAM68+TITeGUHXKCiBD2m9oAFqYXpMUyNBrUobyY+TJtauQIft2TRiCyHsROTgUpjTkydDYT2cwxwwyGMI9KZeGGw1kCKQHCoACoAAo4DUFgAxpMAP0hnBzzCC2Jmw2BEn6GXILCiXlfIPC62/wGRIK0HAroQ46vRHIkAZgCKk6eDRxBY+R/GT3LBnyAaURkeZIU0yg/YaBDL1mD4WCNwCuERQABUABdQWADGkwAyL7R0f0N2P7BOXMcxVKqkqGiBhDyiaEi6VOASBD6m4JDc2cL+ugSIZCZIXcZyiSIQGH6J2cMco8MDzC5Muqev3ZQNGh7o4zFKJJw8gB/epWgq/3UmiF+PqSe3L+06fPwAIKgAKeKtCTH12ofZfCNpnssFDgqIfRpGjsvdf7X1+dMCzCFBU9kDVFnByGHARKJrXnt/BTVkiqRBCjZHtAGTlQ82BQAMgwGO5ioDUcKgGlZOJmMqCUjSAV5q7g3YYGY4Q5OpYd8x0w0QiKZGiUZqBBx3CjMsSBGeKUhtraPRRaIdoKol76I4+NhwUUAAU8VUD9ZwV7SQUobJOdyZAdZCh2Z3wfJ4wzFG0wYT7DQCLD8Mgoc0yswRjh2mEovPhmE9KoTVkhhKGKggSObQN1DioFgAyD6nYGSDui6DZEHCg0nSzs8Vtc5KFh38MZDGH9owaYOOehPgCGHQIZQjQpKAAKgAKggNcUADLUxOwxGMLDI0wms6V/1AC9MVzAQskIQ0WHIeEYlMxoT2wHoxQU0FgBIEONb4AmjZrWhbomQy7HDNtEYjIUs84QbkNho45NCW0whkVGmmKiomOjBwyKHnAbZcug6AGDzDFoIes2KJrfyO9lK09uiR5kjo41x6CFOyY61hwdS74t9v86hVaI/0WAEkEBUAAUoEQBCttktudiOy/UtXFdGLuF7+nMMWxPR3SL7Ha0Bffd5pjb0Ne5Pp3Gbj0qemCkKcYYFslGM/HpD4TX2ZLJKsSNTjMZAhmC+U2pAkCGlN4YreHN17Jwk/zIo0D58FGnDKVKow0JOER8KGSIRjMI0fm/mqpsIA0vCD/DoTDJIZ/jGw3Y0NYcodAK0VYQKB0UAAVAAQ0VoLBNRl2V8D/bfwmBo3yYKNHZKfeJnA1AZycuqRXHhGh4i0iAgimChh0Ko2D0wkgZIXOpzMbjXohLWFF2AHwEBfymAJChcsPktxsQqgW5HmrYldtQHHAYeHCI5+SQPXVhOg4LBTLkRx4CGWpob0HRoAAoAArQr0CgkSHb9xFkyPZ9sgW9Ghb4SkJiVG10AwtFXHTDYYgOlqshEwc+ggJ+UADIEH6HmiigGFAqNKPcKG1JTKkQrYFfJfKjEEU45NJ/ccGlVHUe0sqokqEB+wxlZCjkpOFmB9bWUqHQCtFWECgdFAAFQAENFaCwTRa8hWLPRfgMWXsDZZrhDNyAJEMJE4o+QAyxQpJSnDbPHYchf7Am9hgUCgpIFAAylMjhBxaHIngFWIpzJiVZ1hmBFVkCxDGl7IBDqedQCOdgc0ajIxF54paakhXn60WPH+czVCNDMaCUy7jjtewFnho0FFohnl4CHA8KgAKgQNAoQFubzGZk4V5icv/zPVcQkCFpWvCzUyB7g59/AtsYXC8v3+W8UbQ8eUOIJUNxI6yDAhoqAGQIP0WtFFAMKBVQ0NltqA6Hwl5Jk01QItmsS/14uEH3w4oaGTrF2PBjM8j+Vc/mYo3R0KahzQrRUAooGhQABUABzRWgrU3uHxUjI0MCCxXHTcgtEG2jSUlTwWkdOwPJKQrZ19mCUeFMgCzvCewnmDdSAuSykqJdcik0ZAMoOpQVADKEn6JWCqgGlHJhooRTURjG7RRWKnEeEhNdEIhItuYSp6JTuy/6G32zi60JGmJBDCkU9ce7+NmfxDmgRJ9hRGSUhrYIbVaIhlJA0aAAKAAKaK4AbW1yRGSUjAwl3ZlkkKHY9+EXo2zPiOaLd/Fi1zdds6zrx3VwXhFMEbmrkEuqh2su7FXCQrlvkCNDdFqJIKFMJnDt2ioAZAg/RQ0VUHcbiuGj3I9EaJElcMhHlirwIW6axQ7GuZX3/xY0hT05pBDpz3oIiR7UiNcNYmQOO9+90RihYUApbVaI5mYZVAAUAAVAAQ0VoKpN7h81wGiMEGa6Z8cZsv2X2LWJ/ZrgSBTND+HFaJhOFybAof87aLJEARexLSFdEfyEwrgYdSwkxhySRj84DEk1YJ0SBYAMxYaJklsSStXg3YZCshnyXnAcKMSUCgfI4VAnHoDDOYRjpI24mLFG4+1GvYFbpPEkXDcp7EIHICBUchuGR/TXyhChygrRSgQoFxQABUABShSgqk0Oj+iv7DDk32+KfRxn50jSz6C0NHoDMgPo7ccJIJQxoSzElA8iJdhPwVvI7UUXS9o/sA4KaKkAFWTIOXy0VCGUYIw2nVXdhkRMqRwOpQMLuxyZQA8ZsmEzXLIZaUAp30fy3MjCoZDYTc+9dmU/ihvDNYoppcoKocQyg2qAAqAAKKCVAvS0yeFOcaS8wxD3ZfxLT2yEiGTIOwx5LMTj8TTmQykEim+fue14SCFyM8qqqoiFCmTIekfZt9VYE1gBBbRXgAoy7NtPDz+MUFUABWxwjay8cRSaWtExiH4wwnbk/ROCS1H8iYCIqF2WNeWUfFT72aMOUngYxAmCOVAUyVBvCAuP6O//sFJ6rBCt7DAoFxQABUABehSgoU3uHzVA6i3k32MKIaP8BPd4MKHQwSl0hVwPTklPLauGFPb42FGZnxAZJ9IjxTAlyfXyvkSYrEJu+ElUUnlUYJfvFKCCDPv07ee7K4QzU68AH1OqVE8BArlWGFMfd6SwS+RD1v1ILvh4ylbEblJ6ydxQQ2FUhrRPFfyH7MtXdrQhWgzGiPDIqP5RMX5DRBqsEHpsMqgJKAAKgALaKqBhm9w/akD/qJjwyCiDOLYQ9U18hyXvxYTBEcJ2ZwYI66cLo6y/5jGPNC24de6ltkh9SkxITHUo7evZC4c4UmdNYAslClBBhr179+4HbsOQfnHiKqaUiCrhfIO4zxB+P1I+lFCiHBSdWnYJRvpxr5iEximglINDpfH6ejGmVAKHmBL5FfG75Lh/WAcFQAFQABQABbykgPB2Ut4BsdudE8+EcbEwfNECFjqFkrJpS+lJP+NsHqD4JiWTgzU8eNhDJgqPjiI3yhmYdxgKXxTsGflhsB0U0EQBKsiwV69effr01eT6oVA6FOBaWy5qVKk+RFus4Dwk6FFsiImvoI1ihlKhfddsC9vl8MMq5K8D2M4Sj0Ike1M+vRs/YEMSViqOSBSHcwg+RgBFUAAUAAVAAVCghwo4dy7KW4S+SV6c0OXxIwlFLMQhpnTMVyE1D1QsCnGXMxPKbBI57xFYCCMM5eIoWYBwjL8VoIUMe/Xq1RdiSuWc4O+nQdPfJGqRuRALZR0E2BMGFmL/IdvOil8RDhMbbgq3CCnaxGqjS+D7SyIPjdDRClGmAgcS25V7aAEOYS8oAAqAAqAAKOBzBYReCWGhWJzQ34kJZpzIkEtOw/XjFPbXzlXiTQ6JEcIPZiEPJi0T8SuER1HhAMKYgb2ggDYKUESGyHMIeUpDuF1wGw55NyDrfCObZj6QQ45bZEtNyTr7a8e+Qekd7xoOhRkOUXcLBAgKgAKgACgACmioAN8ZibMXeoSFXG8o9IOU9NFkNSTWuYLJgZhQ/jJa8i10dby3ELLOyI00Ba2E5wF2aaAAXWTYq1ev3r179+nbr28/PSBiSP4wuoRDWZwGf7wiIjq34HiL1tqiZDM8HEorg/LTyPp44V2s4DkU4BAfJqalURr4AXtBAVAAFAAFQAGvK4D7IGJSewkWigc4jzDkQ0l5hyHq+zSwg3EXjC0Ed1aE3AQkQ6J15UsALMQ6wwrlClBHhr3gDxQICQV6u/7r07s3u5B/3Ja+vXtLlj59+jot/fr0gQUUAAVAAVAAFPCdAvKuR9Y3cR/JHozv1LiOTLnr69Wrd0j0/HCRoAD1CgAZUn+LoILBqUBvzkGu3EciMnQHDnv3lvfQTqzYF1gRFAAFQAFQABTolgJddDFKTNhXqfNCcKjc5XFYCGQYnLYOXFXAKQBkGHC3DCocNAqowKH4hpV878p1quIuDJBohTwS1kEBUAAUAAVAAR8pIOt9pB8lES+yXc5oCFgYNDYNXEhwKPD/gq0Kbulhg/wAAAAASUVORK5CYII=;" parent="1" vertex="1">
          <mxGeometry x="2125" y="50" width="1203" height="896" as="geometry" />
        </mxCell>
        <mxCell id="h8xcSPWI8WKxq6snyLUC-145" value="" style="rounded=0;whiteSpace=wrap;html=1;strokeColor=none;" parent="1" vertex="1">
          <mxGeometry x="2471.5" y="300" width="510" height="260" as="geometry" />
        </mxCell>
        <mxCell id="h8xcSPWI8WKxq6snyLUC-146" value="" style="rounded=0;whiteSpace=wrap;html=1;strokeColor=none;fillColor=light-dark(default, #040404);" parent="1" vertex="1">
          <mxGeometry x="2150" y="139" width="290" height="791" as="geometry" />
        </mxCell>
        <mxCell id="h8xcSPWI8WKxq6snyLUC-147" value="" style="rounded=0;whiteSpace=wrap;html=1;fillColor=none;strokeColor=light-dark(#000000,#FF0000);" parent="1" vertex="1">
          <mxGeometry x="2590" y="65" width="280" height="65" as="geometry" />
        </mxCell>
        <mxCell id="h8xcSPWI8WKxq6snyLUC-148" value="" style="rounded=0;whiteSpace=wrap;html=1;fillColor=none;strokeColor=light-dark(#000000,#FF0000);" parent="1" vertex="1">
          <mxGeometry x="2586.5" y="205" width="280" height="65" as="geometry" />
        </mxCell>
        <mxCell id="h8xcSPWI8WKxq6snyLUC-149" value="" style="rounded=0;whiteSpace=wrap;html=1;fillColor=none;strokeColor=light-dark(#000000,#FF0000);" parent="1" vertex="1">
          <mxGeometry x="2500" y="637.5" width="450" height="82.5" as="geometry" />
        </mxCell>
        <mxCell id="h8xcSPWI8WKxq6snyLUC-150" value="" style="rounded=0;whiteSpace=wrap;html=1;fillColor=none;strokeColor=light-dark(#000000,#FF0000);" parent="1" vertex="1">
          <mxGeometry x="2500" y="730" width="450" height="82.5" as="geometry" />
        </mxCell>
        <mxCell id="h8xcSPWI8WKxq6snyLUC-151" value="" style="rounded=0;whiteSpace=wrap;html=1;fillColor=none;strokeColor=light-dark(#000000,#FF0000);" parent="1" vertex="1">
          <mxGeometry x="2500" y="820" width="450" height="82.5" as="geometry" />
        </mxCell>
        <mxCell id="h8xcSPWI8WKxq6snyLUC-152" value="This Game&#39;s Term" style="text;html=1;align=left;verticalAlign=middle;whiteSpace=wrap;rounded=0;fontColor=light-dark(#000000,#FF0000);fontSize=16;fontStyle=1" parent="1" vertex="1">
          <mxGeometry x="2950" y="72.5" width="195" height="50" as="geometry" />
        </mxCell>
        <mxCell id="h8xcSPWI8WKxq6snyLUC-153" value="The Multiplier (M)" style="text;html=1;align=left;verticalAlign=middle;whiteSpace=wrap;rounded=0;fontColor=light-dark(#000000,#FF0000);fontSize=16;fontStyle=1" parent="1" vertex="1">
          <mxGeometry x="2950" y="210" width="195" height="50" as="geometry" />
        </mxCell>
        <mxCell id="h8xcSPWI8WKxq6snyLUC-154" value="The Public Key (PK)" style="text;html=1;align=left;verticalAlign=middle;whiteSpace=wrap;rounded=0;fontColor=light-dark(#000000,#FF0000);fontSize=16;fontStyle=1" parent="1" vertex="1">
          <mxGeometry x="2960" y="653.75" width="195" height="50" as="geometry" />
        </mxCell>
        <mxCell id="h8xcSPWI8WKxq6snyLUC-155" value="The Server Salt (Salt)" style="text;html=1;align=left;verticalAlign=middle;whiteSpace=wrap;rounded=0;fontColor=light-dark(#000000,#FF0000);fontSize=16;fontStyle=1" parent="1" vertex="1">
          <mxGeometry x="2960" y="746.25" width="195" height="50" as="geometry" />
        </mxCell>
        <mxCell id="h8xcSPWI8WKxq6snyLUC-156" value="Visual Indicator to Verify" style="text;html=1;align=left;verticalAlign=middle;whiteSpace=wrap;rounded=0;fontColor=light-dark(#000000,#FF0000);fontSize=16;fontStyle=1" parent="1" vertex="1">
          <mxGeometry x="2960" y="840" width="195" height="50" as="geometry" />
        </mxCell>
        <mxCell id="0Apc2boT2bE7w6Tbms5S-2" value="" style="endArrow=classic;html=1;rounded=0;strokeColor=light-dark(#000000,#FF3333);" edge="1" parent="1">
          <mxGeometry width="50" height="50" relative="1" as="geometry">
            <mxPoint x="1410" y="94" as="sourcePoint" />
            <mxPoint x="1560" y="94.41000000000003" as="targetPoint" />
          </mxGeometry>
        </mxCell>
        <mxCell id="0Apc2boT2bE7w6Tbms5S-3" value="Require Gas Fees" style="text;html=1;align=center;verticalAlign=middle;whiteSpace=wrap;rounded=0;" vertex="1" parent="1">
          <mxGeometry x="1570" y="82.5" width="60" height="30" as="geometry" />
        </mxCell>
      </root>
    </mxGraphModel>
  </diagram>
</mxfile>
